M48
;Layer_Color=6321
;FILE_FORMAT=2:5
INCH,LZ
;TYPE=PLATED
T1F00S00C0.01181
T2F00S00C0.03000
T3F00S00C0.03543
T4F00S00C0.07874
T5F00S00C0.12598
%
T01
X1074185Y0434925
X109387Y041524
Y0395555
X1113555
Y041524
X1125366Y0434925
X113324Y0442799
Y045461
Y0395555
X1145051Y0387681
Y0371933
Y0364059
X1152925Y0356185
X115Y0346
X113324Y0356185
Y037587
X1113555
Y0356185
X1152925Y037587
Y041524
X117261Y0395555
X1192295
X121198
X1204106Y0407366
X121198Y041524
X1192295
X1231665
Y0395555
Y0356185
X121198
X1192295
X117261
X1192295Y037587
X121198Y0434925
X1231665
Y045461
X1192295
X125135
X1274972Y0462484
X1285Y04545
X12895Y0455
X129072Y0434925
X1310406Y0430988
X13145Y0431
X1318Y0434
X1322Y0438
X13215Y04425
X1318Y04525
Y0466
X13095Y04645
X1306468Y0466421
X1313Y0461
X1349776Y045461
X13475Y0438
X1349776Y041524
X1330091
X1318Y0414
X13215Y04095
X1310406Y041524
X1316Y03955
X1330091Y0395555
X13435Y0398
X1349776Y0395555
X13585Y0393
X1369461Y0395555
X1376Y03875
X1369461Y037587
X1349776
X1330091
X1310406
X12985Y03985
X129072Y0403429
X1271035Y041524
X125135
X12575Y0428
X1261Y0425
X125135Y0395555
Y0356185
X1271035
X129072
X1369461
X1376Y0347
X1389146Y037587
Y0395555
X1401Y0384
X1369461Y041524
Y0434925
X1408831
Y041524
Y037587
X1428516
X1443Y0381
X1448201Y037587
X1467886
X14845Y03785
X1487571Y037587
Y0356185
X1507256
X1526941
Y037587
X1507256
Y0395555
X1526941
X1546626
Y037587
Y0434925
X1542689Y0450673
X1533Y0448
X15305Y0451
X1526941Y0434925
X1514342Y0440437
X1497Y04425
Y04475
Y04525
Y04575
X1491508Y0466421
X1497Y04375
Y04325
X1502Y043
Y0424
X1487571Y0395555
X1467886
X1448201
X1428516
X1467886Y041524
X1555Y04525
X15535Y0463
X1566311Y0434925
X1585996Y041524
Y0395555
Y037587
X1566311
Y0356185
Y0474295
Y049398
X1585996
Y0474295
Y0513665
X1566311
Y053335
X1546626
Y0513665
X1526941
X1507256
X1487571
Y053335
X1507256
X1526941
X1467886
X1448201Y0513665
X1428516
X1408831
Y0474295
X1435602Y048335
X1450957Y0468784
X1464342Y0480594
X14665Y04855
X147576Y0470358
X1491508Y0486106
X1503Y0485
X1516Y0469
X1546626Y0478232
X15535Y0475
X1369461Y0474295
Y0513665
X1349776
X1330091
Y053335
X1310406
X129072
Y0513665
X12835Y04935
X1279
X1286784Y0486106
X1271035
X1274Y0473
X12815Y0471
X13055Y04735
X1314Y0469
X1325Y04855
X13245Y04905
X13335Y0488
X134Y0491
X1349776Y053335
X125135
X125Y05205
X1231665Y0513665
X12245Y05115
X121198Y0513665
X1192295
X1194Y0528
X117261Y053335
X1159Y0523
X1121429Y0521539
Y0525476
Y053335
Y0513665
X1129303Y0490043
X113324Y0474295
X1152925
X117261
X1192295
X12035Y0476
X1109618Y0470358
X1097807
X109387Y0474295
X1101744Y0490043
X1082059
X1085996Y0497917
Y0513665
T02
X1535Y0402658
Y0422342
X1256Y04875
Y04975
X1246
X1236
X1226
X1216
Y04875
X1226
X1236
X1246
T03
X1175579Y0373508
X1185421
X1208579
X1218421
X1241079
X1250921
X1273579
X1283421
X1306315Y0363221
X1316158
X1326
X1348815
X1358657
X13685
X1391315
X1401157
X1391236Y03915
Y04015
Y04115
Y04215
Y04315
Y04415
Y04515
Y04615
X1420764
Y04515
Y04415
Y04315
Y04215
Y04115
Y04015
Y03915
X1411Y0363221
X1433315
X1443157
X1453
X1474815
X1484657
X14945
X158028Y0386472
Y0396315
Y0406157
Y0416
Y0444815
Y0454658
Y04645
X1473921Y0516992
X1464079
X1440185Y052728
X1430342
X14205
X1420764Y04815
Y04715
X1391236
Y04815
X1386579Y0516992
X1396421
X1363185Y052728
X1353343
X13435
X1317921Y0516992
X1308079
X1186921
X1177079
T04
X1121Y0357579
Y0374902
T05
X1074185Y0356185
X1585996
Y053335
X1074185
M30
