G04*
G04 #@! TF.GenerationSoftware,Altium Limited,CircuitStudio,1.5.2 (30)*
G04*
G04 Layer_Color=7318015*
%FSLAX25Y25*%
%MOIN*%
G70*
G01*
G75*
%ADD10R,0.03543X0.02362*%
%ADD11R,0.02756X0.05118*%
%ADD12R,0.02362X0.03543*%
%ADD13R,0.07874X0.15748*%
%ADD14R,0.03937X0.01969*%
%ADD15R,0.11811X0.07874*%
%ADD16R,0.03543X0.03150*%
%ADD17R,0.05512X0.08268*%
%ADD18R,0.07874X0.01378*%
%ADD19R,0.01378X0.07874*%
%ADD20R,0.08465X0.12795*%
%ADD21R,0.08465X0.03740*%
%ADD22R,0.14173X0.07087*%
%ADD23R,0.05984X0.02362*%
%ADD24R,0.12992X0.09843*%
G04:AMPARAMS|DCode=25|XSize=61.02mil|YSize=9.84mil|CornerRadius=2.46mil|HoleSize=0mil|Usage=FLASHONLY|Rotation=180.000|XOffset=0mil|YOffset=0mil|HoleType=Round|Shape=RoundedRectangle|*
%AMROUNDEDRECTD25*
21,1,0.06102,0.00492,0,0,180.0*
21,1,0.05610,0.00984,0,0,180.0*
1,1,0.00492,-0.02805,0.00246*
1,1,0.00492,0.02805,0.00246*
1,1,0.00492,0.02805,-0.00246*
1,1,0.00492,-0.02805,-0.00246*
%
%ADD25ROUNDEDRECTD25*%
%ADD26R,0.06102X0.00984*%
%ADD27R,0.05118X0.02756*%
%ADD28R,0.11811X0.03937*%
%ADD29R,0.24410X0.22835*%
%ADD30R,0.11811X0.06299*%
D10*
X1208500Y405953D02*
D03*
Y400047D02*
D03*
X1515000Y488953D02*
D03*
Y483047D02*
D03*
Y462953D02*
D03*
Y457047D02*
D03*
X1309000Y483453D02*
D03*
Y477547D02*
D03*
X1288500Y414953D02*
D03*
Y409047D02*
D03*
X1290000Y477547D02*
D03*
Y483453D02*
D03*
X1296000Y477547D02*
D03*
Y483453D02*
D03*
X1126000Y449047D02*
D03*
Y454953D02*
D03*
X1170000Y436453D02*
D03*
Y430547D02*
D03*
X1123500Y481047D02*
D03*
Y486953D02*
D03*
Y498953D02*
D03*
Y493047D02*
D03*
X1215500Y405953D02*
D03*
Y400047D02*
D03*
X1222500Y405953D02*
D03*
Y400047D02*
D03*
X1446000Y483047D02*
D03*
Y488953D02*
D03*
X1315500Y483453D02*
D03*
Y477547D02*
D03*
X1302500Y483453D02*
D03*
Y477547D02*
D03*
X1302000Y409047D02*
D03*
Y414953D02*
D03*
X1178500Y436453D02*
D03*
Y430547D02*
D03*
X1548500Y462953D02*
D03*
Y457047D02*
D03*
Y488953D02*
D03*
Y483047D02*
D03*
X1456500Y408453D02*
D03*
Y402547D02*
D03*
X1204500Y526953D02*
D03*
Y521047D02*
D03*
X1214500Y526953D02*
D03*
Y521047D02*
D03*
X1234500Y526953D02*
D03*
Y521047D02*
D03*
X1244500Y526953D02*
D03*
Y521047D02*
D03*
X1204500Y539453D02*
D03*
Y533547D02*
D03*
X1214500Y539453D02*
D03*
Y533547D02*
D03*
X1224500Y526953D02*
D03*
Y521047D02*
D03*
Y539453D02*
D03*
Y533547D02*
D03*
X1234500Y539453D02*
D03*
Y533547D02*
D03*
X1244500Y539453D02*
D03*
Y533547D02*
D03*
X1154000Y488953D02*
D03*
Y483047D02*
D03*
D11*
X1332240Y459000D02*
D03*
X1324760D02*
D03*
X1255260Y453500D02*
D03*
X1262740D02*
D03*
D12*
X1324547Y452000D02*
D03*
X1330453D02*
D03*
X1262953Y446500D02*
D03*
X1257047D02*
D03*
X1262953Y460500D02*
D03*
X1257047D02*
D03*
X1146547Y515000D02*
D03*
X1152453D02*
D03*
X1146547Y533000D02*
D03*
X1152453D02*
D03*
X1379953Y481500D02*
D03*
X1374047D02*
D03*
X1379953Y471500D02*
D03*
X1374047D02*
D03*
X1379953Y461500D02*
D03*
X1374047D02*
D03*
X1379953Y451500D02*
D03*
X1374047D02*
D03*
X1379953Y441500D02*
D03*
X1374047D02*
D03*
X1379953Y431500D02*
D03*
X1374047D02*
D03*
X1379953Y421500D02*
D03*
X1374047D02*
D03*
X1379953Y411500D02*
D03*
X1374047D02*
D03*
X1379953Y401500D02*
D03*
X1374047D02*
D03*
X1379953Y391500D02*
D03*
X1374047D02*
D03*
X1136547Y429500D02*
D03*
X1142453D02*
D03*
X1125047D02*
D03*
X1130953D02*
D03*
X1560547Y455500D02*
D03*
X1566453D02*
D03*
D13*
X1104500Y438189D02*
D03*
Y461811D02*
D03*
X1223000Y456811D02*
D03*
Y433189D02*
D03*
D14*
X1295000Y411319D02*
D03*
Y413681D02*
D03*
D15*
X1142653Y380807D02*
D03*
Y357185D02*
D03*
X1099347Y380807D02*
D03*
Y357185D02*
D03*
D16*
X1461437Y485500D02*
D03*
X1453563Y489240D02*
D03*
Y481760D02*
D03*
D17*
X1265642Y501284D02*
D03*
Y536717D02*
D03*
X1283358Y501284D02*
D03*
Y536717D02*
D03*
D18*
X1274284Y455827D02*
D03*
Y453858D02*
D03*
Y451890D02*
D03*
Y449921D02*
D03*
Y447953D02*
D03*
Y445984D02*
D03*
Y444016D02*
D03*
Y442047D02*
D03*
Y440079D02*
D03*
Y438110D02*
D03*
Y436142D02*
D03*
Y434173D02*
D03*
X1309717Y455827D02*
D03*
Y453858D02*
D03*
Y451890D02*
D03*
Y449921D02*
D03*
Y447953D02*
D03*
Y445984D02*
D03*
Y444016D02*
D03*
Y442047D02*
D03*
Y440079D02*
D03*
Y438110D02*
D03*
Y436142D02*
D03*
Y434173D02*
D03*
D19*
X1302827Y427283D02*
D03*
X1300858D02*
D03*
X1298890D02*
D03*
X1296921D02*
D03*
X1294953D02*
D03*
X1292984D02*
D03*
X1291016D02*
D03*
X1289047D02*
D03*
X1287079D02*
D03*
X1285110D02*
D03*
X1283142D02*
D03*
X1281173D02*
D03*
Y462716D02*
D03*
X1283142D02*
D03*
X1285110D02*
D03*
X1287079D02*
D03*
X1289047D02*
D03*
X1291016D02*
D03*
X1292984D02*
D03*
X1294953D02*
D03*
X1296921D02*
D03*
X1298890D02*
D03*
X1300858D02*
D03*
X1302827D02*
D03*
D20*
X1087583Y490000D02*
D03*
D21*
X1110417Y499055D02*
D03*
Y490000D02*
D03*
Y480945D02*
D03*
D22*
X1179500Y489716D02*
D03*
Y454284D02*
D03*
D23*
X1160866Y439500D02*
D03*
Y444500D02*
D03*
Y449500D02*
D03*
Y454500D02*
D03*
X1139134Y439500D02*
D03*
Y444500D02*
D03*
Y449500D02*
D03*
Y454500D02*
D03*
D24*
X1075000Y408386D02*
D03*
Y381614D02*
D03*
D25*
X1538693Y456161D02*
D03*
Y458720D02*
D03*
Y461279D02*
D03*
Y463839D02*
D03*
X1525307Y456161D02*
D03*
Y458720D02*
D03*
Y461279D02*
D03*
X1538693Y481661D02*
D03*
Y484221D02*
D03*
Y486779D02*
D03*
Y489339D02*
D03*
X1525307Y481661D02*
D03*
Y484221D02*
D03*
Y486779D02*
D03*
D26*
Y463839D02*
D03*
Y489339D02*
D03*
D27*
X1464500Y400760D02*
D03*
Y408240D02*
D03*
D28*
X1488153Y417500D02*
D03*
Y422500D02*
D03*
Y427500D02*
D03*
Y432500D02*
D03*
Y437500D02*
D03*
X1444847Y442500D02*
D03*
Y447500D02*
D03*
Y452500D02*
D03*
Y457500D02*
D03*
Y462500D02*
D03*
X1488153D02*
D03*
Y457500D02*
D03*
Y452500D02*
D03*
Y447500D02*
D03*
Y442500D02*
D03*
X1444847Y437500D02*
D03*
Y432500D02*
D03*
Y427500D02*
D03*
Y422500D02*
D03*
Y417500D02*
D03*
D29*
X1104232Y524000D02*
D03*
D30*
X1132500Y532996D02*
D03*
Y515004D02*
D03*
M02*
