G04*
G04 #@! TF.GenerationSoftware,Altium Limited,CircuitStudio,1.5.2 (30)*
G04*
G04 Layer_Physical_Order=2*
G04 Layer_Color=12500520*
%FSLAX25Y25*%
%MOIN*%
G70*
G01*
G75*
%ADD32C,0.02362*%
%ADD33C,0.03937*%
%ADD35C,0.01378*%
%ADD36C,0.00984*%
%ADD37C,0.03543*%
%ADD38C,0.06000*%
%ADD39C,0.05906*%
%ADD40C,0.07087*%
%ADD41C,0.01969*%
%ADD42C,0.19685*%
G36*
X1074185Y551914D02*
X1585996D01*
X1586039Y551922D01*
X1588421Y551766D01*
X1590804Y551292D01*
X1593104Y550511D01*
X1595284Y549437D01*
X1597304Y548087D01*
X1599130Y546485D01*
X1600732Y544658D01*
X1602082Y542638D01*
X1603157Y540459D01*
X1603938Y538158D01*
X1604412Y535775D01*
X1604538Y533846D01*
X1604560Y533350D01*
Y533350D01*
X1604560D01*
X1604560Y532858D01*
Y356185D01*
X1604568Y356142D01*
X1604412Y353761D01*
X1603938Y351378D01*
X1603157Y349077D01*
X1602082Y346898D01*
X1600732Y344877D01*
X1599130Y343051D01*
X1597304Y341449D01*
X1595284Y340099D01*
X1593104Y339024D01*
X1590804Y338243D01*
X1588421Y337769D01*
X1586491Y337643D01*
X1585996Y337622D01*
X1585996D01*
Y337622D01*
X1585503Y337621D01*
X1074185D01*
X1074142Y337613D01*
X1071760Y337769D01*
X1069378Y338243D01*
X1067077Y339024D01*
X1064898Y340099D01*
X1062877Y341449D01*
X1061051Y343051D01*
X1059449Y344877D01*
X1058099Y346898D01*
X1057024Y349077D01*
X1056243Y351378D01*
X1055769Y353761D01*
X1055643Y355690D01*
X1055622Y356185D01*
Y356185D01*
X1055622D01*
X1055622Y356678D01*
Y533350D01*
X1055613Y533393D01*
X1055769Y535775D01*
X1056243Y538158D01*
X1057024Y540459D01*
X1058099Y542638D01*
X1059449Y544658D01*
X1061051Y546485D01*
X1062877Y548087D01*
X1064898Y549437D01*
X1067077Y550511D01*
X1069378Y551292D01*
X1071760Y551766D01*
X1074142Y551922D01*
X1074185Y551914D01*
D02*
G37*
%LPC*%
G36*
X1211480Y397479D02*
X1211206Y397424D01*
X1210550Y396986D01*
X1210111Y396329D01*
X1210057Y396055D01*
X1211480D01*
Y397479D01*
D02*
G37*
G36*
X1212480D02*
Y396055D01*
X1213904D01*
X1213849Y396329D01*
X1213411Y396986D01*
X1212755Y397424D01*
X1212480Y397479D01*
D02*
G37*
G36*
X1192795D02*
Y396055D01*
X1194219D01*
X1194164Y396329D01*
X1193726Y396986D01*
X1193069Y397424D01*
X1192795Y397479D01*
D02*
G37*
G36*
X1173110D02*
Y396055D01*
X1174534D01*
X1174479Y396329D01*
X1174041Y396986D01*
X1173384Y397424D01*
X1173110Y397479D01*
D02*
G37*
G36*
X1191795D02*
X1191521Y397424D01*
X1190865Y396986D01*
X1190426Y396329D01*
X1190372Y396055D01*
X1191795D01*
Y397479D01*
D02*
G37*
G36*
X1251850D02*
Y396055D01*
X1253274D01*
X1253220Y396329D01*
X1252781Y396986D01*
X1252125Y397424D01*
X1251850Y397479D01*
D02*
G37*
G36*
X1349276D02*
X1349001Y397424D01*
X1348345Y396986D01*
X1347906Y396329D01*
X1347852Y396055D01*
X1349276D01*
Y397479D01*
D02*
G37*
G36*
X1250850D02*
X1250576Y397424D01*
X1249920Y396986D01*
X1249481Y396329D01*
X1249427Y396055D01*
X1250850D01*
Y397479D01*
D02*
G37*
G36*
X1231165D02*
X1230891Y397424D01*
X1230235Y396986D01*
X1229796Y396329D01*
X1229742Y396055D01*
X1231165D01*
Y397479D01*
D02*
G37*
G36*
X1232165D02*
Y396055D01*
X1233589D01*
X1233535Y396329D01*
X1233096Y396986D01*
X1232440Y397424D01*
X1232165Y397479D01*
D02*
G37*
G36*
X1172110D02*
X1171836Y397424D01*
X1171180Y396986D01*
X1170741Y396329D01*
X1170687Y396055D01*
X1172110D01*
Y397479D01*
D02*
G37*
G36*
X1587920Y395055D02*
X1586496D01*
Y393632D01*
X1586770Y393686D01*
X1587427Y394125D01*
X1587865Y394781D01*
X1587920Y395055D01*
D02*
G37*
G36*
X1093370Y397479D02*
X1093096Y397424D01*
X1092439Y396986D01*
X1092001Y396329D01*
X1091946Y396055D01*
X1093370D01*
Y397479D01*
D02*
G37*
G36*
X1548550Y395055D02*
X1547126D01*
Y393632D01*
X1547400Y393686D01*
X1548057Y394125D01*
X1548495Y394781D01*
X1548550Y395055D01*
D02*
G37*
G36*
X1528865D02*
X1527441D01*
Y393632D01*
X1527715Y393686D01*
X1528372Y394125D01*
X1528810Y394781D01*
X1528865Y395055D01*
D02*
G37*
G36*
X1546126D02*
X1544702D01*
X1544757Y394781D01*
X1545195Y394125D01*
X1545852Y393686D01*
X1546126Y393632D01*
Y395055D01*
D02*
G37*
G36*
X1132740Y397479D02*
X1132466Y397424D01*
X1131810Y396986D01*
X1131371Y396329D01*
X1131316Y396055D01*
X1132740D01*
Y397479D01*
D02*
G37*
G36*
X1133740D02*
Y396055D01*
X1135164D01*
X1135109Y396329D01*
X1134671Y396986D01*
X1134014Y397424D01*
X1133740Y397479D01*
D02*
G37*
G36*
X1114055D02*
Y396055D01*
X1115479D01*
X1115424Y396329D01*
X1114986Y396986D01*
X1114329Y397424D01*
X1114055Y397479D01*
D02*
G37*
G36*
X1094370D02*
Y396055D01*
X1095794D01*
X1095739Y396329D01*
X1095301Y396986D01*
X1094644Y397424D01*
X1094370Y397479D01*
D02*
G37*
G36*
X1113055D02*
X1112781Y397424D01*
X1112125Y396986D01*
X1111686Y396329D01*
X1111631Y396055D01*
X1113055D01*
Y397479D01*
D02*
G37*
G36*
X1350276D02*
Y396055D01*
X1351699D01*
X1351645Y396329D01*
X1351206Y396986D01*
X1350550Y397424D01*
X1350276Y397479D01*
D02*
G37*
G36*
X1547126D02*
Y396055D01*
X1548550D01*
X1548495Y396329D01*
X1548057Y396986D01*
X1547400Y397424D01*
X1547126Y397479D01*
D02*
G37*
G36*
X1586496D02*
Y396055D01*
X1587920D01*
X1587865Y396329D01*
X1587427Y396986D01*
X1586770Y397424D01*
X1586496Y397479D01*
D02*
G37*
G36*
X1546126D02*
X1545852Y397424D01*
X1545195Y396986D01*
X1544757Y396329D01*
X1544702Y396055D01*
X1546126D01*
Y397479D01*
D02*
G37*
G36*
X1526441D02*
X1526167Y397424D01*
X1525510Y396986D01*
X1525072Y396329D01*
X1525017Y396055D01*
X1526441D01*
Y397479D01*
D02*
G37*
G36*
X1527441D02*
Y396055D01*
X1528865D01*
X1528810Y396329D01*
X1528372Y396986D01*
X1527715Y397424D01*
X1527441Y397479D01*
D02*
G37*
G36*
X1292644Y402929D02*
X1291220D01*
Y401506D01*
X1291495Y401560D01*
X1292151Y401999D01*
X1292590Y402655D01*
X1292644Y402929D01*
D02*
G37*
G36*
X1534500Y406626D02*
X1533956Y406555D01*
X1532983Y406151D01*
X1532147Y405510D01*
X1531506Y404675D01*
X1531103Y403702D01*
X1531031Y403158D01*
X1534500D01*
Y406626D01*
D02*
G37*
G36*
X1290221Y402929D02*
X1288797D01*
X1288851Y402655D01*
X1289290Y401999D01*
X1289946Y401560D01*
X1290221Y401506D01*
Y402929D01*
D02*
G37*
G36*
X1534500Y402157D02*
X1531031D01*
X1531103Y401613D01*
X1531506Y400640D01*
X1532147Y399805D01*
X1532983Y399164D01*
X1533956Y398760D01*
X1534500Y398689D01*
Y402157D01*
D02*
G37*
G36*
X1538969D02*
X1535500D01*
Y398689D01*
X1536044Y398760D01*
X1537017Y399164D01*
X1537853Y399805D01*
X1538494Y400640D01*
X1538897Y401613D01*
X1538969Y402157D01*
D02*
G37*
G36*
X1507756Y397479D02*
Y396055D01*
X1509180D01*
X1509125Y396329D01*
X1508687Y396986D01*
X1508030Y397424D01*
X1507756Y397479D01*
D02*
G37*
G36*
X1447701D02*
X1447427Y397424D01*
X1446770Y396986D01*
X1446332Y396329D01*
X1446277Y396055D01*
X1447701D01*
Y397479D01*
D02*
G37*
G36*
X1448701D02*
Y396055D01*
X1450124D01*
X1450070Y396329D01*
X1449631Y396986D01*
X1448975Y397424D01*
X1448701Y397479D01*
D02*
G37*
G36*
X1388646D02*
X1388371Y397424D01*
X1387715Y396986D01*
X1387276Y396329D01*
X1387222Y396055D01*
X1388646D01*
Y397479D01*
D02*
G37*
G36*
X1368961D02*
X1368686Y397424D01*
X1368030Y396986D01*
X1367591Y396329D01*
X1367537Y396055D01*
X1368961D01*
Y397479D01*
D02*
G37*
G36*
X1369961D02*
Y396055D01*
X1371384D01*
X1371330Y396329D01*
X1370891Y396986D01*
X1370235Y397424D01*
X1369961Y397479D01*
D02*
G37*
G36*
X1488071D02*
Y396055D01*
X1489495D01*
X1489440Y396329D01*
X1489001Y396986D01*
X1488345Y397424D01*
X1488071Y397479D01*
D02*
G37*
G36*
X1506756D02*
X1506482Y397424D01*
X1505825Y396986D01*
X1505387Y396329D01*
X1505332Y396055D01*
X1506756D01*
Y397479D01*
D02*
G37*
G36*
X1487071D02*
X1486797Y397424D01*
X1486140Y396986D01*
X1485702Y396329D01*
X1485647Y396055D01*
X1487071D01*
Y397479D01*
D02*
G37*
G36*
X1467386D02*
X1467112Y397424D01*
X1466455Y396986D01*
X1466017Y396329D01*
X1465962Y396055D01*
X1467386D01*
Y397479D01*
D02*
G37*
G36*
X1468386D02*
Y396055D01*
X1469810D01*
X1469755Y396329D01*
X1469316Y396986D01*
X1468660Y397424D01*
X1468386Y397479D01*
D02*
G37*
G36*
X1526441Y395055D02*
X1525017D01*
X1525072Y394781D01*
X1525510Y394125D01*
X1526167Y393686D01*
X1526441Y393632D01*
Y395055D01*
D02*
G37*
G36*
X1095794D02*
X1094370D01*
Y393632D01*
X1094644Y393686D01*
X1095301Y394125D01*
X1095739Y394781D01*
X1095794Y395055D01*
D02*
G37*
G36*
X1113055D02*
X1111631D01*
X1111686Y394781D01*
X1112125Y394125D01*
X1112781Y393686D01*
X1113055Y393632D01*
Y395055D01*
D02*
G37*
G36*
X1093370D02*
X1091946D01*
X1092001Y394781D01*
X1092439Y394125D01*
X1093096Y393686D01*
X1093370Y393632D01*
Y395055D01*
D02*
G37*
G36*
X1144551Y389605D02*
X1144277Y389550D01*
X1143621Y389112D01*
X1143182Y388455D01*
X1143128Y388181D01*
X1144551D01*
Y389605D01*
D02*
G37*
G36*
X1145551D02*
Y388181D01*
X1146975D01*
X1146920Y388455D01*
X1146482Y389112D01*
X1145825Y389550D01*
X1145551Y389605D01*
D02*
G37*
G36*
X1172110Y395055D02*
X1170687D01*
X1170741Y394781D01*
X1171180Y394125D01*
X1171836Y393686D01*
X1172110Y393632D01*
Y395055D01*
D02*
G37*
G36*
X1174534D02*
X1173110D01*
Y393632D01*
X1173384Y393686D01*
X1174041Y394125D01*
X1174479Y394781D01*
X1174534Y395055D01*
D02*
G37*
G36*
X1135164D02*
X1133740D01*
Y393632D01*
X1134014Y393686D01*
X1134671Y394125D01*
X1135109Y394781D01*
X1135164Y395055D01*
D02*
G37*
G36*
X1115479D02*
X1114055D01*
Y393632D01*
X1114329Y393686D01*
X1114986Y394125D01*
X1115424Y394781D01*
X1115479Y395055D01*
D02*
G37*
G36*
X1132740D02*
X1131316D01*
X1131371Y394781D01*
X1131810Y394125D01*
X1132466Y393686D01*
X1132740Y393632D01*
Y395055D01*
D02*
G37*
G36*
X1389646Y397479D02*
Y395555D01*
X1389146D01*
Y395055D01*
X1387222D01*
X1387276Y394781D01*
X1387715Y394125D01*
X1387997Y393936D01*
X1388133Y393292D01*
X1387775Y392427D01*
X1387653Y391500D01*
X1387775Y390573D01*
X1388133Y389708D01*
X1388702Y388966D01*
X1389445Y388397D01*
X1390309Y388039D01*
X1391236Y387917D01*
X1392164Y388039D01*
X1393028Y388397D01*
X1393770Y388966D01*
X1394339Y389708D01*
X1394697Y390573D01*
X1394820Y391500D01*
X1394697Y392427D01*
X1394339Y393292D01*
X1393770Y394034D01*
X1393028Y394603D01*
X1392164Y394961D01*
X1391576Y395039D01*
X1391166Y395543D01*
X1391169Y395555D01*
X1391015Y396329D01*
X1390576Y396986D01*
X1389920Y397424D01*
X1389646Y397479D01*
D02*
G37*
G36*
X1586496Y377794D02*
Y376370D01*
X1587920D01*
X1587865Y376644D01*
X1587427Y377301D01*
X1586770Y377739D01*
X1586496Y377794D01*
D02*
G37*
G36*
X1584796Y385972D02*
X1580779D01*
Y381956D01*
X1581466Y382046D01*
X1582571Y382504D01*
X1583520Y383232D01*
X1584248Y384181D01*
X1584706Y385286D01*
X1584796Y385972D01*
D02*
G37*
G36*
X1585496Y377794D02*
X1585222Y377739D01*
X1584566Y377301D01*
X1584127Y376644D01*
X1584072Y376370D01*
X1585496D01*
Y377794D01*
D02*
G37*
G36*
X1565811D02*
X1565537Y377739D01*
X1564880Y377301D01*
X1564442Y376644D01*
X1564387Y376370D01*
X1565811D01*
Y377794D01*
D02*
G37*
G36*
X1566811D02*
Y376370D01*
X1568235D01*
X1568180Y376644D01*
X1567742Y377301D01*
X1567085Y377739D01*
X1566811Y377794D01*
D02*
G37*
G36*
X1579780Y390989D02*
X1579093Y390899D01*
X1577988Y390441D01*
X1577039Y389713D01*
X1576311Y388764D01*
X1575853Y387659D01*
X1575763Y386972D01*
X1579780D01*
Y390989D01*
D02*
G37*
G36*
X1580779Y390989D02*
Y386972D01*
X1584796D01*
X1584706Y387659D01*
X1584248Y388764D01*
X1583520Y389713D01*
X1582571Y390441D01*
X1581466Y390899D01*
X1580779Y390989D01*
D02*
G37*
G36*
X1146975Y387181D02*
X1145551D01*
Y385757D01*
X1145825Y385812D01*
X1146482Y386250D01*
X1146920Y386907D01*
X1146975Y387181D01*
D02*
G37*
G36*
X1579780Y385972D02*
X1575763D01*
X1575853Y385286D01*
X1576311Y384181D01*
X1577039Y383232D01*
X1577988Y382504D01*
X1579093Y382046D01*
X1579780Y381956D01*
Y385972D01*
D02*
G37*
G36*
X1144551Y387181D02*
X1143128D01*
X1143182Y386907D01*
X1143621Y386250D01*
X1144277Y385812D01*
X1144551Y385757D01*
Y387181D01*
D02*
G37*
G36*
X1191795Y395055D02*
X1190372D01*
X1190426Y394781D01*
X1190865Y394125D01*
X1191521Y393686D01*
X1191795Y393632D01*
Y395055D01*
D02*
G37*
G36*
X1450124D02*
X1448701D01*
Y393632D01*
X1448975Y393686D01*
X1449631Y394125D01*
X1450070Y394781D01*
X1450124Y395055D01*
D02*
G37*
G36*
X1467386D02*
X1465962D01*
X1466017Y394781D01*
X1466455Y394125D01*
X1467112Y393686D01*
X1467386Y393632D01*
Y395055D01*
D02*
G37*
G36*
X1447701D02*
X1446277D01*
X1446332Y394781D01*
X1446770Y394125D01*
X1447427Y393686D01*
X1447701Y393632D01*
Y395055D01*
D02*
G37*
G36*
X1371384D02*
X1369961D01*
Y393632D01*
X1370235Y393686D01*
X1370891Y394125D01*
X1371330Y394781D01*
X1371384Y395055D01*
D02*
G37*
G36*
X1430439D02*
X1429016D01*
Y393632D01*
X1429290Y393686D01*
X1429946Y394125D01*
X1430385Y394781D01*
X1430439Y395055D01*
D02*
G37*
G36*
X1506756D02*
X1505332D01*
X1505387Y394781D01*
X1505825Y394125D01*
X1506482Y393686D01*
X1506756Y393632D01*
Y395055D01*
D02*
G37*
G36*
X1509180D02*
X1507756D01*
Y393632D01*
X1508030Y393686D01*
X1508687Y394125D01*
X1509125Y394781D01*
X1509180Y395055D01*
D02*
G37*
G36*
X1489495D02*
X1488071D01*
Y393632D01*
X1488345Y393686D01*
X1489001Y394125D01*
X1489440Y394781D01*
X1489495Y395055D01*
D02*
G37*
G36*
X1469810D02*
X1468386D01*
Y393632D01*
X1468660Y393686D01*
X1469316Y394125D01*
X1469755Y394781D01*
X1469810Y395055D01*
D02*
G37*
G36*
X1487071D02*
X1485647D01*
X1485702Y394781D01*
X1486140Y394125D01*
X1486797Y393686D01*
X1487071Y393632D01*
Y395055D01*
D02*
G37*
G36*
X1368961D02*
X1367537D01*
X1367591Y394781D01*
X1368030Y394125D01*
X1368686Y393686D01*
X1368961Y393632D01*
Y395055D01*
D02*
G37*
G36*
X1231165D02*
X1229742D01*
X1229796Y394781D01*
X1230235Y394125D01*
X1230891Y393686D01*
X1231165Y393632D01*
Y395055D01*
D02*
G37*
G36*
X1233589D02*
X1232165D01*
Y393632D01*
X1232440Y393686D01*
X1233096Y394125D01*
X1233535Y394781D01*
X1233589Y395055D01*
D02*
G37*
G36*
X1213904D02*
X1212480D01*
Y393632D01*
X1212755Y393686D01*
X1213411Y394125D01*
X1213849Y394781D01*
X1213904Y395055D01*
D02*
G37*
G36*
X1194219D02*
X1192795D01*
Y393632D01*
X1193069Y393686D01*
X1193726Y394125D01*
X1194164Y394781D01*
X1194219Y395055D01*
D02*
G37*
G36*
X1211480D02*
X1210057D01*
X1210111Y394781D01*
X1210550Y394125D01*
X1211206Y393686D01*
X1211480Y393632D01*
Y395055D01*
D02*
G37*
G36*
X1349276D02*
X1347852D01*
X1347906Y394781D01*
X1348345Y394125D01*
X1349001Y393686D01*
X1349276Y393632D01*
Y395055D01*
D02*
G37*
G36*
X1351699D02*
X1350276D01*
Y393632D01*
X1350550Y393686D01*
X1351206Y394125D01*
X1351645Y394781D01*
X1351699Y395055D01*
D02*
G37*
G36*
X1329591D02*
X1328167D01*
X1328221Y394781D01*
X1328660Y394125D01*
X1329316Y393686D01*
X1329591Y393632D01*
Y395055D01*
D02*
G37*
G36*
X1250850D02*
X1249427D01*
X1249481Y394781D01*
X1249920Y394125D01*
X1250576Y393686D01*
X1250850Y393632D01*
Y395055D01*
D02*
G37*
G36*
X1253274D02*
X1251850D01*
Y393632D01*
X1252125Y393686D01*
X1252781Y394125D01*
X1253220Y394781D01*
X1253274Y395055D01*
D02*
G37*
G36*
X1535500Y406626D02*
Y403158D01*
X1538969D01*
X1538897Y403702D01*
X1538494Y404675D01*
X1537853Y405510D01*
X1537017Y406151D01*
X1536044Y406555D01*
X1535500Y406626D01*
D02*
G37*
G36*
X1368961Y417164D02*
X1368686Y417109D01*
X1368030Y416671D01*
X1367591Y416014D01*
X1367537Y415740D01*
X1368961D01*
Y417164D01*
D02*
G37*
G36*
X1369961D02*
Y415740D01*
X1371384D01*
X1371330Y416014D01*
X1370891Y416671D01*
X1370235Y417109D01*
X1369961Y417164D01*
D02*
G37*
G36*
X1350276D02*
Y415740D01*
X1351699D01*
X1351645Y416014D01*
X1351206Y416671D01*
X1350550Y417109D01*
X1350276Y417164D01*
D02*
G37*
G36*
X1330591D02*
Y415740D01*
X1332014D01*
X1331960Y416014D01*
X1331521Y416671D01*
X1330865Y417109D01*
X1330591Y417164D01*
D02*
G37*
G36*
X1349276D02*
X1349001Y417109D01*
X1348345Y416671D01*
X1347906Y416014D01*
X1347852Y415740D01*
X1349276D01*
Y417164D01*
D02*
G37*
G36*
X1468386D02*
Y415740D01*
X1469810D01*
X1469755Y416014D01*
X1469316Y416671D01*
X1468660Y417109D01*
X1468386Y417164D01*
D02*
G37*
G36*
X1586496D02*
Y415740D01*
X1587920D01*
X1587865Y416014D01*
X1587427Y416671D01*
X1586770Y417109D01*
X1586496Y417164D01*
D02*
G37*
G36*
X1467386D02*
X1467112Y417109D01*
X1466455Y416671D01*
X1466017Y416014D01*
X1465962Y415740D01*
X1467386D01*
Y417164D01*
D02*
G37*
G36*
X1408331D02*
X1408057Y417109D01*
X1407400Y416671D01*
X1406962Y416014D01*
X1406907Y415740D01*
X1408331D01*
Y417164D01*
D02*
G37*
G36*
X1409331D02*
Y415740D01*
X1410754D01*
X1410700Y416014D01*
X1410261Y416671D01*
X1409605Y417109D01*
X1409331Y417164D01*
D02*
G37*
G36*
X1329591D02*
X1329316Y417109D01*
X1328660Y416671D01*
X1328221Y416014D01*
X1328167Y415740D01*
X1329591D01*
Y417164D01*
D02*
G37*
G36*
X1232165D02*
Y415740D01*
X1233589D01*
X1233535Y416014D01*
X1233096Y416671D01*
X1232440Y417109D01*
X1232165Y417164D01*
D02*
G37*
G36*
X1250850D02*
X1250576Y417109D01*
X1249920Y416671D01*
X1249481Y416014D01*
X1249427Y415740D01*
X1250850D01*
Y417164D01*
D02*
G37*
G36*
X1231165D02*
X1230891Y417109D01*
X1230235Y416671D01*
X1229796Y416014D01*
X1229742Y415740D01*
X1231165D01*
Y417164D01*
D02*
G37*
G36*
X1211480D02*
X1211206Y417109D01*
X1210550Y416671D01*
X1210111Y416014D01*
X1210057Y415740D01*
X1211480D01*
Y417164D01*
D02*
G37*
G36*
X1212480D02*
Y415740D01*
X1213904D01*
X1213849Y416014D01*
X1213411Y416671D01*
X1212755Y417109D01*
X1212480Y417164D01*
D02*
G37*
G36*
X1309906D02*
X1309631Y417109D01*
X1308975Y416671D01*
X1308536Y416014D01*
X1308482Y415740D01*
X1309906D01*
Y417164D01*
D02*
G37*
G36*
X1310905D02*
Y415740D01*
X1312329D01*
X1312275Y416014D01*
X1311836Y416671D01*
X1311180Y417109D01*
X1310905Y417164D01*
D02*
G37*
G36*
X1271535D02*
Y415740D01*
X1272959D01*
X1272905Y416014D01*
X1272466Y416671D01*
X1271810Y417109D01*
X1271535Y417164D01*
D02*
G37*
G36*
X1251850D02*
Y415740D01*
X1253274D01*
X1253220Y416014D01*
X1252781Y416671D01*
X1252125Y417109D01*
X1251850Y417164D01*
D02*
G37*
G36*
X1270535D02*
X1270261Y417109D01*
X1269605Y416671D01*
X1269166Y416014D01*
X1269112Y415740D01*
X1270535D01*
Y417164D01*
D02*
G37*
G36*
X1535000Y425974D02*
X1534060Y425850D01*
X1533185Y425487D01*
X1532432Y424910D01*
X1531855Y424158D01*
X1531493Y423282D01*
X1531369Y422342D01*
X1531493Y421403D01*
X1531855Y420527D01*
X1532432Y419775D01*
X1533185Y419198D01*
X1534060Y418835D01*
X1535000Y418712D01*
X1535940Y418835D01*
X1536815Y419198D01*
X1537568Y419775D01*
X1538145Y420527D01*
X1538507Y421403D01*
X1538631Y422342D01*
X1538507Y423282D01*
X1538145Y424158D01*
X1537568Y424910D01*
X1536815Y425487D01*
X1535940Y425850D01*
X1535000Y425974D01*
D02*
G37*
G36*
X1368961Y434425D02*
X1367537D01*
X1367591Y434151D01*
X1368030Y433495D01*
X1368686Y433056D01*
X1368961Y433002D01*
Y434425D01*
D02*
G37*
G36*
X1371384D02*
X1369961D01*
Y433002D01*
X1370235Y433056D01*
X1370891Y433495D01*
X1371330Y434151D01*
X1371384Y434425D01*
D02*
G37*
G36*
X1292644D02*
X1291220D01*
Y433002D01*
X1291495Y433056D01*
X1292151Y433495D01*
X1292590Y434151D01*
X1292644Y434425D01*
D02*
G37*
G36*
X1233589D02*
X1232165D01*
Y433002D01*
X1232440Y433056D01*
X1233096Y433495D01*
X1233535Y434151D01*
X1233589Y434425D01*
D02*
G37*
G36*
X1290221D02*
X1288797D01*
X1288851Y434151D01*
X1289290Y433495D01*
X1289946Y433056D01*
X1290221Y433002D01*
Y434425D01*
D02*
G37*
G36*
X1528865D02*
X1527441D01*
Y433002D01*
X1527715Y433056D01*
X1528372Y433495D01*
X1528810Y434151D01*
X1528865Y434425D01*
D02*
G37*
G36*
X1546126D02*
X1544702D01*
X1544757Y434151D01*
X1545195Y433495D01*
X1545852Y433056D01*
X1546126Y433002D01*
Y434425D01*
D02*
G37*
G36*
X1526441D02*
X1525017D01*
X1525072Y434151D01*
X1525510Y433495D01*
X1526167Y433056D01*
X1526441Y433002D01*
Y434425D01*
D02*
G37*
G36*
X1408331D02*
X1406907D01*
X1406962Y434151D01*
X1407400Y433495D01*
X1408057Y433056D01*
X1408331Y433002D01*
Y434425D01*
D02*
G37*
G36*
X1410754D02*
X1409331D01*
Y433002D01*
X1409605Y433056D01*
X1410261Y433495D01*
X1410700Y434151D01*
X1410754Y434425D01*
D02*
G37*
G36*
X1231165D02*
X1229742D01*
X1229796Y434151D01*
X1230235Y433495D01*
X1230891Y433056D01*
X1231165Y433002D01*
Y434425D01*
D02*
G37*
G36*
X1309906Y432912D02*
X1309631Y432857D01*
X1308975Y432419D01*
X1308536Y431762D01*
X1308482Y431488D01*
X1309906D01*
Y432912D01*
D02*
G37*
G36*
X1073685Y434425D02*
X1072261D01*
X1072316Y434151D01*
X1072754Y433495D01*
X1073411Y433056D01*
X1073685Y433002D01*
Y434425D01*
D02*
G37*
G36*
X1497000Y434115D02*
X1496382Y433992D01*
X1496115Y433814D01*
X1461764D01*
X1461261Y433714D01*
X1460835Y433429D01*
X1422169Y394763D01*
X1421691Y394961D01*
X1420764Y395083D01*
X1419836Y394961D01*
X1418972Y394603D01*
X1418230Y394034D01*
X1417661Y393292D01*
X1417303Y392427D01*
X1417180Y391500D01*
X1417303Y390573D01*
X1417661Y389708D01*
X1418230Y388966D01*
X1418972Y388397D01*
X1419836Y388039D01*
X1420764Y387917D01*
X1421691Y388039D01*
X1422556Y388397D01*
X1423298Y388966D01*
X1423867Y389708D01*
X1424225Y390573D01*
X1424347Y391500D01*
X1424225Y392427D01*
X1424027Y392905D01*
X1426148Y395026D01*
X1426627Y394881D01*
X1426647Y394781D01*
X1427085Y394125D01*
X1427742Y393686D01*
X1428016Y393632D01*
Y395555D01*
X1428516D01*
Y396055D01*
X1430439D01*
X1430385Y396329D01*
X1429946Y396986D01*
X1429290Y397424D01*
X1429190Y397444D01*
X1429045Y397923D01*
X1462308Y431186D01*
X1496115D01*
X1496382Y431008D01*
X1497000Y430885D01*
X1497618Y431008D01*
X1498142Y431358D01*
X1498492Y431882D01*
X1498615Y432500D01*
X1498492Y433118D01*
X1498142Y433642D01*
X1497618Y433992D01*
X1497000Y434115D01*
D02*
G37*
G36*
X1502000Y431615D02*
X1501382Y431492D01*
X1500858Y431142D01*
X1500508Y430618D01*
X1500385Y430000D01*
X1500508Y429382D01*
X1500858Y428858D01*
X1500887Y428839D01*
Y425161D01*
X1500858Y425142D01*
X1500508Y424618D01*
X1500385Y424000D01*
X1500508Y423382D01*
X1500858Y422858D01*
X1501382Y422508D01*
X1502000Y422385D01*
X1502618Y422508D01*
X1503142Y422858D01*
X1503492Y423382D01*
X1503615Y424000D01*
X1503492Y424618D01*
X1503142Y425142D01*
X1503113Y425161D01*
Y428839D01*
X1503142Y428858D01*
X1503492Y429382D01*
X1503615Y430000D01*
X1503492Y430618D01*
X1503142Y431142D01*
X1502618Y431492D01*
X1502000Y431615D01*
D02*
G37*
G36*
X1391236Y435083D02*
X1390309Y434961D01*
X1389445Y434603D01*
X1388702Y434034D01*
X1388133Y433292D01*
X1387775Y432428D01*
X1387653Y431500D01*
X1387775Y430573D01*
X1388133Y429708D01*
X1388702Y428966D01*
X1389445Y428397D01*
X1390309Y428039D01*
X1391236Y427917D01*
X1392164Y428039D01*
X1393028Y428397D01*
X1393770Y428966D01*
X1394339Y429708D01*
X1394697Y430573D01*
X1394820Y431500D01*
X1394697Y432428D01*
X1394339Y433292D01*
X1393770Y434034D01*
X1393028Y434603D01*
X1392164Y434961D01*
X1391236Y435083D01*
D02*
G37*
G36*
X1211480Y434425D02*
X1210057D01*
X1210111Y434151D01*
X1210550Y433495D01*
X1211206Y433056D01*
X1211480Y433002D01*
Y434425D01*
D02*
G37*
G36*
X1213904D02*
X1212480D01*
Y433002D01*
X1212755Y433056D01*
X1213411Y433495D01*
X1213849Y434151D01*
X1213904Y434425D01*
D02*
G37*
G36*
X1127290D02*
X1125866D01*
Y433002D01*
X1126140Y433056D01*
X1126797Y433495D01*
X1127235Y434151D01*
X1127290Y434425D01*
D02*
G37*
G36*
X1076109D02*
X1074685D01*
Y433002D01*
X1074959Y433056D01*
X1075616Y433495D01*
X1076054Y434151D01*
X1076109Y434425D01*
D02*
G37*
G36*
X1124866D02*
X1123442D01*
X1123497Y434151D01*
X1123936Y433495D01*
X1124592Y433056D01*
X1124866Y433002D01*
Y434425D01*
D02*
G37*
G36*
X1192795Y417164D02*
Y415740D01*
X1194219D01*
X1194164Y416014D01*
X1193726Y416671D01*
X1193069Y417109D01*
X1192795Y417164D01*
D02*
G37*
G36*
X1580280Y420179D02*
X1579198Y420037D01*
X1578190Y419619D01*
X1577324Y418955D01*
X1576660Y418089D01*
X1576243Y417082D01*
X1576101Y416000D01*
X1576243Y414918D01*
X1576660Y413910D01*
X1577324Y413045D01*
X1578190Y412381D01*
X1579198Y411963D01*
X1580280Y411821D01*
X1581361Y411963D01*
X1582369Y412381D01*
X1583235Y413045D01*
X1583899Y413910D01*
X1583925Y413974D01*
X1584423Y414023D01*
X1584566Y413810D01*
X1585222Y413371D01*
X1585496Y413316D01*
Y415240D01*
Y417164D01*
X1585222Y417109D01*
X1584850Y416860D01*
X1584316Y417082D01*
X1583899Y418089D01*
X1583235Y418955D01*
X1582369Y419619D01*
X1581361Y420037D01*
X1580280Y420179D01*
D02*
G37*
G36*
X1587920Y414740D02*
X1586496D01*
Y413316D01*
X1586770Y413371D01*
X1587427Y413810D01*
X1587865Y414466D01*
X1587920Y414740D01*
D02*
G37*
G36*
X1469810D02*
X1468386D01*
Y413316D01*
X1468660Y413371D01*
X1469316Y413810D01*
X1469755Y414466D01*
X1469810Y414740D01*
D02*
G37*
G36*
X1410754D02*
X1409331D01*
Y413316D01*
X1409605Y413371D01*
X1410261Y413810D01*
X1410700Y414466D01*
X1410754Y414740D01*
D02*
G37*
G36*
X1467386D02*
X1465962D01*
X1466017Y414466D01*
X1466455Y413810D01*
X1467112Y413371D01*
X1467386Y413316D01*
Y414740D01*
D02*
G37*
G36*
X1115479D02*
X1114055D01*
Y413316D01*
X1114329Y413371D01*
X1114986Y413810D01*
X1115424Y414466D01*
X1115479Y414740D01*
D02*
G37*
G36*
X1152425D02*
X1151001D01*
X1151056Y414466D01*
X1151495Y413810D01*
X1152151Y413371D01*
X1152425Y413316D01*
Y414740D01*
D02*
G37*
G36*
X1113055D02*
X1111631D01*
X1111686Y414466D01*
X1112125Y413810D01*
X1112781Y413371D01*
X1113055Y413316D01*
Y414740D01*
D02*
G37*
G36*
X1093370D02*
X1091946D01*
X1092001Y414466D01*
X1092439Y413810D01*
X1093096Y413371D01*
X1093370Y413316D01*
Y414740D01*
D02*
G37*
G36*
X1095794D02*
X1094370D01*
Y413316D01*
X1094644Y413371D01*
X1095301Y413810D01*
X1095739Y414466D01*
X1095794Y414740D01*
D02*
G37*
G36*
X1408331D02*
X1406907D01*
X1406962Y414466D01*
X1407400Y413810D01*
X1408057Y413371D01*
X1408331Y413316D01*
Y414740D01*
D02*
G37*
G36*
X1206030Y406866D02*
X1204606D01*
Y405442D01*
X1204881Y405497D01*
X1205537Y405936D01*
X1205975Y406592D01*
X1206030Y406866D01*
D02*
G37*
G36*
X1203606Y409290D02*
X1203332Y409235D01*
X1202676Y408797D01*
X1202237Y408140D01*
X1202183Y407866D01*
X1203606D01*
Y409290D01*
D02*
G37*
G36*
Y406866D02*
X1202183D01*
X1202237Y406592D01*
X1202676Y405936D01*
X1203332Y405497D01*
X1203606Y405442D01*
Y406866D01*
D02*
G37*
G36*
X1290221Y405353D02*
X1289946Y405298D01*
X1289290Y404860D01*
X1288851Y404203D01*
X1288797Y403929D01*
X1290221D01*
Y405353D01*
D02*
G37*
G36*
X1291220D02*
Y403929D01*
X1292644D01*
X1292590Y404203D01*
X1292151Y404860D01*
X1291495Y405298D01*
X1291220Y405353D01*
D02*
G37*
G36*
X1368961Y414740D02*
X1367537D01*
X1367591Y414466D01*
X1368030Y413810D01*
X1368686Y413371D01*
X1368961Y413316D01*
Y414740D01*
D02*
G37*
G36*
X1371384D02*
X1369961D01*
Y413316D01*
X1370235Y413371D01*
X1370891Y413810D01*
X1371330Y414466D01*
X1371384Y414740D01*
D02*
G37*
G36*
X1351699D02*
X1350276D01*
Y413316D01*
X1350550Y413371D01*
X1351206Y413810D01*
X1351645Y414466D01*
X1351699Y414740D01*
D02*
G37*
G36*
X1204606Y409290D02*
Y407866D01*
X1206030D01*
X1205975Y408140D01*
X1205537Y408797D01*
X1204881Y409235D01*
X1204606Y409290D01*
D02*
G37*
G36*
X1349276Y414740D02*
X1347852D01*
X1347906Y414466D01*
X1348345Y413810D01*
X1349001Y413371D01*
X1349276Y413316D01*
Y414740D01*
D02*
G37*
G36*
X1154849D02*
X1153425D01*
Y413316D01*
X1153699Y413371D01*
X1154356Y413810D01*
X1154794Y414466D01*
X1154849Y414740D01*
D02*
G37*
G36*
X1093370Y417164D02*
X1093096Y417109D01*
X1092439Y416671D01*
X1092001Y416014D01*
X1091946Y415740D01*
X1093370D01*
Y417164D01*
D02*
G37*
G36*
X1094370D02*
Y415740D01*
X1095794D01*
X1095739Y416014D01*
X1095301Y416671D01*
X1094644Y417109D01*
X1094370Y417164D01*
D02*
G37*
G36*
X1332014Y414740D02*
X1330591D01*
Y413316D01*
X1330865Y413371D01*
X1331521Y413810D01*
X1331960Y414466D01*
X1332014Y414740D01*
D02*
G37*
G36*
X1312329D02*
X1310905D01*
Y413316D01*
X1311180Y413371D01*
X1311836Y413810D01*
X1312275Y414466D01*
X1312329Y414740D01*
D02*
G37*
G36*
X1329591D02*
X1328167D01*
X1328221Y414466D01*
X1328660Y413810D01*
X1329316Y413371D01*
X1329591Y413316D01*
Y414740D01*
D02*
G37*
G36*
X1153425Y417164D02*
Y415740D01*
X1154849D01*
X1154794Y416014D01*
X1154356Y416671D01*
X1153699Y417109D01*
X1153425Y417164D01*
D02*
G37*
G36*
X1191795D02*
X1191521Y417109D01*
X1190865Y416671D01*
X1190426Y416014D01*
X1190372Y415740D01*
X1191795D01*
Y417164D01*
D02*
G37*
G36*
X1152425D02*
X1152151Y417109D01*
X1151495Y416671D01*
X1151056Y416014D01*
X1151001Y415740D01*
X1152425D01*
Y417164D01*
D02*
G37*
G36*
X1113055D02*
X1112781Y417109D01*
X1112125Y416671D01*
X1111686Y416014D01*
X1111631Y415740D01*
X1113055D01*
Y417164D01*
D02*
G37*
G36*
X1114055D02*
Y415740D01*
X1115479D01*
X1115424Y416014D01*
X1114986Y416671D01*
X1114329Y417109D01*
X1114055Y417164D01*
D02*
G37*
G36*
X1309906Y414740D02*
X1308482D01*
X1308536Y414466D01*
X1308975Y413810D01*
X1309631Y413371D01*
X1309906Y413316D01*
Y414740D01*
D02*
G37*
G36*
X1213904D02*
X1212480D01*
Y413316D01*
X1212755Y413371D01*
X1213411Y413810D01*
X1213849Y414466D01*
X1213904Y414740D01*
D02*
G37*
G36*
X1231165D02*
X1229742D01*
X1229796Y414466D01*
X1230235Y413810D01*
X1230891Y413371D01*
X1231165Y413316D01*
Y414740D01*
D02*
G37*
G36*
X1211480D02*
X1210057D01*
X1210111Y414466D01*
X1210550Y413810D01*
X1211206Y413371D01*
X1211480Y413316D01*
Y414740D01*
D02*
G37*
G36*
X1191795D02*
X1190372D01*
X1190426Y414466D01*
X1190865Y413810D01*
X1191521Y413371D01*
X1191795Y413316D01*
Y414740D01*
D02*
G37*
G36*
X1194219D02*
X1192795D01*
Y413316D01*
X1193069Y413371D01*
X1193726Y413810D01*
X1194164Y414466D01*
X1194219Y414740D01*
D02*
G37*
G36*
X1270535D02*
X1269112D01*
X1269166Y414466D01*
X1269605Y413810D01*
X1270261Y413371D01*
X1270535Y413316D01*
Y414740D01*
D02*
G37*
G36*
X1272959D02*
X1271535D01*
Y413316D01*
X1271810Y413371D01*
X1272466Y413810D01*
X1272905Y414466D01*
X1272959Y414740D01*
D02*
G37*
G36*
X1253274D02*
X1251850D01*
Y413316D01*
X1252125Y413371D01*
X1252781Y413810D01*
X1253220Y414466D01*
X1253274Y414740D01*
D02*
G37*
G36*
X1233589D02*
X1232165D01*
Y413316D01*
X1232440Y413371D01*
X1233096Y413810D01*
X1233535Y414466D01*
X1233589Y414740D01*
D02*
G37*
G36*
X1250850D02*
X1249427D01*
X1249481Y414466D01*
X1249920Y413810D01*
X1250576Y413371D01*
X1250850Y413316D01*
Y414740D01*
D02*
G37*
G36*
X1487071Y358109D02*
X1486797Y358054D01*
X1486140Y357616D01*
X1485702Y356959D01*
X1485647Y356685D01*
X1487071D01*
Y358109D01*
D02*
G37*
G36*
X1488071D02*
Y356685D01*
X1489495D01*
X1489440Y356959D01*
X1489001Y357616D01*
X1488345Y358054D01*
X1488071Y358109D01*
D02*
G37*
G36*
X1369961D02*
Y356685D01*
X1371384D01*
X1371330Y356959D01*
X1370891Y357616D01*
X1370235Y358054D01*
X1369961Y358109D01*
D02*
G37*
G36*
X1291220D02*
Y356685D01*
X1292644D01*
X1292590Y356959D01*
X1292151Y357616D01*
X1291495Y358054D01*
X1291220Y358109D01*
D02*
G37*
G36*
X1368961D02*
X1368686Y358054D01*
X1368030Y357616D01*
X1367591Y356959D01*
X1367537Y356685D01*
X1368961D01*
Y358109D01*
D02*
G37*
G36*
X1527441D02*
Y356685D01*
X1528865D01*
X1528810Y356959D01*
X1528372Y357616D01*
X1527715Y358054D01*
X1527441Y358109D01*
D02*
G37*
G36*
X1565811D02*
X1565537Y358054D01*
X1564880Y357616D01*
X1564442Y356959D01*
X1564387Y356685D01*
X1565811D01*
Y358109D01*
D02*
G37*
G36*
X1526441D02*
X1526167Y358054D01*
X1525510Y357616D01*
X1525072Y356959D01*
X1525017Y356685D01*
X1526441D01*
Y358109D01*
D02*
G37*
G36*
X1506756D02*
X1506482Y358054D01*
X1505825Y357616D01*
X1505387Y356959D01*
X1505332Y356685D01*
X1506756D01*
Y358109D01*
D02*
G37*
G36*
X1507756D02*
Y356685D01*
X1509180D01*
X1509125Y356959D01*
X1508687Y357616D01*
X1508030Y358054D01*
X1507756Y358109D01*
D02*
G37*
G36*
X1290221D02*
X1289946Y358054D01*
X1289290Y357616D01*
X1288851Y356959D01*
X1288797Y356685D01*
X1290221D01*
Y358109D01*
D02*
G37*
G36*
X1212480D02*
Y356685D01*
X1213904D01*
X1213849Y356959D01*
X1213411Y357616D01*
X1212755Y358054D01*
X1212480Y358109D01*
D02*
G37*
G36*
X1231165D02*
X1230891Y358054D01*
X1230235Y357616D01*
X1229796Y356959D01*
X1229742Y356685D01*
X1231165D01*
Y358109D01*
D02*
G37*
G36*
X1211480D02*
X1211206Y358054D01*
X1210550Y357616D01*
X1210111Y356959D01*
X1210057Y356685D01*
X1211480D01*
Y358109D01*
D02*
G37*
G36*
X1191795D02*
X1191521Y358054D01*
X1190865Y357616D01*
X1190426Y356959D01*
X1190372Y356685D01*
X1191795D01*
Y358109D01*
D02*
G37*
G36*
X1192795D02*
Y356685D01*
X1194219D01*
X1194164Y356959D01*
X1193726Y357616D01*
X1193069Y358054D01*
X1192795Y358109D01*
D02*
G37*
G36*
X1270535D02*
X1270261Y358054D01*
X1269605Y357616D01*
X1269166Y356959D01*
X1269112Y356685D01*
X1270535D01*
Y358109D01*
D02*
G37*
G36*
X1271535D02*
Y356685D01*
X1272959D01*
X1272905Y356959D01*
X1272466Y357616D01*
X1271810Y358054D01*
X1271535Y358109D01*
D02*
G37*
G36*
X1251850D02*
Y356685D01*
X1253274D01*
X1253220Y356959D01*
X1252781Y357616D01*
X1252125Y358054D01*
X1251850Y358109D01*
D02*
G37*
G36*
X1232165D02*
Y356685D01*
X1233589D01*
X1233535Y356959D01*
X1233096Y357616D01*
X1232440Y358054D01*
X1232165Y358109D01*
D02*
G37*
G36*
X1250850D02*
X1250576Y358054D01*
X1249920Y357616D01*
X1249481Y356959D01*
X1249427Y356685D01*
X1250850D01*
Y358109D01*
D02*
G37*
G36*
X1566811D02*
Y356685D01*
X1568235D01*
X1568180Y356959D01*
X1567742Y357616D01*
X1567085Y358054D01*
X1566811Y358109D01*
D02*
G37*
G36*
X1358500Y394615D02*
X1357882Y394492D01*
X1357358Y394142D01*
X1357008Y393618D01*
X1356885Y393000D01*
X1357008Y392382D01*
X1357186Y392115D01*
Y367095D01*
X1356568Y366840D01*
X1355702Y366176D01*
X1355038Y365310D01*
X1354621Y364302D01*
X1354478Y363221D01*
X1354621Y362139D01*
X1355038Y361131D01*
X1355702Y360265D01*
X1356568Y359601D01*
X1357576Y359184D01*
X1358657Y359041D01*
X1359739Y359184D01*
X1360747Y359601D01*
X1361613Y360265D01*
X1362277Y361131D01*
X1362694Y362139D01*
X1362836Y363221D01*
X1362694Y364302D01*
X1362277Y365310D01*
X1361613Y366176D01*
X1360747Y366840D01*
X1359814Y367226D01*
Y392115D01*
X1359992Y392382D01*
X1360115Y393000D01*
X1359992Y393618D01*
X1359642Y394142D01*
X1359118Y394492D01*
X1358500Y394615D01*
D02*
G37*
G36*
X1401000Y385615D02*
X1400382Y385492D01*
X1399858Y385142D01*
X1399508Y384618D01*
X1399385Y384000D01*
X1399508Y383382D01*
X1399686Y383115D01*
Y367095D01*
X1399068Y366840D01*
X1398202Y366176D01*
X1397538Y365310D01*
X1397121Y364302D01*
X1396978Y363221D01*
X1397121Y362139D01*
X1397538Y361131D01*
X1398202Y360265D01*
X1399068Y359601D01*
X1400076Y359184D01*
X1401157Y359041D01*
X1402239Y359184D01*
X1403247Y359601D01*
X1404113Y360265D01*
X1404777Y361131D01*
X1405194Y362139D01*
X1405336Y363221D01*
X1405194Y364302D01*
X1404777Y365310D01*
X1404113Y366176D01*
X1403247Y366840D01*
X1402314Y367226D01*
Y383115D01*
X1402492Y383382D01*
X1402615Y384000D01*
X1402492Y384618D01*
X1402142Y385142D01*
X1401618Y385492D01*
X1401000Y385615D01*
D02*
G37*
G36*
X1316000Y397115D02*
X1315382Y396992D01*
X1314858Y396642D01*
X1314508Y396118D01*
X1314385Y395500D01*
X1314508Y394882D01*
X1314686Y394615D01*
Y367095D01*
X1314068Y366840D01*
X1313202Y366176D01*
X1312538Y365310D01*
X1312121Y364302D01*
X1311978Y363221D01*
X1312121Y362139D01*
X1312538Y361131D01*
X1313202Y360265D01*
X1314068Y359601D01*
X1315076Y359184D01*
X1316158Y359041D01*
X1317239Y359184D01*
X1318247Y359601D01*
X1319112Y360265D01*
X1319777Y361131D01*
X1320194Y362139D01*
X1320337Y363221D01*
X1320194Y364302D01*
X1319777Y365310D01*
X1319112Y366176D01*
X1318247Y366840D01*
X1317314Y367226D01*
Y394615D01*
X1317492Y394882D01*
X1317615Y395500D01*
X1317492Y396118D01*
X1317142Y396642D01*
X1316618Y396992D01*
X1316000Y397115D01*
D02*
G37*
G36*
X1457517Y362720D02*
X1453500D01*
Y358704D01*
X1454186Y358794D01*
X1455291Y359252D01*
X1456240Y359980D01*
X1456969Y360929D01*
X1457426Y362034D01*
X1457517Y362720D01*
D02*
G37*
G36*
X1499017D02*
X1495000D01*
Y358704D01*
X1495686Y358794D01*
X1496791Y359252D01*
X1497740Y359980D01*
X1498469Y360929D01*
X1498926Y362034D01*
X1499017Y362720D01*
D02*
G37*
G36*
X1452500Y367737D02*
X1451814Y367647D01*
X1450709Y367189D01*
X1449760Y366461D01*
X1449031Y365512D01*
X1448574Y364406D01*
X1448483Y363720D01*
X1452500D01*
Y367737D01*
D02*
G37*
G36*
X1410500D02*
X1409814Y367647D01*
X1408709Y367189D01*
X1407760Y366461D01*
X1407031Y365512D01*
X1406574Y364406D01*
X1406483Y363720D01*
X1410500D01*
Y367737D01*
D02*
G37*
G36*
X1368000D02*
X1367314Y367647D01*
X1366209Y367189D01*
X1365260Y366461D01*
X1364531Y365512D01*
X1364074Y364406D01*
X1363983Y363720D01*
X1368000D01*
Y367737D01*
D02*
G37*
G36*
X1144551Y363559D02*
X1143128D01*
X1143182Y363285D01*
X1143621Y362629D01*
X1144277Y362190D01*
X1144551Y362135D01*
Y363559D01*
D02*
G37*
G36*
X1146975D02*
X1145551D01*
Y362135D01*
X1145825Y362190D01*
X1146482Y362629D01*
X1146920Y363285D01*
X1146975Y363559D01*
D02*
G37*
G36*
X1415517Y362720D02*
X1411500D01*
Y358704D01*
X1412186Y358794D01*
X1413291Y359252D01*
X1414240Y359980D01*
X1414969Y360929D01*
X1415426Y362034D01*
X1415517Y362720D01*
D02*
G37*
G36*
X1325500D02*
X1321483D01*
X1321574Y362034D01*
X1322031Y360929D01*
X1322760Y359980D01*
X1323709Y359252D01*
X1324814Y358794D01*
X1325500Y358704D01*
Y362720D01*
D02*
G37*
G36*
X1368000D02*
X1363983D01*
X1364074Y362034D01*
X1364531Y360929D01*
X1365260Y359980D01*
X1366209Y359252D01*
X1367314Y358794D01*
X1368000Y358704D01*
Y362720D01*
D02*
G37*
G36*
X1318000Y415615D02*
X1317382Y415492D01*
X1316858Y415142D01*
X1316508Y414618D01*
X1316385Y414000D01*
X1316508Y413382D01*
X1316686Y413115D01*
Y407044D01*
X1309571Y399929D01*
X1309286Y399503D01*
X1309186Y399000D01*
Y383544D01*
X1307956Y382314D01*
X1296880D01*
X1296673Y382814D01*
X1299429Y385571D01*
X1299714Y385997D01*
X1299814Y386500D01*
Y397615D01*
X1299992Y397882D01*
X1300115Y398500D01*
X1299992Y399118D01*
X1299642Y399642D01*
X1299118Y399992D01*
X1298500Y400115D01*
X1297882Y399992D01*
X1297358Y399642D01*
X1297008Y399118D01*
X1296885Y398500D01*
X1297008Y397882D01*
X1297186Y397615D01*
Y387044D01*
X1294956Y384814D01*
X1283571D01*
X1283068Y384714D01*
X1282642Y384429D01*
X1275436Y377223D01*
X1274660Y377544D01*
X1273579Y377687D01*
X1272497Y377544D01*
X1271489Y377127D01*
X1270624Y376463D01*
X1269960Y375597D01*
X1269542Y374589D01*
X1269400Y373508D01*
X1269542Y372426D01*
X1269960Y371418D01*
X1270624Y370553D01*
X1271489Y369889D01*
X1272497Y369471D01*
X1273579Y369329D01*
X1274660Y369471D01*
X1275668Y369889D01*
X1276534Y370553D01*
X1277198Y371418D01*
X1277615Y372426D01*
X1277758Y373508D01*
X1277615Y374589D01*
X1277294Y375365D01*
X1284115Y382186D01*
X1294620D01*
X1294827Y381686D01*
X1289571Y376429D01*
X1289286Y376003D01*
X1289186Y375500D01*
Y370544D01*
X1286456Y367814D01*
X1211044D01*
X1209893Y368966D01*
Y369568D01*
X1210668Y369889D01*
X1211534Y370553D01*
X1212198Y371418D01*
X1212615Y372426D01*
X1212758Y373508D01*
X1212615Y374589D01*
X1212198Y375597D01*
X1211534Y376463D01*
X1210668Y377127D01*
X1209660Y377544D01*
X1208579Y377687D01*
X1207497Y377544D01*
X1206489Y377127D01*
X1205624Y376463D01*
X1204960Y375597D01*
X1204542Y374589D01*
X1204400Y373508D01*
X1204542Y372426D01*
X1204960Y371418D01*
X1205624Y370553D01*
X1206489Y369889D01*
X1207265Y369568D01*
Y368421D01*
X1207365Y367918D01*
X1207650Y367492D01*
X1209571Y365571D01*
X1209997Y365286D01*
X1210500Y365186D01*
X1287000D01*
X1287503Y365286D01*
X1287929Y365571D01*
X1291429Y369071D01*
X1291714Y369497D01*
X1291814Y370000D01*
Y374956D01*
X1296544Y379686D01*
X1308500D01*
X1309003Y379786D01*
X1309429Y380071D01*
X1311429Y382071D01*
X1311714Y382497D01*
X1311814Y383000D01*
Y398456D01*
X1318929Y405571D01*
X1319214Y405997D01*
X1319314Y406500D01*
Y407646D01*
X1319681Y407757D01*
X1319814Y407766D01*
X1329642Y397939D01*
X1329497Y397460D01*
X1329316Y397424D01*
X1328660Y396986D01*
X1328221Y396329D01*
X1328167Y396055D01*
X1330091D01*
Y395555D01*
X1330591D01*
Y393632D01*
X1330865Y393686D01*
X1331521Y394125D01*
X1331960Y394781D01*
X1332055Y395260D01*
X1332533Y395646D01*
X1332602Y395661D01*
X1333000Y395582D01*
X1341082D01*
Y369537D01*
X1328963Y357418D01*
X1308002D01*
X1307418Y358002D01*
Y359193D01*
X1308405Y359601D01*
X1309270Y360265D01*
X1309934Y361131D01*
X1310352Y362139D01*
X1310494Y363221D01*
X1310352Y364302D01*
X1309934Y365310D01*
X1309270Y366176D01*
X1308405Y366840D01*
X1307397Y367257D01*
X1306315Y367400D01*
X1305233Y367257D01*
X1304225Y366840D01*
X1303360Y366176D01*
X1302696Y365310D01*
X1302278Y364302D01*
X1302136Y363221D01*
X1302278Y362139D01*
X1302582Y361406D01*
Y357000D01*
X1302766Y356075D01*
X1303290Y355290D01*
X1305290Y353290D01*
X1306075Y352766D01*
X1307000Y352582D01*
X1329965D01*
X1330890Y352766D01*
X1331674Y353290D01*
X1343250Y364866D01*
X1343750D01*
X1344724Y363892D01*
X1344636Y363221D01*
X1344778Y362139D01*
X1345196Y361131D01*
X1345860Y360265D01*
X1346397Y359854D01*
Y354685D01*
X1346581Y353760D01*
X1347105Y352975D01*
X1360290Y339790D01*
X1361075Y339266D01*
X1362000Y339082D01*
X1382500D01*
X1383425Y339266D01*
X1384210Y339790D01*
X1392710Y348290D01*
X1392710Y348290D01*
X1396002Y351582D01*
X1465594D01*
X1466520Y351766D01*
X1467304Y352290D01*
X1474144Y359130D01*
X1474815Y359041D01*
X1475897Y359184D01*
X1476904Y359601D01*
X1477770Y360265D01*
X1478434Y361131D01*
X1478852Y362139D01*
X1478994Y363221D01*
X1478852Y364302D01*
X1478434Y365310D01*
X1477770Y366176D01*
X1476904Y366840D01*
X1475897Y367257D01*
X1474815Y367400D01*
X1473733Y367257D01*
X1472725Y366840D01*
X1471860Y366176D01*
X1471196Y365310D01*
X1470778Y364302D01*
X1470636Y363221D01*
X1470724Y362549D01*
X1464593Y356418D01*
X1430586D01*
X1430394Y356880D01*
X1432644Y359130D01*
X1433315Y359041D01*
X1434397Y359184D01*
X1435404Y359601D01*
X1436270Y360265D01*
X1436934Y361131D01*
X1437352Y362139D01*
X1437494Y363221D01*
X1437352Y364302D01*
X1436934Y365310D01*
X1436270Y366176D01*
X1435404Y366840D01*
X1434397Y367257D01*
X1433315Y367400D01*
X1432233Y367257D01*
X1431225Y366840D01*
X1430360Y366176D01*
X1429696Y365310D01*
X1429278Y364302D01*
X1429136Y363221D01*
X1429224Y362549D01*
X1423093Y356418D01*
X1395000D01*
X1394075Y356234D01*
X1393859Y356090D01*
X1393418Y356326D01*
Y359612D01*
X1394270Y360265D01*
X1394934Y361131D01*
X1395352Y362139D01*
X1395494Y363221D01*
X1395352Y364302D01*
X1394934Y365310D01*
X1394270Y366176D01*
X1393404Y366840D01*
X1392397Y367257D01*
X1391315Y367400D01*
X1390233Y367257D01*
X1389225Y366840D01*
X1388360Y366176D01*
X1387696Y365310D01*
X1387278Y364302D01*
X1387136Y363221D01*
X1387278Y362139D01*
X1387696Y361131D01*
X1388360Y360265D01*
X1388582Y360095D01*
Y351002D01*
X1381498Y343918D01*
X1363002D01*
X1351233Y355687D01*
Y359854D01*
X1351770Y360265D01*
X1352434Y361131D01*
X1352852Y362139D01*
X1352994Y363221D01*
X1352852Y364302D01*
X1352434Y365310D01*
X1351770Y366176D01*
X1350904Y366840D01*
X1349897Y367257D01*
X1348815Y367400D01*
X1348144Y367311D01*
X1345918Y369537D01*
Y398000D01*
X1345734Y398925D01*
X1345210Y399710D01*
X1344425Y400234D01*
X1343500Y400418D01*
X1334002D01*
X1323210Y411210D01*
X1322425Y411734D01*
X1321500Y411918D01*
X1320575Y411734D01*
X1319814Y411226D01*
X1319573Y411276D01*
X1319314Y411354D01*
Y413115D01*
X1319492Y413382D01*
X1319615Y414000D01*
X1319492Y414618D01*
X1319142Y415142D01*
X1318618Y415492D01*
X1318000Y415615D01*
D02*
G37*
G36*
X1585496Y367022D02*
X1584295Y366927D01*
X1582635Y366529D01*
X1581058Y365876D01*
X1579603Y364984D01*
X1578306Y363876D01*
X1577197Y362578D01*
X1576305Y361123D01*
X1575652Y359546D01*
X1575254Y357886D01*
X1575159Y356685D01*
X1585496D01*
Y367022D01*
D02*
G37*
G36*
X1586496D02*
Y356685D01*
X1596833D01*
X1596738Y357886D01*
X1596340Y359546D01*
X1595687Y361123D01*
X1594795Y362578D01*
X1593687Y363876D01*
X1592389Y364984D01*
X1590934Y365876D01*
X1589357Y366529D01*
X1587698Y366927D01*
X1586496Y367022D01*
D02*
G37*
G36*
X1330517Y362720D02*
X1326500D01*
Y358704D01*
X1327186Y358794D01*
X1328291Y359252D01*
X1329240Y359980D01*
X1329969Y360929D01*
X1330426Y362034D01*
X1330517Y362720D01*
D02*
G37*
G36*
X1373017D02*
X1369000D01*
Y358704D01*
X1369686Y358794D01*
X1370791Y359252D01*
X1371740Y359980D01*
X1372469Y360929D01*
X1372926Y362034D01*
X1373017Y362720D01*
D02*
G37*
G36*
X1494000D02*
X1489983D01*
X1490074Y362034D01*
X1490531Y360929D01*
X1491260Y359980D01*
X1492209Y359252D01*
X1493314Y358794D01*
X1494000Y358704D01*
Y362720D01*
D02*
G37*
G36*
X1410500D02*
X1406483D01*
X1406574Y362034D01*
X1407031Y360929D01*
X1407760Y359980D01*
X1408709Y359252D01*
X1409814Y358794D01*
X1410500Y358704D01*
Y362720D01*
D02*
G37*
G36*
X1452500D02*
X1448483D01*
X1448574Y362034D01*
X1449031Y360929D01*
X1449760Y359980D01*
X1450709Y359252D01*
X1451814Y358794D01*
X1452500Y358704D01*
Y362720D01*
D02*
G37*
G36*
X1172110Y358109D02*
X1171836Y358054D01*
X1171180Y357616D01*
X1170741Y356959D01*
X1170687Y356685D01*
X1172110D01*
Y358109D01*
D02*
G37*
G36*
X1211480Y355685D02*
X1210057D01*
X1210111Y355411D01*
X1210550Y354754D01*
X1211206Y354316D01*
X1211480Y354261D01*
Y355685D01*
D02*
G37*
G36*
X1213904D02*
X1212480D01*
Y354261D01*
X1212755Y354316D01*
X1213411Y354754D01*
X1213849Y355411D01*
X1213904Y355685D01*
D02*
G37*
G36*
X1194219D02*
X1192795D01*
Y354261D01*
X1193069Y354316D01*
X1193726Y354754D01*
X1194164Y355411D01*
X1194219Y355685D01*
D02*
G37*
G36*
X1154849D02*
X1153425D01*
Y354261D01*
X1153699Y354316D01*
X1154356Y354754D01*
X1154794Y355411D01*
X1154849Y355685D01*
D02*
G37*
G36*
X1191795D02*
X1190372D01*
X1190426Y355411D01*
X1190865Y354754D01*
X1191521Y354316D01*
X1191795Y354261D01*
Y355685D01*
D02*
G37*
G36*
X1253274D02*
X1251850D01*
Y354261D01*
X1252125Y354316D01*
X1252781Y354754D01*
X1253220Y355411D01*
X1253274Y355685D01*
D02*
G37*
G36*
X1270535D02*
X1269112D01*
X1269166Y355411D01*
X1269605Y354754D01*
X1270261Y354316D01*
X1270535Y354261D01*
Y355685D01*
D02*
G37*
G36*
X1250850D02*
X1249427D01*
X1249481Y355411D01*
X1249920Y354754D01*
X1250576Y354316D01*
X1250850Y354261D01*
Y355685D01*
D02*
G37*
G36*
X1231165D02*
X1229742D01*
X1229796Y355411D01*
X1230235Y354754D01*
X1230891Y354316D01*
X1231165Y354261D01*
Y355685D01*
D02*
G37*
G36*
X1233589D02*
X1232165D01*
Y354261D01*
X1232440Y354316D01*
X1233096Y354754D01*
X1233535Y355411D01*
X1233589Y355685D01*
D02*
G37*
G36*
X1152425D02*
X1151001D01*
X1151056Y355411D01*
X1151495Y354754D01*
X1152151Y354316D01*
X1152425Y354261D01*
Y355685D01*
D02*
G37*
G36*
X1585496D02*
X1575159D01*
X1575254Y354484D01*
X1575652Y352824D01*
X1576305Y351247D01*
X1577197Y349792D01*
X1578306Y348495D01*
X1579603Y347386D01*
X1581058Y346494D01*
X1582635Y345841D01*
X1584295Y345443D01*
X1585496Y345348D01*
Y355685D01*
D02*
G37*
G36*
X1596833D02*
X1586496D01*
Y345348D01*
X1587698Y345443D01*
X1589357Y345841D01*
X1590934Y346494D01*
X1592389Y347386D01*
X1593687Y348495D01*
X1594795Y349792D01*
X1595687Y351247D01*
X1596340Y352824D01*
X1596738Y354484D01*
X1596833Y355685D01*
D02*
G37*
G36*
X1085022D02*
X1074685D01*
Y345348D01*
X1075886Y345443D01*
X1077546Y345841D01*
X1079123Y346494D01*
X1080578Y347386D01*
X1081876Y348495D01*
X1082984Y349792D01*
X1083876Y351247D01*
X1084529Y352824D01*
X1084927Y354484D01*
X1085022Y355685D01*
D02*
G37*
G36*
X1376000Y389316D02*
X1375305Y389178D01*
X1374716Y388784D01*
X1374322Y388195D01*
X1374184Y387500D01*
Y347000D01*
X1374322Y346305D01*
X1374716Y345716D01*
X1375305Y345322D01*
X1376000Y345184D01*
X1376695Y345322D01*
X1377284Y345716D01*
X1377678Y346305D01*
X1377816Y347000D01*
Y387500D01*
X1377678Y388195D01*
X1377284Y388784D01*
X1376695Y389178D01*
X1376000Y389316D01*
D02*
G37*
G36*
X1073685Y355685D02*
X1063348D01*
X1063443Y354484D01*
X1063841Y352824D01*
X1064494Y351247D01*
X1065386Y349792D01*
X1066494Y348495D01*
X1067792Y347386D01*
X1069247Y346494D01*
X1070824Y345841D01*
X1072484Y345443D01*
X1073685Y345348D01*
Y355685D01*
D02*
G37*
G36*
X1132740D02*
X1131316D01*
X1131371Y355411D01*
X1131810Y354754D01*
X1132466Y354316D01*
X1132740Y354261D01*
Y355685D01*
D02*
G37*
G36*
X1135164D02*
X1133740D01*
Y354261D01*
X1134014Y354316D01*
X1134671Y354754D01*
X1135109Y355411D01*
X1135164Y355685D01*
D02*
G37*
G36*
X1115479D02*
X1114055D01*
Y354261D01*
X1114329Y354316D01*
X1114986Y354754D01*
X1115424Y355411D01*
X1115479Y355685D01*
D02*
G37*
G36*
X1121000Y362155D02*
X1119816Y361999D01*
X1118712Y361542D01*
X1117764Y360815D01*
X1117037Y359867D01*
X1116580Y358763D01*
X1116424Y357579D01*
X1116580Y356394D01*
X1117037Y355291D01*
X1117764Y354343D01*
X1118712Y353616D01*
X1119816Y353158D01*
X1121000Y353003D01*
X1122184Y353158D01*
X1123288Y353616D01*
X1124236Y354343D01*
X1124963Y355291D01*
X1125420Y356394D01*
X1125576Y357579D01*
X1125420Y358763D01*
X1124963Y359867D01*
X1124236Y360815D01*
X1123288Y361542D01*
X1122184Y361999D01*
X1121000Y362155D01*
D02*
G37*
G36*
X1113055Y355685D02*
X1111631D01*
X1111686Y355411D01*
X1112125Y354754D01*
X1112781Y354316D01*
X1113055Y354261D01*
Y355685D01*
D02*
G37*
G36*
X1272959D02*
X1271535D01*
Y354261D01*
X1271810Y354316D01*
X1272466Y354754D01*
X1272905Y355411D01*
X1272959Y355685D01*
D02*
G37*
G36*
X1074685Y367022D02*
Y356685D01*
X1085022D01*
X1084927Y357886D01*
X1084529Y359546D01*
X1083876Y361123D01*
X1082984Y362578D01*
X1081876Y363876D01*
X1080578Y364984D01*
X1079123Y365876D01*
X1077546Y366529D01*
X1075886Y366927D01*
X1074685Y367022D01*
D02*
G37*
G36*
X1113055Y358109D02*
X1112781Y358054D01*
X1112125Y357616D01*
X1111686Y356959D01*
X1111631Y356685D01*
X1113055D01*
Y358109D01*
D02*
G37*
G36*
X1073685Y367022D02*
X1072484Y366927D01*
X1070824Y366529D01*
X1069247Y365876D01*
X1067792Y364984D01*
X1066494Y363876D01*
X1065386Y362578D01*
X1064494Y361123D01*
X1063841Y359546D01*
X1063443Y357886D01*
X1063348Y356685D01*
X1073685D01*
Y367022D01*
D02*
G37*
G36*
X1568235Y355685D02*
X1566811D01*
Y354261D01*
X1567085Y354316D01*
X1567742Y354754D01*
X1568180Y355411D01*
X1568235Y355685D01*
D02*
G37*
G36*
X1185421Y377687D02*
X1184340Y377544D01*
X1183332Y377127D01*
X1182466Y376463D01*
X1181802Y375597D01*
X1181385Y374589D01*
X1181242Y373508D01*
X1181385Y372426D01*
X1181802Y371418D01*
X1182466Y370553D01*
X1182831Y370273D01*
Y363494D01*
X1175049Y355713D01*
X1174588Y355959D01*
X1174633Y356185D01*
X1174479Y356959D01*
X1174041Y357616D01*
X1173384Y358054D01*
X1173110Y358109D01*
Y356185D01*
X1172610D01*
Y355685D01*
X1170687D01*
X1170741Y355411D01*
X1171180Y354754D01*
X1171836Y354316D01*
X1172610Y354162D01*
X1172836Y354207D01*
X1173082Y353746D01*
X1167927Y348591D01*
X1150000D01*
X1149329Y348502D01*
X1148705Y348244D01*
X1148168Y347832D01*
X1147756Y347295D01*
X1147498Y346671D01*
X1147409Y346000D01*
X1147498Y345329D01*
X1147756Y344705D01*
X1148168Y344168D01*
X1148705Y343756D01*
X1149329Y343498D01*
X1150000Y343409D01*
X1169000D01*
X1169670Y343498D01*
X1170295Y343756D01*
X1170832Y344168D01*
X1187253Y360589D01*
X1187665Y361126D01*
X1187924Y361751D01*
X1188012Y362421D01*
Y370273D01*
X1188376Y370553D01*
X1189040Y371418D01*
X1189458Y372426D01*
X1189600Y373508D01*
X1189458Y374589D01*
X1189040Y375597D01*
X1188376Y376463D01*
X1187511Y377127D01*
X1186503Y377544D01*
X1185421Y377687D01*
D02*
G37*
G36*
X1152425Y358109D02*
X1152151Y358054D01*
X1151495Y357616D01*
X1151056Y356959D01*
X1151001Y356685D01*
X1152425D01*
Y358109D01*
D02*
G37*
G36*
X1153425D02*
Y356685D01*
X1154849D01*
X1154794Y356959D01*
X1154356Y357616D01*
X1153699Y358054D01*
X1153425Y358109D01*
D02*
G37*
G36*
X1133740D02*
Y356685D01*
X1135164D01*
X1135109Y356959D01*
X1134671Y357616D01*
X1134014Y358054D01*
X1133740Y358109D01*
D02*
G37*
G36*
X1114055D02*
Y356685D01*
X1115479D01*
X1115424Y356959D01*
X1114986Y357616D01*
X1114329Y358054D01*
X1114055Y358109D01*
D02*
G37*
G36*
X1132740D02*
X1132466Y358054D01*
X1131810Y357616D01*
X1131371Y356959D01*
X1131316Y356685D01*
X1132740D01*
Y358109D01*
D02*
G37*
G36*
X1565811Y355685D02*
X1564387D01*
X1564442Y355411D01*
X1564880Y354754D01*
X1565537Y354316D01*
X1565811Y354261D01*
Y355685D01*
D02*
G37*
G36*
X1371384D02*
X1369961D01*
Y354261D01*
X1370235Y354316D01*
X1370891Y354754D01*
X1371330Y355411D01*
X1371384Y355685D01*
D02*
G37*
G36*
X1487071D02*
X1485647D01*
X1485702Y355411D01*
X1486140Y354754D01*
X1486797Y354316D01*
X1487071Y354261D01*
Y355685D01*
D02*
G37*
G36*
X1368961D02*
X1367537D01*
X1367591Y355411D01*
X1368030Y354754D01*
X1368686Y354316D01*
X1368961Y354261D01*
Y355685D01*
D02*
G37*
G36*
X1290221D02*
X1288797D01*
X1288851Y355411D01*
X1289290Y354754D01*
X1289946Y354316D01*
X1290221Y354261D01*
Y355685D01*
D02*
G37*
G36*
X1292644D02*
X1291220D01*
Y354261D01*
X1291495Y354316D01*
X1292151Y354754D01*
X1292590Y355411D01*
X1292644Y355685D01*
D02*
G37*
G36*
X1526441D02*
X1525017D01*
X1525072Y355411D01*
X1525510Y354754D01*
X1526167Y354316D01*
X1526441Y354261D01*
Y355685D01*
D02*
G37*
G36*
X1528865D02*
X1527441D01*
Y354261D01*
X1527715Y354316D01*
X1528372Y354754D01*
X1528810Y355411D01*
X1528865Y355685D01*
D02*
G37*
G36*
X1509180D02*
X1507756D01*
Y354261D01*
X1508030Y354316D01*
X1508687Y354754D01*
X1509125Y355411D01*
X1509180Y355685D01*
D02*
G37*
G36*
X1489495D02*
X1488071D01*
Y354261D01*
X1488345Y354316D01*
X1489001Y354754D01*
X1489440Y355411D01*
X1489495Y355685D01*
D02*
G37*
G36*
X1506756D02*
X1505332D01*
X1505387Y355411D01*
X1505825Y354754D01*
X1506482Y354316D01*
X1506756Y354261D01*
Y355685D01*
D02*
G37*
G36*
X1494000Y367737D02*
X1493314Y367647D01*
X1492209Y367189D01*
X1491260Y366461D01*
X1490531Y365512D01*
X1490074Y364406D01*
X1489983Y363720D01*
X1494000D01*
Y367737D01*
D02*
G37*
G36*
X1152425Y377794D02*
X1152151Y377739D01*
X1151495Y377301D01*
X1151056Y376644D01*
X1151001Y376370D01*
X1152425D01*
Y377794D01*
D02*
G37*
G36*
X1153425D02*
Y376370D01*
X1154849D01*
X1154794Y376644D01*
X1154356Y377301D01*
X1153699Y377739D01*
X1153425Y377794D01*
D02*
G37*
G36*
X1133740D02*
Y376370D01*
X1135164D01*
X1135109Y376644D01*
X1134671Y377301D01*
X1134014Y377739D01*
X1133740Y377794D01*
D02*
G37*
G36*
X1114055D02*
Y376370D01*
X1115479D01*
X1115424Y376644D01*
X1114986Y377301D01*
X1114329Y377739D01*
X1114055Y377794D01*
D02*
G37*
G36*
X1132740D02*
X1132466Y377739D01*
X1131810Y377301D01*
X1131371Y376644D01*
X1131316Y376370D01*
X1132740D01*
Y377794D01*
D02*
G37*
G36*
X1310905D02*
Y376370D01*
X1312329D01*
X1312275Y376644D01*
X1311836Y377301D01*
X1311180Y377739D01*
X1310905Y377794D01*
D02*
G37*
G36*
X1329591D02*
X1329316Y377739D01*
X1328660Y377301D01*
X1328221Y376644D01*
X1328167Y376370D01*
X1329591D01*
Y377794D01*
D02*
G37*
G36*
X1309906D02*
X1309631Y377739D01*
X1308975Y377301D01*
X1308536Y376644D01*
X1308482Y376370D01*
X1309906D01*
Y377794D01*
D02*
G37*
G36*
X1191795D02*
X1191521Y377739D01*
X1190865Y377301D01*
X1190426Y376644D01*
X1190372Y376370D01*
X1191795D01*
Y377794D01*
D02*
G37*
G36*
X1192795D02*
Y376370D01*
X1194219D01*
X1194164Y376644D01*
X1193726Y377301D01*
X1193069Y377739D01*
X1192795Y377794D01*
D02*
G37*
G36*
X1113055D02*
X1112781Y377739D01*
X1112125Y377301D01*
X1111686Y376644D01*
X1111631Y376370D01*
X1113055D01*
Y377794D01*
D02*
G37*
G36*
X1528865Y375370D02*
X1527441D01*
Y373946D01*
X1527715Y374001D01*
X1528372Y374440D01*
X1528810Y375096D01*
X1528865Y375370D01*
D02*
G37*
G36*
X1546126D02*
X1544702D01*
X1544757Y375096D01*
X1545195Y374440D01*
X1545852Y374001D01*
X1546126Y373946D01*
Y375370D01*
D02*
G37*
G36*
X1526441D02*
X1525017D01*
X1525072Y375096D01*
X1525510Y374440D01*
X1526167Y374001D01*
X1526441Y373946D01*
Y375370D01*
D02*
G37*
G36*
X1506756D02*
X1505332D01*
X1505387Y375096D01*
X1505825Y374440D01*
X1506482Y374001D01*
X1506756Y373946D01*
Y375370D01*
D02*
G37*
G36*
X1509180D02*
X1507756D01*
Y373946D01*
X1508030Y374001D01*
X1508687Y374440D01*
X1509125Y375096D01*
X1509180Y375370D01*
D02*
G37*
G36*
X1585496D02*
X1584072D01*
X1584127Y375096D01*
X1584566Y374440D01*
X1585222Y374001D01*
X1585496Y373946D01*
Y375370D01*
D02*
G37*
G36*
X1587920D02*
X1586496D01*
Y373946D01*
X1586770Y374001D01*
X1587427Y374440D01*
X1587865Y375096D01*
X1587920Y375370D01*
D02*
G37*
G36*
X1568235D02*
X1566811D01*
Y373946D01*
X1567085Y374001D01*
X1567742Y374440D01*
X1568180Y375096D01*
X1568235Y375370D01*
D02*
G37*
G36*
X1548550D02*
X1547126D01*
Y373946D01*
X1547400Y374001D01*
X1548057Y374440D01*
X1548495Y375096D01*
X1548550Y375370D01*
D02*
G37*
G36*
X1565811D02*
X1564387D01*
X1564442Y375096D01*
X1564880Y374440D01*
X1565537Y374001D01*
X1565811Y373946D01*
Y375370D01*
D02*
G37*
G36*
X1330591Y377794D02*
Y376370D01*
X1332014D01*
X1331960Y376644D01*
X1331521Y377301D01*
X1330865Y377739D01*
X1330591Y377794D01*
D02*
G37*
G36*
X1488071D02*
Y376370D01*
X1489495D01*
X1489440Y376644D01*
X1489001Y377301D01*
X1488345Y377739D01*
X1488071Y377794D01*
D02*
G37*
G36*
X1506756D02*
X1506482Y377739D01*
X1505825Y377301D01*
X1505387Y376644D01*
X1505332Y376370D01*
X1506756D01*
Y377794D01*
D02*
G37*
G36*
X1468386D02*
Y376370D01*
X1469810D01*
X1469755Y376644D01*
X1469316Y377301D01*
X1468660Y377739D01*
X1468386Y377794D01*
D02*
G37*
G36*
X1448701D02*
Y376370D01*
X1450124D01*
X1450070Y376644D01*
X1449631Y377301D01*
X1448975Y377739D01*
X1448701Y377794D01*
D02*
G37*
G36*
X1467386D02*
X1467112Y377739D01*
X1466455Y377301D01*
X1466017Y376644D01*
X1465962Y376370D01*
X1467386D01*
Y377794D01*
D02*
G37*
G36*
X1546126D02*
X1545852Y377739D01*
X1545195Y377301D01*
X1544757Y376644D01*
X1544702Y376370D01*
X1546126D01*
Y377794D01*
D02*
G37*
G36*
X1547126D02*
Y376370D01*
X1548550D01*
X1548495Y376644D01*
X1548057Y377301D01*
X1547400Y377739D01*
X1547126Y377794D01*
D02*
G37*
G36*
X1527441D02*
Y376370D01*
X1528865D01*
X1528810Y376644D01*
X1528372Y377301D01*
X1527715Y377739D01*
X1527441Y377794D01*
D02*
G37*
G36*
X1507756D02*
Y376370D01*
X1509180D01*
X1509125Y376644D01*
X1508687Y377301D01*
X1508030Y377739D01*
X1507756Y377794D01*
D02*
G37*
G36*
X1526441D02*
X1526167Y377739D01*
X1525510Y377301D01*
X1525072Y376644D01*
X1525017Y376370D01*
X1526441D01*
Y377794D01*
D02*
G37*
G36*
X1447701D02*
X1447427Y377739D01*
X1446770Y377301D01*
X1446332Y376644D01*
X1446277Y376370D01*
X1447701D01*
Y377794D01*
D02*
G37*
G36*
X1369961D02*
Y376370D01*
X1371384D01*
X1371330Y376644D01*
X1370891Y377301D01*
X1370235Y377739D01*
X1369961Y377794D01*
D02*
G37*
G36*
X1388646D02*
X1388371Y377739D01*
X1387715Y377301D01*
X1387276Y376644D01*
X1387222Y376370D01*
X1388646D01*
Y377794D01*
D02*
G37*
G36*
X1368961D02*
X1368686Y377739D01*
X1368030Y377301D01*
X1367591Y376644D01*
X1367537Y376370D01*
X1368961D01*
Y377794D01*
D02*
G37*
G36*
X1349276D02*
X1349001Y377739D01*
X1348345Y377301D01*
X1347906Y376644D01*
X1347852Y376370D01*
X1349276D01*
Y377794D01*
D02*
G37*
G36*
X1350276D02*
Y376370D01*
X1351699D01*
X1351645Y376644D01*
X1351206Y377301D01*
X1350550Y377739D01*
X1350276Y377794D01*
D02*
G37*
G36*
X1428016D02*
X1427742Y377739D01*
X1427085Y377301D01*
X1426647Y376644D01*
X1426592Y376370D01*
X1428016D01*
Y377794D01*
D02*
G37*
G36*
X1429016D02*
Y376370D01*
X1430439D01*
X1430385Y376644D01*
X1429946Y377301D01*
X1429290Y377739D01*
X1429016Y377794D01*
D02*
G37*
G36*
X1409331D02*
Y376370D01*
X1410754D01*
X1410700Y376644D01*
X1410261Y377301D01*
X1409605Y377739D01*
X1409331Y377794D01*
D02*
G37*
G36*
X1389646D02*
Y376370D01*
X1391069D01*
X1391015Y376644D01*
X1390576Y377301D01*
X1389920Y377739D01*
X1389646Y377794D01*
D02*
G37*
G36*
X1408331D02*
X1408057Y377739D01*
X1407400Y377301D01*
X1406962Y376644D01*
X1406907Y376370D01*
X1408331D01*
Y377794D01*
D02*
G37*
G36*
X1489495Y375370D02*
X1488071D01*
Y373946D01*
X1488345Y374001D01*
X1489001Y374440D01*
X1489440Y375096D01*
X1489495Y375370D01*
D02*
G37*
G36*
X1144551Y373857D02*
X1144277Y373802D01*
X1143621Y373364D01*
X1143182Y372707D01*
X1143128Y372433D01*
X1144551D01*
Y373857D01*
D02*
G37*
G36*
X1145551D02*
Y372433D01*
X1146975D01*
X1146920Y372707D01*
X1146482Y373364D01*
X1145825Y373802D01*
X1145551Y373857D01*
D02*
G37*
G36*
X1121000Y379478D02*
X1119816Y379322D01*
X1118712Y378865D01*
X1117764Y378137D01*
X1117037Y377190D01*
X1116580Y376086D01*
X1116424Y374902D01*
X1116580Y373717D01*
X1117037Y372614D01*
X1117764Y371666D01*
X1118712Y370938D01*
X1119816Y370481D01*
X1121000Y370325D01*
X1122184Y370481D01*
X1123288Y370938D01*
X1124236Y371666D01*
X1124963Y372614D01*
X1125420Y373717D01*
X1125576Y374902D01*
X1125420Y376086D01*
X1124963Y377190D01*
X1124236Y378137D01*
X1123288Y378865D01*
X1122184Y379322D01*
X1121000Y379478D01*
D02*
G37*
G36*
X1144551Y371433D02*
X1143128D01*
X1143182Y371159D01*
X1143621Y370502D01*
X1144277Y370064D01*
X1144551Y370009D01*
Y371433D01*
D02*
G37*
G36*
X1146975D02*
X1145551D01*
Y370009D01*
X1145825Y370064D01*
X1146482Y370502D01*
X1146920Y371159D01*
X1146975Y371433D01*
D02*
G37*
G36*
X1135164Y375370D02*
X1133740D01*
Y373946D01*
X1134014Y374001D01*
X1134671Y374440D01*
X1135109Y375096D01*
X1135164Y375370D01*
D02*
G37*
G36*
X1152425D02*
X1151001D01*
X1151056Y375096D01*
X1151495Y374440D01*
X1152151Y374001D01*
X1152425Y373946D01*
Y375370D01*
D02*
G37*
G36*
X1132740D02*
X1131316D01*
X1131371Y375096D01*
X1131810Y374440D01*
X1132466Y374001D01*
X1132740Y373946D01*
Y375370D01*
D02*
G37*
G36*
X1113055D02*
X1111631D01*
X1111686Y375096D01*
X1112125Y374440D01*
X1112781Y374001D01*
X1113055Y373946D01*
Y375370D01*
D02*
G37*
G36*
X1115479D02*
X1114055D01*
Y373946D01*
X1114329Y374001D01*
X1114986Y374440D01*
X1115424Y375096D01*
X1115479Y375370D01*
D02*
G37*
G36*
X1283421Y377687D02*
X1282340Y377544D01*
X1281332Y377127D01*
X1280466Y376463D01*
X1279802Y375597D01*
X1279385Y374589D01*
X1279242Y373508D01*
X1279385Y372426D01*
X1279802Y371418D01*
X1280466Y370553D01*
X1281332Y369889D01*
X1282340Y369471D01*
X1283421Y369329D01*
X1284503Y369471D01*
X1285511Y369889D01*
X1286376Y370553D01*
X1287040Y371418D01*
X1287458Y372426D01*
X1287600Y373508D01*
X1287458Y374589D01*
X1287040Y375597D01*
X1286376Y376463D01*
X1285511Y377127D01*
X1284503Y377544D01*
X1283421Y377687D01*
D02*
G37*
G36*
X1411500Y367737D02*
Y363720D01*
X1415517D01*
X1415426Y364406D01*
X1414969Y365512D01*
X1414240Y366461D01*
X1413291Y367189D01*
X1412186Y367647D01*
X1411500Y367737D01*
D02*
G37*
G36*
X1495000D02*
Y363720D01*
X1499017D01*
X1498926Y364406D01*
X1498469Y365512D01*
X1497740Y366461D01*
X1496791Y367189D01*
X1495686Y367647D01*
X1495000Y367737D01*
D02*
G37*
G36*
X1369000D02*
Y363720D01*
X1373017D01*
X1372926Y364406D01*
X1372469Y365512D01*
X1371740Y366461D01*
X1370791Y367189D01*
X1369686Y367647D01*
X1369000Y367737D01*
D02*
G37*
G36*
X1325500D02*
X1324814Y367647D01*
X1323709Y367189D01*
X1322760Y366461D01*
X1322031Y365512D01*
X1321574Y364406D01*
X1321483Y363720D01*
X1325500D01*
Y367737D01*
D02*
G37*
G36*
X1453500D02*
Y363720D01*
X1457517D01*
X1457426Y364406D01*
X1456969Y365512D01*
X1456240Y366461D01*
X1455291Y367189D01*
X1454186Y367647D01*
X1453500Y367737D01*
D02*
G37*
G36*
X1218421Y377687D02*
X1217340Y377544D01*
X1216332Y377127D01*
X1215466Y376463D01*
X1214802Y375597D01*
X1214385Y374589D01*
X1214242Y373508D01*
X1214385Y372426D01*
X1214802Y371418D01*
X1215466Y370553D01*
X1216332Y369889D01*
X1217340Y369471D01*
X1218421Y369329D01*
X1219503Y369471D01*
X1220511Y369889D01*
X1221376Y370553D01*
X1222040Y371418D01*
X1222458Y372426D01*
X1222600Y373508D01*
X1222458Y374589D01*
X1222040Y375597D01*
X1221376Y376463D01*
X1220511Y377127D01*
X1219503Y377544D01*
X1218421Y377687D01*
D02*
G37*
G36*
X1250921D02*
X1249840Y377544D01*
X1248832Y377127D01*
X1247966Y376463D01*
X1247302Y375597D01*
X1246885Y374589D01*
X1246742Y373508D01*
X1246885Y372426D01*
X1247302Y371418D01*
X1247966Y370553D01*
X1248832Y369889D01*
X1249840Y369471D01*
X1250921Y369329D01*
X1252003Y369471D01*
X1253011Y369889D01*
X1253876Y370553D01*
X1254540Y371418D01*
X1254958Y372426D01*
X1255100Y373508D01*
X1254958Y374589D01*
X1254540Y375597D01*
X1253876Y376463D01*
X1253011Y377127D01*
X1252003Y377544D01*
X1250921Y377687D01*
D02*
G37*
G36*
X1145551Y365983D02*
Y364559D01*
X1146975D01*
X1146920Y364833D01*
X1146482Y365490D01*
X1145825Y365928D01*
X1145551Y365983D01*
D02*
G37*
G36*
X1326500Y367737D02*
Y363720D01*
X1330517D01*
X1330426Y364406D01*
X1329969Y365512D01*
X1329240Y366461D01*
X1328291Y367189D01*
X1327186Y367647D01*
X1326500Y367737D01*
D02*
G37*
G36*
X1144551Y365983D02*
X1144277Y365928D01*
X1143621Y365490D01*
X1143182Y364833D01*
X1143128Y364559D01*
X1144551D01*
Y365983D01*
D02*
G37*
G36*
X1154849Y375370D02*
X1153425D01*
Y373946D01*
X1153699Y374001D01*
X1154356Y374440D01*
X1154794Y375096D01*
X1154849Y375370D01*
D02*
G37*
G36*
X1428016D02*
X1426592D01*
X1426647Y375096D01*
X1427085Y374440D01*
X1427742Y374001D01*
X1428016Y373946D01*
Y375370D01*
D02*
G37*
G36*
X1430439D02*
X1429016D01*
Y373946D01*
X1429290Y374001D01*
X1429946Y374440D01*
X1430385Y375096D01*
X1430439Y375370D01*
D02*
G37*
G36*
X1410754D02*
X1409331D01*
Y373946D01*
X1409605Y374001D01*
X1410261Y374440D01*
X1410700Y375096D01*
X1410754Y375370D01*
D02*
G37*
G36*
X1391069D02*
X1389646D01*
Y373946D01*
X1389920Y374001D01*
X1390576Y374440D01*
X1391015Y375096D01*
X1391069Y375370D01*
D02*
G37*
G36*
X1408331D02*
X1406907D01*
X1406962Y375096D01*
X1407400Y374440D01*
X1408057Y374001D01*
X1408331Y373946D01*
Y375370D01*
D02*
G37*
G36*
X1469810D02*
X1468386D01*
Y373946D01*
X1468660Y374001D01*
X1469316Y374440D01*
X1469755Y375096D01*
X1469810Y375370D01*
D02*
G37*
G36*
X1484500Y380115D02*
X1483882Y379992D01*
X1483358Y379642D01*
X1483008Y379118D01*
X1482885Y378500D01*
X1483008Y377882D01*
X1483186Y377615D01*
Y367095D01*
X1482568Y366840D01*
X1481702Y366176D01*
X1481038Y365310D01*
X1480621Y364302D01*
X1480478Y363221D01*
X1480621Y362139D01*
X1481038Y361131D01*
X1481702Y360265D01*
X1482568Y359601D01*
X1483576Y359184D01*
X1484657Y359041D01*
X1485739Y359184D01*
X1486747Y359601D01*
X1487613Y360265D01*
X1488277Y361131D01*
X1488694Y362139D01*
X1488836Y363221D01*
X1488694Y364302D01*
X1488277Y365310D01*
X1487613Y366176D01*
X1486747Y366840D01*
X1485814Y367226D01*
Y374096D01*
X1486314Y374323D01*
X1486797Y374001D01*
X1487071Y373946D01*
Y375870D01*
Y377794D01*
X1486797Y377739D01*
X1486700Y377674D01*
X1486030Y377822D01*
X1485992Y377882D01*
X1486115Y378500D01*
X1485992Y379118D01*
X1485642Y379642D01*
X1485118Y379992D01*
X1484500Y380115D01*
D02*
G37*
G36*
X1467386Y375370D02*
X1465962D01*
X1466017Y375096D01*
X1466455Y374440D01*
X1467112Y374001D01*
X1467386Y373946D01*
Y375370D01*
D02*
G37*
G36*
X1447701D02*
X1446277D01*
X1446332Y375096D01*
X1446770Y374440D01*
X1447427Y374001D01*
X1447701Y373946D01*
Y375370D01*
D02*
G37*
G36*
X1450124D02*
X1448701D01*
Y373946D01*
X1448975Y374001D01*
X1449631Y374440D01*
X1450070Y375096D01*
X1450124Y375370D01*
D02*
G37*
G36*
X1388646D02*
X1387222D01*
X1387276Y375096D01*
X1387715Y374440D01*
X1388371Y374001D01*
X1388646Y373946D01*
Y375370D01*
D02*
G37*
G36*
X1312329D02*
X1310905D01*
Y373946D01*
X1311180Y374001D01*
X1311836Y374440D01*
X1312275Y375096D01*
X1312329Y375370D01*
D02*
G37*
G36*
X1329591D02*
X1328167D01*
X1328221Y375096D01*
X1328660Y374440D01*
X1329316Y374001D01*
X1329591Y373946D01*
Y375370D01*
D02*
G37*
G36*
X1309906D02*
X1308482D01*
X1308536Y375096D01*
X1308975Y374440D01*
X1309631Y374001D01*
X1309906Y373946D01*
Y375370D01*
D02*
G37*
G36*
X1191795D02*
X1190372D01*
X1190426Y375096D01*
X1190865Y374440D01*
X1191521Y374001D01*
X1191795Y373946D01*
Y375370D01*
D02*
G37*
G36*
X1194219D02*
X1192795D01*
Y373946D01*
X1193069Y374001D01*
X1193726Y374440D01*
X1194164Y375096D01*
X1194219Y375370D01*
D02*
G37*
G36*
X1368961D02*
X1367537D01*
X1367591Y375096D01*
X1368030Y374440D01*
X1368686Y374001D01*
X1368961Y373946D01*
Y375370D01*
D02*
G37*
G36*
X1371384D02*
X1369961D01*
Y373946D01*
X1370235Y374001D01*
X1370891Y374440D01*
X1371330Y375096D01*
X1371384Y375370D01*
D02*
G37*
G36*
X1351699D02*
X1350276D01*
Y373946D01*
X1350550Y374001D01*
X1351206Y374440D01*
X1351645Y375096D01*
X1351699Y375370D01*
D02*
G37*
G36*
X1332014D02*
X1330591D01*
Y373946D01*
X1330865Y374001D01*
X1331521Y374440D01*
X1331960Y375096D01*
X1332014Y375370D01*
D02*
G37*
G36*
X1349276D02*
X1347852D01*
X1347906Y375096D01*
X1348345Y374440D01*
X1349001Y374001D01*
X1349276Y373946D01*
Y375370D01*
D02*
G37*
G36*
X1548550Y434425D02*
X1547126D01*
Y433002D01*
X1547400Y433056D01*
X1548057Y433495D01*
X1548495Y434151D01*
X1548550Y434425D01*
D02*
G37*
G36*
X1464079Y521171D02*
X1462997Y521029D01*
X1461989Y520611D01*
X1461124Y519947D01*
X1460460Y519082D01*
X1460042Y518074D01*
X1459900Y516992D01*
X1460042Y515910D01*
X1460460Y514903D01*
X1461124Y514037D01*
X1461989Y513373D01*
X1462997Y512956D01*
X1464079Y512813D01*
X1465160Y512956D01*
X1466168Y513373D01*
X1467034Y514037D01*
X1467698Y514903D01*
X1468115Y515910D01*
X1468258Y516992D01*
X1468115Y518074D01*
X1467698Y519082D01*
X1467034Y519947D01*
X1466168Y520611D01*
X1465160Y521029D01*
X1464079Y521171D01*
D02*
G37*
G36*
X1085496Y515589D02*
X1085222Y515534D01*
X1084566Y515096D01*
X1084127Y514440D01*
X1084072Y514165D01*
X1085496D01*
Y515589D01*
D02*
G37*
G36*
X1386579Y521171D02*
X1385497Y521029D01*
X1384489Y520611D01*
X1383624Y519947D01*
X1382960Y519082D01*
X1382542Y518074D01*
X1382400Y516992D01*
X1382542Y515910D01*
X1382960Y514903D01*
X1383624Y514037D01*
X1384489Y513373D01*
X1385497Y512956D01*
X1386579Y512813D01*
X1387660Y512956D01*
X1388668Y513373D01*
X1389534Y514037D01*
X1390198Y514903D01*
X1390615Y515910D01*
X1390758Y516992D01*
X1390615Y518074D01*
X1390198Y519082D01*
X1389534Y519947D01*
X1388668Y520611D01*
X1387660Y521029D01*
X1386579Y521171D01*
D02*
G37*
G36*
X1177079D02*
X1175997Y521029D01*
X1174989Y520611D01*
X1174124Y519947D01*
X1173844Y519583D01*
X1171992D01*
X1171322Y519494D01*
X1170697Y519236D01*
X1170160Y518824D01*
X1160427Y509091D01*
X1127000D01*
X1126408Y509013D01*
X1126330Y509002D01*
X1125705Y508744D01*
X1125168Y508332D01*
X1114668Y497832D01*
X1114256Y497295D01*
X1113998Y496670D01*
X1113909Y496000D01*
Y469073D01*
X1113668Y468832D01*
X1113256Y468295D01*
X1112998Y467670D01*
X1112909Y467000D01*
Y433587D01*
X1112998Y432916D01*
X1113256Y432291D01*
X1113668Y431755D01*
X1171460Y373963D01*
X1171400Y373508D01*
X1171542Y372426D01*
X1171960Y371418D01*
X1172624Y370553D01*
X1173489Y369889D01*
X1174497Y369471D01*
X1175579Y369329D01*
X1176660Y369471D01*
X1177668Y369889D01*
X1178534Y370553D01*
X1179198Y371418D01*
X1179615Y372426D01*
X1179758Y373508D01*
X1179615Y374589D01*
X1179198Y375597D01*
X1178534Y376463D01*
X1177668Y377127D01*
X1176660Y377544D01*
X1175579Y377687D01*
X1175123Y377627D01*
X1118091Y434660D01*
Y465927D01*
X1118332Y466168D01*
X1118744Y466705D01*
X1118851Y466963D01*
X1119002Y467330D01*
X1119091Y468000D01*
Y494927D01*
X1128073Y503909D01*
X1161500D01*
X1162171Y503998D01*
X1162795Y504256D01*
X1163332Y504668D01*
X1173065Y514401D01*
X1173844D01*
X1174124Y514037D01*
X1174989Y513373D01*
X1175997Y512956D01*
X1177079Y512813D01*
X1178160Y512956D01*
X1179168Y513373D01*
X1180034Y514037D01*
X1180698Y514903D01*
X1181115Y515910D01*
X1181258Y516992D01*
X1181115Y518074D01*
X1180698Y519082D01*
X1180034Y519947D01*
X1179168Y520611D01*
X1178160Y521029D01*
X1177079Y521171D01*
D02*
G37*
G36*
X1308079D02*
X1306997Y521029D01*
X1305989Y520611D01*
X1305124Y519947D01*
X1304460Y519082D01*
X1304042Y518074D01*
X1303900Y516992D01*
X1304042Y515910D01*
X1304460Y514903D01*
X1305124Y514037D01*
X1305989Y513373D01*
X1306997Y512956D01*
X1308079Y512813D01*
X1309160Y512956D01*
X1310168Y513373D01*
X1311034Y514037D01*
X1311698Y514903D01*
X1312115Y515910D01*
X1312258Y516992D01*
X1312115Y518074D01*
X1311698Y519082D01*
X1311034Y519947D01*
X1310168Y520611D01*
X1309160Y521029D01*
X1308079Y521171D01*
D02*
G37*
G36*
X1192795Y515589D02*
Y514165D01*
X1194219D01*
X1194164Y514440D01*
X1193726Y515096D01*
X1193069Y515534D01*
X1192795Y515589D01*
D02*
G37*
G36*
X1211480D02*
X1211206Y515534D01*
X1210550Y515096D01*
X1210111Y514440D01*
X1210057Y514165D01*
X1211480D01*
Y515589D01*
D02*
G37*
G36*
X1121929D02*
Y514165D01*
X1123353D01*
X1123298Y514440D01*
X1122860Y515096D01*
X1122203Y515534D01*
X1121929Y515589D01*
D02*
G37*
G36*
X1086496D02*
Y514165D01*
X1087920D01*
X1087865Y514440D01*
X1087427Y515096D01*
X1086770Y515534D01*
X1086496Y515589D01*
D02*
G37*
G36*
X1120929D02*
X1120655Y515534D01*
X1119999Y515096D01*
X1119560Y514440D01*
X1119506Y514165D01*
X1120929D01*
Y515589D01*
D02*
G37*
G36*
X1400938Y516492D02*
X1396921D01*
Y512475D01*
X1397607Y512566D01*
X1398713Y513024D01*
X1399662Y513752D01*
X1400390Y514701D01*
X1400848Y515806D01*
X1400938Y516492D01*
D02*
G37*
G36*
X1568235Y513165D02*
X1566811D01*
Y511742D01*
X1567085Y511796D01*
X1567742Y512235D01*
X1568180Y512891D01*
X1568235Y513165D01*
D02*
G37*
G36*
X1585496D02*
X1584072D01*
X1584127Y512891D01*
X1584566Y512235D01*
X1585222Y511796D01*
X1585496Y511742D01*
Y513165D01*
D02*
G37*
G36*
X1565811D02*
X1564387D01*
X1564442Y512891D01*
X1564880Y512235D01*
X1565537Y511796D01*
X1565811Y511742D01*
Y513165D01*
D02*
G37*
G36*
X1546126D02*
X1544702D01*
X1544757Y512891D01*
X1545195Y512235D01*
X1545852Y511796D01*
X1546126Y511742D01*
Y513165D01*
D02*
G37*
G36*
X1548550D02*
X1547126D01*
Y511742D01*
X1547400Y511796D01*
X1548057Y512235D01*
X1548495Y512891D01*
X1548550Y513165D01*
D02*
G37*
G36*
X1322438Y516492D02*
X1318421D01*
Y512475D01*
X1319107Y512566D01*
X1320212Y513024D01*
X1321162Y513752D01*
X1321890Y514701D01*
X1322348Y515806D01*
X1322438Y516492D01*
D02*
G37*
G36*
X1395921D02*
X1391905D01*
X1391995Y515806D01*
X1392453Y514701D01*
X1393181Y513752D01*
X1394130Y513024D01*
X1395235Y512566D01*
X1395921Y512475D01*
Y516492D01*
D02*
G37*
G36*
X1317421D02*
X1313405D01*
X1313495Y515806D01*
X1313953Y514701D01*
X1314681Y513752D01*
X1315630Y513024D01*
X1316735Y512566D01*
X1317421Y512475D01*
Y516492D01*
D02*
G37*
G36*
X1587920Y513165D02*
X1586496D01*
Y511742D01*
X1586770Y511796D01*
X1587427Y512235D01*
X1587865Y512891D01*
X1587920Y513165D01*
D02*
G37*
G36*
X1186421Y516492D02*
X1182405D01*
X1182495Y515806D01*
X1182953Y514701D01*
X1183681Y513752D01*
X1184630Y513024D01*
X1185735Y512566D01*
X1186421Y512475D01*
Y516492D01*
D02*
G37*
G36*
X1212480Y515589D02*
Y514165D01*
X1213904D01*
X1213849Y514440D01*
X1213411Y515096D01*
X1212755Y515534D01*
X1212480Y515589D01*
D02*
G37*
G36*
X1447701D02*
X1447427Y515534D01*
X1446770Y515096D01*
X1446332Y514440D01*
X1446277Y514165D01*
X1447701D01*
Y515589D01*
D02*
G37*
G36*
X1448701D02*
Y514165D01*
X1450124D01*
X1450070Y514440D01*
X1449631Y515096D01*
X1448975Y515534D01*
X1448701Y515589D01*
D02*
G37*
G36*
X1429016D02*
Y514165D01*
X1430439D01*
X1430385Y514440D01*
X1429946Y515096D01*
X1429290Y515534D01*
X1429016Y515589D01*
D02*
G37*
G36*
X1409331D02*
Y514165D01*
X1410754D01*
X1410700Y514440D01*
X1410261Y515096D01*
X1409605Y515534D01*
X1409331Y515589D01*
D02*
G37*
G36*
X1428016D02*
X1427742Y515534D01*
X1427085Y515096D01*
X1426647Y514440D01*
X1426592Y514165D01*
X1428016D01*
Y515589D01*
D02*
G37*
G36*
X1507756D02*
Y514165D01*
X1509180D01*
X1509125Y514440D01*
X1508687Y515096D01*
X1508030Y515534D01*
X1507756Y515589D01*
D02*
G37*
G36*
X1526441D02*
X1526167Y515534D01*
X1525510Y515096D01*
X1525072Y514440D01*
X1525017Y514165D01*
X1526441D01*
Y515589D01*
D02*
G37*
G36*
X1506756D02*
X1506482Y515534D01*
X1505825Y515096D01*
X1505387Y514440D01*
X1505332Y514165D01*
X1506756D01*
Y515589D01*
D02*
G37*
G36*
X1487071D02*
X1486797Y515534D01*
X1486140Y515096D01*
X1485702Y514440D01*
X1485647Y514165D01*
X1487071D01*
Y515589D01*
D02*
G37*
G36*
X1488071D02*
Y514165D01*
X1489495D01*
X1489440Y514440D01*
X1489001Y515096D01*
X1488345Y515534D01*
X1488071Y515589D01*
D02*
G37*
G36*
X1408331D02*
X1408057Y515534D01*
X1407400Y515096D01*
X1406962Y514440D01*
X1406907Y514165D01*
X1408331D01*
Y515589D01*
D02*
G37*
G36*
X1291220D02*
Y514165D01*
X1292644D01*
X1292590Y514440D01*
X1292151Y515096D01*
X1291495Y515534D01*
X1291220Y515589D01*
D02*
G37*
G36*
X1329591D02*
X1329316Y515534D01*
X1328660Y515096D01*
X1328221Y514440D01*
X1328167Y514165D01*
X1329591D01*
Y515589D01*
D02*
G37*
G36*
X1290221D02*
X1289946Y515534D01*
X1289290Y515096D01*
X1288851Y514440D01*
X1288797Y514165D01*
X1290221D01*
Y515589D01*
D02*
G37*
G36*
X1231165D02*
X1230891Y515534D01*
X1230235Y515096D01*
X1229796Y514440D01*
X1229742Y514165D01*
X1231165D01*
Y515589D01*
D02*
G37*
G36*
X1232165D02*
Y514165D01*
X1233589D01*
X1233535Y514440D01*
X1233096Y515096D01*
X1232440Y515534D01*
X1232165Y515589D01*
D02*
G37*
G36*
X1368961D02*
X1368686Y515534D01*
X1368030Y515096D01*
X1367591Y514440D01*
X1367537Y514165D01*
X1368961D01*
Y515589D01*
D02*
G37*
G36*
X1369961D02*
Y514165D01*
X1371384D01*
X1371330Y514440D01*
X1370891Y515096D01*
X1370235Y515534D01*
X1369961Y515589D01*
D02*
G37*
G36*
X1350276D02*
Y514165D01*
X1351699D01*
X1351645Y514440D01*
X1351206Y515096D01*
X1350550Y515534D01*
X1350276Y515589D01*
D02*
G37*
G36*
X1330591D02*
Y514165D01*
X1332014D01*
X1331960Y514440D01*
X1331521Y515096D01*
X1330865Y515534D01*
X1330591Y515589D01*
D02*
G37*
G36*
X1349276D02*
X1349001Y515534D01*
X1348345Y515096D01*
X1347906Y514440D01*
X1347852Y514165D01*
X1349276D01*
Y515589D01*
D02*
G37*
G36*
X1528865Y513165D02*
X1527441D01*
Y511742D01*
X1527715Y511796D01*
X1528372Y512235D01*
X1528810Y512891D01*
X1528865Y513165D01*
D02*
G37*
G36*
X1085496D02*
X1084072D01*
X1084127Y512891D01*
X1084566Y512235D01*
X1085222Y511796D01*
X1085496Y511742D01*
Y513165D01*
D02*
G37*
G36*
X1087920D02*
X1086496D01*
Y511742D01*
X1086770Y511796D01*
X1087427Y512235D01*
X1087865Y512891D01*
X1087920Y513165D01*
D02*
G37*
G36*
X1086496Y499841D02*
Y498417D01*
X1087920D01*
X1087865Y498692D01*
X1087427Y499348D01*
X1086770Y499786D01*
X1086496Y499841D01*
D02*
G37*
G36*
X1087920Y497417D02*
X1086496D01*
Y495994D01*
X1086770Y496048D01*
X1087427Y496487D01*
X1087865Y497143D01*
X1087920Y497417D01*
D02*
G37*
G36*
X1085496Y499841D02*
X1085222Y499786D01*
X1084566Y499348D01*
X1084127Y498692D01*
X1084072Y498417D01*
X1085496D01*
Y499841D01*
D02*
G37*
G36*
X1194219Y513165D02*
X1192795D01*
Y511742D01*
X1193069Y511796D01*
X1193726Y512235D01*
X1194164Y512891D01*
X1194219Y513165D01*
D02*
G37*
G36*
X1211480D02*
X1210057D01*
X1210111Y512891D01*
X1210550Y512235D01*
X1211206Y511796D01*
X1211480Y511742D01*
Y513165D01*
D02*
G37*
G36*
X1191438Y516492D02*
X1187421D01*
Y512475D01*
X1188107Y512566D01*
X1189213Y513024D01*
X1189800Y513475D01*
X1190351Y513267D01*
X1190426Y512891D01*
X1190865Y512235D01*
X1191521Y511796D01*
X1191795Y511742D01*
Y513665D01*
Y515592D01*
X1191696Y515639D01*
X1191372Y515990D01*
X1191438Y516492D01*
D02*
G37*
G36*
X1120929Y513165D02*
X1119506D01*
X1119560Y512891D01*
X1119999Y512235D01*
X1120655Y511796D01*
X1120929Y511742D01*
Y513165D01*
D02*
G37*
G36*
X1123353D02*
X1121929D01*
Y511742D01*
X1122203Y511796D01*
X1122860Y512235D01*
X1123298Y512891D01*
X1123353Y513165D01*
D02*
G37*
G36*
X1085496Y497417D02*
X1084072D01*
X1084127Y497143D01*
X1084566Y496487D01*
X1085222Y496048D01*
X1085496Y495994D01*
Y497417D01*
D02*
G37*
G36*
X1236000Y501131D02*
X1235060Y501007D01*
X1234184Y500645D01*
X1233432Y500068D01*
X1232855Y499316D01*
X1232493Y498440D01*
X1232369Y497500D01*
X1232493Y496560D01*
X1232855Y495684D01*
X1233432Y494932D01*
X1234184Y494355D01*
X1235060Y493993D01*
X1236000Y493869D01*
X1236940Y493993D01*
X1237815Y494355D01*
X1238568Y494932D01*
X1239145Y495684D01*
X1239507Y496560D01*
X1239631Y497500D01*
X1239507Y498440D01*
X1239145Y499316D01*
X1238568Y500068D01*
X1237815Y500645D01*
X1236940Y501007D01*
X1236000Y501131D01*
D02*
G37*
G36*
X1246000D02*
X1245060Y501007D01*
X1244184Y500645D01*
X1243433Y500068D01*
X1242855Y499316D01*
X1242493Y498440D01*
X1242369Y497500D01*
X1242493Y496560D01*
X1242855Y495684D01*
X1243433Y494932D01*
X1244184Y494355D01*
X1245060Y493993D01*
X1246000Y493869D01*
X1246940Y493993D01*
X1247816Y494355D01*
X1248567Y494932D01*
X1249145Y495684D01*
X1249507Y496560D01*
X1249631Y497500D01*
X1249507Y498440D01*
X1249145Y499316D01*
X1248567Y500068D01*
X1247816Y500645D01*
X1246940Y501007D01*
X1246000Y501131D01*
D02*
G37*
G36*
X1226000D02*
X1225060Y501007D01*
X1224185Y500645D01*
X1223433Y500068D01*
X1222855Y499316D01*
X1222493Y498440D01*
X1222369Y497500D01*
X1222493Y496560D01*
X1222855Y495684D01*
X1223433Y494932D01*
X1224185Y494355D01*
X1225060Y493993D01*
X1226000Y493869D01*
X1226940Y493993D01*
X1227816Y494355D01*
X1228568Y494932D01*
X1229145Y495684D01*
X1229507Y496560D01*
X1229631Y497500D01*
X1229507Y498440D01*
X1229145Y499316D01*
X1228568Y500068D01*
X1227816Y500645D01*
X1226940Y501007D01*
X1226000Y501131D01*
D02*
G37*
G36*
X1250000Y522115D02*
X1249382Y521992D01*
X1248858Y521642D01*
X1248508Y521118D01*
X1248385Y520500D01*
X1248508Y519882D01*
X1248858Y519358D01*
X1249382Y519008D01*
X1250000Y518885D01*
X1250618Y519008D01*
X1250885Y519186D01*
X1259956D01*
X1283546Y495595D01*
X1283537Y495502D01*
X1283349Y495085D01*
X1282882Y494992D01*
X1282358Y494642D01*
X1282008Y494118D01*
X1281885Y493500D01*
X1281891Y493466D01*
X1280983Y492558D01*
X1280405Y492687D01*
X1280390Y492729D01*
X1280492Y492882D01*
X1280615Y493500D01*
X1280492Y494118D01*
X1280142Y494642D01*
X1279618Y494992D01*
X1279000Y495115D01*
X1278382Y494992D01*
X1277858Y494642D01*
X1277508Y494118D01*
X1277385Y493500D01*
X1277508Y492882D01*
X1277858Y492358D01*
X1277886Y492339D01*
Y480961D01*
X1273213Y476287D01*
X1272971Y475926D01*
X1272886Y475500D01*
Y474161D01*
X1272858Y474142D01*
X1272508Y473618D01*
X1272385Y473000D01*
X1272508Y472382D01*
X1272858Y471858D01*
X1273382Y471508D01*
X1274000Y471385D01*
X1274618Y471508D01*
X1275142Y471858D01*
X1275492Y472382D01*
X1275615Y473000D01*
X1275492Y473618D01*
X1275142Y474142D01*
X1275113Y474161D01*
Y475039D01*
X1279787Y479713D01*
X1279887Y479861D01*
X1280387Y479709D01*
Y472161D01*
X1280358Y472142D01*
X1280008Y471618D01*
X1279885Y471000D01*
X1280008Y470382D01*
X1280053Y470314D01*
X1279786Y469814D01*
X1260500D01*
X1259997Y469714D01*
X1259571Y469429D01*
X1240149Y450008D01*
X1239865Y449582D01*
X1239764Y449079D01*
Y377448D01*
X1238989Y377127D01*
X1238124Y376463D01*
X1237460Y375597D01*
X1237042Y374589D01*
X1236900Y373508D01*
X1237042Y372426D01*
X1237460Y371418D01*
X1238124Y370553D01*
X1238989Y369889D01*
X1239997Y369471D01*
X1241079Y369329D01*
X1242160Y369471D01*
X1243168Y369889D01*
X1244034Y370553D01*
X1244698Y371418D01*
X1245115Y372426D01*
X1245258Y373508D01*
X1245115Y374589D01*
X1244698Y375597D01*
X1244034Y376463D01*
X1243168Y377127D01*
X1242393Y377448D01*
Y448534D01*
X1248904Y455046D01*
X1249365Y454799D01*
X1249327Y454610D01*
X1249481Y453836D01*
X1249920Y453180D01*
X1250576Y452741D01*
X1250850Y452687D01*
Y454610D01*
X1251350D01*
Y455110D01*
X1253274D01*
X1253220Y455384D01*
X1252781Y456041D01*
X1252125Y456479D01*
X1251350Y456633D01*
X1251161Y456596D01*
X1250915Y457057D01*
X1261044Y467186D01*
X1300500D01*
X1301003Y467286D01*
X1301429Y467571D01*
X1305804Y471945D01*
X1306118Y472008D01*
X1306642Y472358D01*
X1306992Y472882D01*
X1307115Y473500D01*
X1306992Y474118D01*
X1306642Y474642D01*
X1306118Y474992D01*
X1305500Y475115D01*
X1304882Y474992D01*
X1304358Y474642D01*
X1304008Y474118D01*
X1303945Y473804D01*
X1299956Y469814D01*
X1283214D01*
X1282947Y470314D01*
X1282992Y470382D01*
X1283115Y471000D01*
X1282992Y471618D01*
X1282642Y472142D01*
X1282613Y472161D01*
Y491039D01*
X1283466Y491891D01*
X1283500Y491885D01*
X1284118Y492008D01*
X1284642Y492358D01*
X1284992Y492882D01*
X1285115Y493500D01*
X1285063Y493763D01*
X1285488Y494188D01*
X1285500Y494186D01*
X1289456D01*
X1308686Y474956D01*
Y468500D01*
X1308786Y467997D01*
X1309071Y467571D01*
X1310145Y466497D01*
X1309898Y466036D01*
X1309500Y466115D01*
X1308882Y465992D01*
X1308471Y466319D01*
X1308492Y466421D01*
X1308338Y467196D01*
X1307899Y467852D01*
X1307243Y468290D01*
X1306968Y468345D01*
Y466421D01*
Y464403D01*
X1307169Y464028D01*
X1299456Y456314D01*
X1290385D01*
X1290118Y456492D01*
X1289500Y456615D01*
X1288882Y456492D01*
X1288358Y456142D01*
X1288008Y455618D01*
X1287885Y455000D01*
X1288008Y454382D01*
X1288358Y453858D01*
X1288723Y453614D01*
X1288572Y453114D01*
X1287961D01*
X1286609Y454466D01*
X1286615Y454500D01*
X1286492Y455118D01*
X1286142Y455642D01*
X1285618Y455992D01*
X1285000Y456115D01*
X1284382Y455992D01*
X1283858Y455642D01*
X1283508Y455118D01*
X1283385Y454500D01*
X1283508Y453882D01*
X1283858Y453358D01*
X1284382Y453008D01*
X1285000Y452885D01*
X1285034Y452891D01*
X1286713Y451213D01*
X1286713Y451213D01*
X1287074Y450971D01*
X1287500Y450886D01*
X1304000D01*
X1304426Y450971D01*
X1304787Y451213D01*
X1312966Y459391D01*
X1313000Y459385D01*
X1313618Y459508D01*
X1314142Y459858D01*
X1314492Y460382D01*
X1314615Y461000D01*
X1314536Y461398D01*
X1314997Y461645D01*
X1320186Y456456D01*
Y443385D01*
X1320008Y443118D01*
X1319885Y442500D01*
X1320008Y441882D01*
X1320358Y441358D01*
X1320882Y441008D01*
X1321500Y440885D01*
X1322118Y441008D01*
X1322642Y441358D01*
X1322992Y441882D01*
X1323115Y442500D01*
X1322992Y443118D01*
X1322814Y443385D01*
Y457000D01*
X1322714Y457503D01*
X1322429Y457929D01*
X1313356Y467003D01*
X1313602Y467464D01*
X1314000Y467385D01*
X1314618Y467508D01*
X1315142Y467858D01*
X1315492Y468382D01*
X1315555Y468696D01*
X1322544Y475686D01*
X1367473D01*
X1367709Y475245D01*
X1367591Y475070D01*
X1367537Y474795D01*
X1371384D01*
X1371330Y475070D01*
X1371213Y475245D01*
X1371448Y475686D01*
X1406843D01*
X1407079Y475245D01*
X1406962Y475070D01*
X1406907Y474795D01*
X1410754D01*
X1410700Y475070D01*
X1410583Y475245D01*
X1410818Y475686D01*
X1494956D01*
X1520571Y450071D01*
X1520997Y449786D01*
X1521500Y449686D01*
X1529223D01*
X1529276Y449614D01*
X1529025Y449114D01*
X1519961D01*
X1495787Y473287D01*
X1495426Y473529D01*
X1495000Y473614D01*
X1435000D01*
X1434574Y473529D01*
X1434213Y473287D01*
X1434213Y473287D01*
X1429039Y468114D01*
X1423008D01*
X1422838Y468613D01*
X1423298Y468966D01*
X1423867Y469708D01*
X1424225Y470573D01*
X1424347Y471500D01*
X1424225Y472428D01*
X1423867Y473292D01*
X1423298Y474034D01*
X1422556Y474603D01*
X1421691Y474961D01*
X1420764Y475083D01*
X1419836Y474961D01*
X1418972Y474603D01*
X1418230Y474034D01*
X1417661Y473292D01*
X1417303Y472428D01*
X1417180Y471500D01*
X1417303Y470573D01*
X1417661Y469708D01*
X1418230Y468966D01*
X1418690Y468613D01*
X1418520Y468114D01*
X1393480D01*
X1393311Y468613D01*
X1393770Y468966D01*
X1394339Y469708D01*
X1394697Y470573D01*
X1394820Y471500D01*
X1394697Y472428D01*
X1394339Y473292D01*
X1393770Y474034D01*
X1393028Y474603D01*
X1392164Y474961D01*
X1391236Y475083D01*
X1390309Y474961D01*
X1389445Y474603D01*
X1388702Y474034D01*
X1388133Y473292D01*
X1387775Y472428D01*
X1387653Y471500D01*
X1387775Y470573D01*
X1388133Y469708D01*
X1388702Y468966D01*
X1389162Y468613D01*
X1388992Y468114D01*
X1319000D01*
X1318574Y468029D01*
X1318213Y467787D01*
X1318034Y467609D01*
X1318000Y467615D01*
X1317382Y467492D01*
X1316858Y467142D01*
X1316508Y466618D01*
X1316385Y466000D01*
X1316508Y465382D01*
X1316858Y464858D01*
X1317382Y464508D01*
X1318000Y464385D01*
X1318618Y464508D01*
X1319142Y464858D01*
X1319492Y465382D01*
X1319593Y465886D01*
X1429500D01*
X1429926Y465971D01*
X1430287Y466213D01*
X1435461Y471386D01*
X1473505D01*
X1473842Y470887D01*
X1473836Y470858D01*
X1477684D01*
X1477678Y470887D01*
X1478015Y471386D01*
X1494539D01*
X1518713Y447213D01*
X1519074Y446971D01*
X1519500Y446886D01*
X1531839D01*
X1531858Y446858D01*
X1532382Y446508D01*
X1533000Y446385D01*
X1533618Y446508D01*
X1534142Y446858D01*
X1534492Y447382D01*
X1534615Y448000D01*
X1534492Y448618D01*
X1534142Y449142D01*
X1533618Y449492D01*
X1533000Y449615D01*
X1532382Y449492D01*
X1531898Y449169D01*
X1531594Y449224D01*
X1531485Y449753D01*
X1531642Y449858D01*
X1531992Y450382D01*
X1532115Y451000D01*
X1531992Y451618D01*
X1531642Y452142D01*
X1531118Y452492D01*
X1530500Y452615D01*
X1529882Y452492D01*
X1529615Y452314D01*
X1522044D01*
X1496429Y477929D01*
X1496003Y478214D01*
X1495500Y478314D01*
X1465401D01*
X1465250Y478814D01*
X1465773Y479164D01*
X1466212Y479820D01*
X1466266Y480094D01*
X1462419D01*
X1462473Y479820D01*
X1462912Y479164D01*
X1463435Y478814D01*
X1463284Y478314D01*
X1423269D01*
X1423100Y478814D01*
X1423298Y478966D01*
X1423867Y479708D01*
X1424225Y480573D01*
X1424347Y481500D01*
X1424225Y482428D01*
X1423867Y483292D01*
X1423298Y484034D01*
X1422556Y484603D01*
X1421691Y484961D01*
X1420764Y485083D01*
X1419836Y484961D01*
X1418972Y484603D01*
X1418230Y484034D01*
X1417661Y483292D01*
X1417303Y482428D01*
X1417180Y481500D01*
X1417303Y480573D01*
X1417661Y479708D01*
X1418230Y478966D01*
X1418428Y478814D01*
X1418258Y478314D01*
X1393742D01*
X1393572Y478814D01*
X1393770Y478966D01*
X1394339Y479708D01*
X1394697Y480573D01*
X1394820Y481500D01*
X1394697Y482428D01*
X1394339Y483292D01*
X1393770Y484034D01*
X1393028Y484603D01*
X1392164Y484961D01*
X1391236Y485083D01*
X1390309Y484961D01*
X1389445Y484603D01*
X1388702Y484034D01*
X1388133Y483292D01*
X1387775Y482428D01*
X1387653Y481500D01*
X1387775Y480573D01*
X1388133Y479708D01*
X1388702Y478966D01*
X1388900Y478814D01*
X1388731Y478314D01*
X1322000D01*
X1321497Y478214D01*
X1321071Y477929D01*
X1313696Y470555D01*
X1313382Y470492D01*
X1312858Y470142D01*
X1312508Y469618D01*
X1312385Y469000D01*
X1312464Y468602D01*
X1312003Y468356D01*
X1311314Y469044D01*
Y475500D01*
X1311214Y476003D01*
X1310929Y476429D01*
X1290929Y496429D01*
X1290503Y496714D01*
X1290000Y496814D01*
X1286044D01*
X1261429Y521429D01*
X1261003Y521714D01*
X1260500Y521814D01*
X1250885D01*
X1250618Y521992D01*
X1250000Y522115D01*
D02*
G37*
G36*
X1216000Y501131D02*
X1215060Y501007D01*
X1214184Y500645D01*
X1213433Y500068D01*
X1212855Y499316D01*
X1212493Y498440D01*
X1212369Y497500D01*
X1212493Y496560D01*
X1212855Y495684D01*
X1213433Y494932D01*
X1214184Y494355D01*
X1215060Y493993D01*
X1216000Y493869D01*
X1216940Y493993D01*
X1217815Y494355D01*
X1218567Y494932D01*
X1219145Y495684D01*
X1219507Y496560D01*
X1219631Y497500D01*
X1219507Y498440D01*
X1219145Y499316D01*
X1218567Y500068D01*
X1217815Y500645D01*
X1216940Y501007D01*
X1216000Y501131D01*
D02*
G37*
G36*
X1585496Y495904D02*
X1585222Y495849D01*
X1584566Y495411D01*
X1584127Y494755D01*
X1584072Y494480D01*
X1585496D01*
Y495904D01*
D02*
G37*
G36*
X1586496D02*
Y494480D01*
X1587920D01*
X1587865Y494755D01*
X1587427Y495411D01*
X1586770Y495849D01*
X1586496Y495904D01*
D02*
G37*
G36*
X1566811D02*
Y494480D01*
X1568235D01*
X1568180Y494755D01*
X1567742Y495411D01*
X1567085Y495849D01*
X1566811Y495904D01*
D02*
G37*
G36*
X1256000Y501131D02*
X1255060Y501007D01*
X1254185Y500645D01*
X1253432Y500068D01*
X1252855Y499316D01*
X1252493Y498440D01*
X1252369Y497500D01*
X1252493Y496560D01*
X1252855Y495684D01*
X1253432Y494932D01*
X1254185Y494355D01*
X1255060Y493993D01*
X1256000Y493869D01*
X1256940Y493993D01*
X1257815Y494355D01*
X1258568Y494932D01*
X1259145Y495684D01*
X1259507Y496560D01*
X1259631Y497500D01*
X1259507Y498440D01*
X1259145Y499316D01*
X1258568Y500068D01*
X1257815Y500645D01*
X1256940Y501007D01*
X1256000Y501131D01*
D02*
G37*
G36*
X1565811Y495904D02*
X1565537Y495849D01*
X1564880Y495411D01*
X1564442Y494755D01*
X1564387Y494480D01*
X1565811D01*
Y495904D01*
D02*
G37*
G36*
X1213904Y513165D02*
X1212480D01*
Y511742D01*
X1212755Y511796D01*
X1213411Y512235D01*
X1213849Y512891D01*
X1213904Y513165D01*
D02*
G37*
G36*
X1447701D02*
X1446277D01*
X1446332Y512891D01*
X1446770Y512235D01*
X1447427Y511796D01*
X1447701Y511742D01*
Y513165D01*
D02*
G37*
G36*
X1450124D02*
X1448701D01*
Y511742D01*
X1448975Y511796D01*
X1449631Y512235D01*
X1450070Y512891D01*
X1450124Y513165D01*
D02*
G37*
G36*
X1430439D02*
X1429016D01*
Y511742D01*
X1429290Y511796D01*
X1429946Y512235D01*
X1430385Y512891D01*
X1430439Y513165D01*
D02*
G37*
G36*
X1410754D02*
X1409331D01*
Y511742D01*
X1409605Y511796D01*
X1410261Y512235D01*
X1410700Y512891D01*
X1410754Y513165D01*
D02*
G37*
G36*
X1428016D02*
X1426592D01*
X1426647Y512891D01*
X1427085Y512235D01*
X1427742Y511796D01*
X1428016Y511742D01*
Y513165D01*
D02*
G37*
G36*
X1509180D02*
X1507756D01*
Y511742D01*
X1508030Y511796D01*
X1508687Y512235D01*
X1509125Y512891D01*
X1509180Y513165D01*
D02*
G37*
G36*
X1526441D02*
X1525017D01*
X1525072Y512891D01*
X1525510Y512235D01*
X1526167Y511796D01*
X1526441Y511742D01*
Y513165D01*
D02*
G37*
G36*
X1506756D02*
X1505332D01*
X1505387Y512891D01*
X1505825Y512235D01*
X1506482Y511796D01*
X1506756Y511742D01*
Y513165D01*
D02*
G37*
G36*
X1487071D02*
X1485647D01*
X1485702Y512891D01*
X1486140Y512235D01*
X1486797Y511796D01*
X1487071Y511742D01*
Y513165D01*
D02*
G37*
G36*
X1489495D02*
X1488071D01*
Y511742D01*
X1488345Y511796D01*
X1489001Y512235D01*
X1489440Y512891D01*
X1489495Y513165D01*
D02*
G37*
G36*
X1408331D02*
X1406907D01*
X1406962Y512891D01*
X1407400Y512235D01*
X1408057Y511796D01*
X1408331Y511742D01*
Y513165D01*
D02*
G37*
G36*
X1292644D02*
X1291220D01*
Y511742D01*
X1291495Y511796D01*
X1292151Y512235D01*
X1292590Y512891D01*
X1292644Y513165D01*
D02*
G37*
G36*
X1329591D02*
X1328167D01*
X1328221Y512891D01*
X1328660Y512235D01*
X1329316Y511796D01*
X1329591Y511742D01*
Y513165D01*
D02*
G37*
G36*
X1290221D02*
X1288797D01*
X1288851Y512891D01*
X1289290Y512235D01*
X1289946Y511796D01*
X1290221Y511742D01*
Y513165D01*
D02*
G37*
G36*
X1231165D02*
X1229742D01*
X1229796Y512891D01*
X1230235Y512235D01*
X1230891Y511796D01*
X1231165Y511742D01*
Y513165D01*
D02*
G37*
G36*
X1233589D02*
X1232165D01*
Y511742D01*
X1232440Y511796D01*
X1233096Y512235D01*
X1233535Y512891D01*
X1233589Y513165D01*
D02*
G37*
G36*
X1368961D02*
X1367537D01*
X1367591Y512891D01*
X1368030Y512235D01*
X1368686Y511796D01*
X1368961Y511742D01*
Y513165D01*
D02*
G37*
G36*
X1371384D02*
X1369961D01*
Y511742D01*
X1370235Y511796D01*
X1370891Y512235D01*
X1371330Y512891D01*
X1371384Y513165D01*
D02*
G37*
G36*
X1351699D02*
X1350276D01*
Y511742D01*
X1350550Y511796D01*
X1351206Y512235D01*
X1351645Y512891D01*
X1351699Y513165D01*
D02*
G37*
G36*
X1332014D02*
X1330591D01*
Y511742D01*
X1330865Y511796D01*
X1331521Y512235D01*
X1331960Y512891D01*
X1332014Y513165D01*
D02*
G37*
G36*
X1349276D02*
X1347852D01*
X1347906Y512891D01*
X1348345Y512235D01*
X1349001Y511796D01*
X1349276Y511742D01*
Y513165D01*
D02*
G37*
G36*
X1527441Y515589D02*
Y514165D01*
X1528865D01*
X1528810Y514440D01*
X1528372Y515096D01*
X1527715Y515534D01*
X1527441Y515589D01*
D02*
G37*
G36*
X1074685Y544187D02*
Y533850D01*
X1085022D01*
X1084927Y535052D01*
X1084529Y536711D01*
X1083876Y538288D01*
X1082984Y539743D01*
X1081876Y541041D01*
X1080578Y542149D01*
X1079123Y543041D01*
X1077546Y543694D01*
X1075886Y544093D01*
X1074685Y544187D01*
D02*
G37*
G36*
X1120929Y535274D02*
X1120655Y535219D01*
X1119999Y534781D01*
X1119560Y534125D01*
X1119506Y533850D01*
X1120929D01*
Y535274D01*
D02*
G37*
G36*
X1073685Y544187D02*
X1072484Y544093D01*
X1070824Y543694D01*
X1069247Y543041D01*
X1067792Y542149D01*
X1066494Y541041D01*
X1065386Y539743D01*
X1064494Y538288D01*
X1063841Y536711D01*
X1063443Y535052D01*
X1063348Y533850D01*
X1073685D01*
Y544187D01*
D02*
G37*
G36*
X1565811Y532850D02*
X1564387D01*
X1564442Y532576D01*
X1564880Y531920D01*
X1565537Y531481D01*
X1565811Y531427D01*
Y532850D01*
D02*
G37*
G36*
X1568235D02*
X1566811D01*
Y531427D01*
X1567085Y531481D01*
X1567742Y531920D01*
X1568180Y532576D01*
X1568235Y532850D01*
D02*
G37*
G36*
X1250850Y535274D02*
X1250576Y535219D01*
X1249920Y534781D01*
X1249481Y534125D01*
X1249427Y533850D01*
X1250850D01*
Y535274D01*
D02*
G37*
G36*
X1251850D02*
Y533850D01*
X1253274D01*
X1253220Y534125D01*
X1252781Y534781D01*
X1252125Y535219D01*
X1251850Y535274D01*
D02*
G37*
G36*
X1173110D02*
Y533850D01*
X1174534D01*
X1174479Y534125D01*
X1174041Y534781D01*
X1173384Y535219D01*
X1173110Y535274D01*
D02*
G37*
G36*
X1121929D02*
Y533850D01*
X1123353D01*
X1123298Y534125D01*
X1122860Y534781D01*
X1122203Y535219D01*
X1121929Y535274D01*
D02*
G37*
G36*
X1172110D02*
X1171836Y535219D01*
X1171180Y534781D01*
X1170741Y534125D01*
X1170687Y533850D01*
X1172110D01*
Y535274D01*
D02*
G37*
G36*
X1548550Y532850D02*
X1547126D01*
Y531427D01*
X1547400Y531481D01*
X1548057Y531920D01*
X1548495Y532576D01*
X1548550Y532850D01*
D02*
G37*
G36*
X1487071D02*
X1485647D01*
X1485702Y532576D01*
X1486140Y531920D01*
X1486797Y531481D01*
X1487071Y531427D01*
Y532850D01*
D02*
G37*
G36*
X1489495D02*
X1488071D01*
Y531427D01*
X1488345Y531481D01*
X1489001Y531920D01*
X1489440Y532576D01*
X1489495Y532850D01*
D02*
G37*
G36*
X1469810D02*
X1468386D01*
Y531427D01*
X1468660Y531481D01*
X1469316Y531920D01*
X1469755Y532576D01*
X1469810Y532850D01*
D02*
G37*
G36*
X1351699D02*
X1350276D01*
Y531427D01*
X1350550Y531481D01*
X1351206Y531920D01*
X1351645Y532576D01*
X1351699Y532850D01*
D02*
G37*
G36*
X1467386D02*
X1465962D01*
X1466017Y532576D01*
X1466455Y531920D01*
X1467112Y531481D01*
X1467386Y531427D01*
Y532850D01*
D02*
G37*
G36*
X1528865D02*
X1527441D01*
Y531427D01*
X1527715Y531481D01*
X1528372Y531920D01*
X1528810Y532576D01*
X1528865Y532850D01*
D02*
G37*
G36*
X1546126D02*
X1544702D01*
X1544757Y532576D01*
X1545195Y531920D01*
X1545852Y531481D01*
X1546126Y531427D01*
Y532850D01*
D02*
G37*
G36*
X1526441D02*
X1525017D01*
X1525072Y532576D01*
X1525510Y531920D01*
X1526167Y531481D01*
X1526441Y531427D01*
Y532850D01*
D02*
G37*
G36*
X1506756D02*
X1505332D01*
X1505387Y532576D01*
X1505825Y531920D01*
X1506482Y531481D01*
X1506756Y531427D01*
Y532850D01*
D02*
G37*
G36*
X1509180D02*
X1507756D01*
Y531427D01*
X1508030Y531481D01*
X1508687Y531920D01*
X1509125Y532576D01*
X1509180Y532850D01*
D02*
G37*
G36*
X1290221Y535274D02*
X1289946Y535219D01*
X1289290Y534781D01*
X1288851Y534125D01*
X1288797Y533850D01*
X1290221D01*
Y535274D01*
D02*
G37*
G36*
X1527441D02*
Y533850D01*
X1528865D01*
X1528810Y534125D01*
X1528372Y534781D01*
X1527715Y535219D01*
X1527441Y535274D01*
D02*
G37*
G36*
X1546126D02*
X1545852Y535219D01*
X1545195Y534781D01*
X1544757Y534125D01*
X1544702Y533850D01*
X1546126D01*
Y535274D01*
D02*
G37*
G36*
X1526441D02*
X1526167Y535219D01*
X1525510Y534781D01*
X1525072Y534125D01*
X1525017Y533850D01*
X1526441D01*
Y535274D01*
D02*
G37*
G36*
X1506756D02*
X1506482Y535219D01*
X1505825Y534781D01*
X1505387Y534125D01*
X1505332Y533850D01*
X1506756D01*
Y535274D01*
D02*
G37*
G36*
X1507756D02*
Y533850D01*
X1509180D01*
X1509125Y534125D01*
X1508687Y534781D01*
X1508030Y535219D01*
X1507756Y535274D01*
D02*
G37*
G36*
X1585496Y544187D02*
X1584295Y544093D01*
X1582635Y543694D01*
X1581058Y543041D01*
X1579603Y542149D01*
X1578306Y541041D01*
X1577197Y539743D01*
X1576305Y538288D01*
X1575652Y536711D01*
X1575254Y535052D01*
X1575159Y533850D01*
X1585496D01*
Y544187D01*
D02*
G37*
G36*
X1586496D02*
Y533850D01*
X1596833D01*
X1596738Y535052D01*
X1596340Y536711D01*
X1595687Y538288D01*
X1594795Y539743D01*
X1593687Y541041D01*
X1592389Y542149D01*
X1590934Y543041D01*
X1589357Y543694D01*
X1587698Y544093D01*
X1586496Y544187D01*
D02*
G37*
G36*
X1566811Y535274D02*
Y533850D01*
X1568235D01*
X1568180Y534125D01*
X1567742Y534781D01*
X1567085Y535219D01*
X1566811Y535274D01*
D02*
G37*
G36*
X1547126D02*
Y533850D01*
X1548550D01*
X1548495Y534125D01*
X1548057Y534781D01*
X1547400Y535219D01*
X1547126Y535274D01*
D02*
G37*
G36*
X1565811D02*
X1565537Y535219D01*
X1564880Y534781D01*
X1564442Y534125D01*
X1564387Y533850D01*
X1565811D01*
Y535274D01*
D02*
G37*
G36*
X1488071D02*
Y533850D01*
X1489495D01*
X1489440Y534125D01*
X1489001Y534781D01*
X1488345Y535219D01*
X1488071Y535274D01*
D02*
G37*
G36*
X1329591D02*
X1329316Y535219D01*
X1328660Y534781D01*
X1328221Y534125D01*
X1328167Y533850D01*
X1329591D01*
Y535274D01*
D02*
G37*
G36*
X1330591D02*
Y533850D01*
X1332014D01*
X1331960Y534125D01*
X1331521Y534781D01*
X1330865Y535219D01*
X1330591Y535274D01*
D02*
G37*
G36*
X1310905D02*
Y533850D01*
X1312329D01*
X1312275Y534125D01*
X1311836Y534781D01*
X1311180Y535219D01*
X1310905Y535274D01*
D02*
G37*
G36*
X1291220D02*
Y533850D01*
X1292644D01*
X1292590Y534125D01*
X1292151Y534781D01*
X1291495Y535219D01*
X1291220Y535274D01*
D02*
G37*
G36*
X1309906D02*
X1309631Y535219D01*
X1308975Y534781D01*
X1308536Y534125D01*
X1308482Y533850D01*
X1309906D01*
Y535274D01*
D02*
G37*
G36*
X1468386D02*
Y533850D01*
X1469810D01*
X1469755Y534125D01*
X1469316Y534781D01*
X1468660Y535219D01*
X1468386Y535274D01*
D02*
G37*
G36*
X1487071D02*
X1486797Y535219D01*
X1486140Y534781D01*
X1485702Y534125D01*
X1485647Y533850D01*
X1487071D01*
Y535274D01*
D02*
G37*
G36*
X1467386D02*
X1467112Y535219D01*
X1466455Y534781D01*
X1466017Y534125D01*
X1465962Y533850D01*
X1467386D01*
Y535274D01*
D02*
G37*
G36*
X1349276D02*
X1349001Y535219D01*
X1348345Y534781D01*
X1347906Y534125D01*
X1347852Y533850D01*
X1349276D01*
Y535274D01*
D02*
G37*
G36*
X1350276D02*
Y533850D01*
X1351699D01*
X1351645Y534125D01*
X1351206Y534781D01*
X1350550Y535219D01*
X1350276Y535274D01*
D02*
G37*
G36*
X1349276Y532850D02*
X1347852D01*
X1347906Y532576D01*
X1348345Y531920D01*
X1349001Y531481D01*
X1349276Y531427D01*
Y532850D01*
D02*
G37*
G36*
X1194000Y529816D02*
X1164000D01*
X1163305Y529678D01*
X1162716Y529284D01*
X1157716Y524284D01*
X1157322Y523695D01*
X1157184Y523000D01*
X1157322Y522305D01*
X1157716Y521716D01*
X1158305Y521322D01*
X1159000Y521184D01*
X1159695Y521322D01*
X1160284Y521716D01*
X1164752Y526184D01*
X1194000D01*
X1194695Y526322D01*
X1195284Y526716D01*
X1195678Y527305D01*
X1195816Y528000D01*
X1195678Y528695D01*
X1195284Y529284D01*
X1194695Y529678D01*
X1194000Y529816D01*
D02*
G37*
G36*
X1123353Y524976D02*
X1119506D01*
X1119560Y524702D01*
X1119999Y524046D01*
X1120354Y523809D01*
Y523207D01*
X1119999Y522970D01*
X1119560Y522314D01*
X1119506Y522039D01*
X1123353D01*
X1123298Y522314D01*
X1122860Y522970D01*
X1122505Y523207D01*
Y523809D01*
X1122860Y524046D01*
X1123298Y524702D01*
X1123353Y524976D01*
D02*
G37*
G36*
Y521039D02*
X1121929D01*
Y519616D01*
X1122203Y519670D01*
X1122860Y520109D01*
X1123298Y520765D01*
X1123353Y521039D01*
D02*
G37*
G36*
X1396921Y521509D02*
Y517492D01*
X1400938D01*
X1400848Y518178D01*
X1400390Y519283D01*
X1399662Y520232D01*
X1398713Y520961D01*
X1397607Y521419D01*
X1396921Y521509D01*
D02*
G37*
G36*
X1120929Y521039D02*
X1119506D01*
X1119560Y520765D01*
X1119999Y520109D01*
X1120655Y519670D01*
X1120929Y519616D01*
Y521039D01*
D02*
G37*
G36*
X1596833Y532850D02*
X1586496D01*
Y522514D01*
X1587698Y522608D01*
X1589357Y523007D01*
X1590934Y523660D01*
X1592389Y524551D01*
X1593687Y525660D01*
X1594795Y526958D01*
X1595687Y528413D01*
X1596340Y529989D01*
X1596738Y531649D01*
X1596833Y532850D01*
D02*
G37*
G36*
X1439685Y526780D02*
X1435668D01*
X1435759Y526093D01*
X1436217Y524988D01*
X1436945Y524039D01*
X1437894Y523311D01*
X1438999Y522853D01*
X1439685Y522763D01*
Y526780D01*
D02*
G37*
G36*
X1585496Y532850D02*
X1575159D01*
X1575254Y531649D01*
X1575652Y529989D01*
X1576305Y528413D01*
X1577197Y526958D01*
X1578306Y525660D01*
X1579603Y524551D01*
X1581058Y523660D01*
X1582635Y523007D01*
X1584295Y522608D01*
X1585496Y522514D01*
Y532850D01*
D02*
G37*
G36*
X1073685D02*
X1063348D01*
X1063443Y531649D01*
X1063841Y529989D01*
X1064494Y528413D01*
X1065386Y526958D01*
X1066494Y525660D01*
X1067792Y524551D01*
X1069247Y523660D01*
X1070824Y523007D01*
X1072484Y522608D01*
X1073685Y522514D01*
Y532850D01*
D02*
G37*
G36*
X1085022D02*
X1074685D01*
Y522514D01*
X1075886Y522608D01*
X1077546Y523007D01*
X1079123Y523660D01*
X1080578Y524551D01*
X1081876Y525660D01*
X1082984Y526958D01*
X1083876Y528413D01*
X1084529Y529989D01*
X1084927Y531649D01*
X1085022Y532850D01*
D02*
G37*
G36*
X1395921Y521509D02*
X1395235Y521419D01*
X1394130Y520961D01*
X1393181Y520232D01*
X1392453Y519283D01*
X1391995Y518178D01*
X1391905Y517492D01*
X1395921D01*
Y521509D01*
D02*
G37*
G36*
X1566811Y515589D02*
Y514165D01*
X1568235D01*
X1568180Y514440D01*
X1567742Y515096D01*
X1567085Y515534D01*
X1566811Y515589D01*
D02*
G37*
G36*
X1585496D02*
X1585222Y515534D01*
X1584566Y515096D01*
X1584127Y514440D01*
X1584072Y514165D01*
X1585496D01*
Y515589D01*
D02*
G37*
G36*
X1565811D02*
X1565537Y515534D01*
X1564880Y515096D01*
X1564442Y514440D01*
X1564387Y514165D01*
X1565811D01*
Y515589D01*
D02*
G37*
G36*
X1546126D02*
X1545852Y515534D01*
X1545195Y515096D01*
X1544757Y514440D01*
X1544702Y514165D01*
X1546126D01*
Y515589D01*
D02*
G37*
G36*
X1547126D02*
Y514165D01*
X1548550D01*
X1548495Y514440D01*
X1548057Y515096D01*
X1547400Y515534D01*
X1547126Y515589D01*
D02*
G37*
G36*
X1317421Y521509D02*
X1316735Y521419D01*
X1315630Y520961D01*
X1314681Y520232D01*
X1313953Y519283D01*
X1313495Y518178D01*
X1313405Y517492D01*
X1317421D01*
Y521509D01*
D02*
G37*
G36*
X1318421D02*
Y517492D01*
X1322438D01*
X1322348Y518178D01*
X1321890Y519283D01*
X1321162Y520232D01*
X1320212Y520961D01*
X1319107Y521419D01*
X1318421Y521509D01*
D02*
G37*
G36*
X1187421D02*
Y517492D01*
X1191438D01*
X1191348Y518178D01*
X1190890Y519283D01*
X1190162Y520232D01*
X1189213Y520961D01*
X1188107Y521419D01*
X1187421Y521509D01*
D02*
G37*
G36*
X1586496Y515589D02*
Y514165D01*
X1587920D01*
X1587865Y514440D01*
X1587427Y515096D01*
X1586770Y515534D01*
X1586496Y515589D01*
D02*
G37*
G36*
X1186421Y521509D02*
X1185735Y521419D01*
X1184630Y520961D01*
X1183681Y520232D01*
X1182953Y519283D01*
X1182495Y518178D01*
X1182405Y517492D01*
X1186421D01*
Y521509D01*
D02*
G37*
G36*
X1444702Y526780D02*
X1440685D01*
Y522763D01*
X1441371Y522853D01*
X1442476Y523311D01*
X1443425Y524039D01*
X1444154Y524988D01*
X1444611Y526093D01*
X1444702Y526780D01*
D02*
G37*
G36*
X1253274Y532850D02*
X1251850D01*
Y531427D01*
X1252125Y531481D01*
X1252781Y531920D01*
X1253220Y532576D01*
X1253274Y532850D01*
D02*
G37*
G36*
X1290221D02*
X1288797D01*
X1288851Y532576D01*
X1289290Y531920D01*
X1289946Y531481D01*
X1290221Y531427D01*
Y532850D01*
D02*
G37*
G36*
X1250850D02*
X1249427D01*
X1249481Y532576D01*
X1249920Y531920D01*
X1250576Y531481D01*
X1250850Y531427D01*
Y532850D01*
D02*
G37*
G36*
X1172110D02*
X1170687D01*
X1170741Y532576D01*
X1171180Y531920D01*
X1171836Y531481D01*
X1172110Y531427D01*
Y532850D01*
D02*
G37*
G36*
X1174534D02*
X1173110D01*
Y531427D01*
X1173384Y531481D01*
X1174041Y531920D01*
X1174479Y532576D01*
X1174534Y532850D01*
D02*
G37*
G36*
X1329591D02*
X1328167D01*
X1328221Y532576D01*
X1328660Y531920D01*
X1329316Y531481D01*
X1329591Y531427D01*
Y532850D01*
D02*
G37*
G36*
X1332014D02*
X1330591D01*
Y531427D01*
X1330865Y531481D01*
X1331521Y531920D01*
X1331960Y532576D01*
X1332014Y532850D01*
D02*
G37*
G36*
X1312329D02*
X1310905D01*
Y531427D01*
X1311180Y531481D01*
X1311836Y531920D01*
X1312275Y532576D01*
X1312329Y532850D01*
D02*
G37*
G36*
X1292644D02*
X1291220D01*
Y531427D01*
X1291495Y531481D01*
X1292151Y531920D01*
X1292590Y532576D01*
X1292644Y532850D01*
D02*
G37*
G36*
X1309906D02*
X1308482D01*
X1308536Y532576D01*
X1308975Y531920D01*
X1309631Y531481D01*
X1309906Y531427D01*
Y532850D01*
D02*
G37*
G36*
X1123353D02*
X1121929D01*
Y531427D01*
X1122203Y531481D01*
X1122860Y531920D01*
X1123298Y532576D01*
X1123353Y532850D01*
D02*
G37*
G36*
X1420500Y531459D02*
X1419418Y531316D01*
X1418410Y530899D01*
X1417545Y530235D01*
X1416881Y529369D01*
X1416463Y528361D01*
X1416321Y527280D01*
X1416463Y526198D01*
X1416881Y525190D01*
X1417545Y524325D01*
X1418410Y523660D01*
X1419418Y523243D01*
X1420500Y523101D01*
X1421582Y523243D01*
X1422589Y523660D01*
X1423455Y524325D01*
X1424119Y525190D01*
X1424537Y526198D01*
X1424679Y527280D01*
X1424537Y528361D01*
X1424119Y529369D01*
X1423455Y530235D01*
X1422589Y530899D01*
X1421582Y531316D01*
X1420500Y531459D01*
D02*
G37*
G36*
X1430342D02*
X1429261Y531316D01*
X1428253Y530899D01*
X1427388Y530235D01*
X1426723Y529369D01*
X1426306Y528361D01*
X1426163Y527280D01*
X1426306Y526198D01*
X1426723Y525190D01*
X1427388Y524325D01*
X1428253Y523660D01*
X1429261Y523243D01*
X1430342Y523101D01*
X1431424Y523243D01*
X1432432Y523660D01*
X1433298Y524325D01*
X1433962Y525190D01*
X1434379Y526198D01*
X1434522Y527280D01*
X1434379Y528361D01*
X1433962Y529369D01*
X1433298Y530235D01*
X1432432Y530899D01*
X1431424Y531316D01*
X1430342Y531459D01*
D02*
G37*
G36*
X1363185D02*
X1362103Y531316D01*
X1361096Y530899D01*
X1360230Y530235D01*
X1359566Y529369D01*
X1359148Y528361D01*
X1359006Y527280D01*
X1359148Y526198D01*
X1359566Y525190D01*
X1360230Y524325D01*
X1361096Y523660D01*
X1362103Y523243D01*
X1363185Y523101D01*
X1364267Y523243D01*
X1365275Y523660D01*
X1366140Y524325D01*
X1366804Y525190D01*
X1367222Y526198D01*
X1367364Y527280D01*
X1367222Y528361D01*
X1366804Y529369D01*
X1366140Y530235D01*
X1365275Y530899D01*
X1364267Y531316D01*
X1363185Y531459D01*
D02*
G37*
G36*
X1343500D02*
X1342418Y531316D01*
X1341411Y530899D01*
X1340545Y530235D01*
X1339881Y529369D01*
X1339463Y528361D01*
X1339321Y527280D01*
X1339463Y526198D01*
X1339881Y525190D01*
X1340545Y524325D01*
X1341411Y523660D01*
X1342418Y523243D01*
X1343500Y523101D01*
X1344582Y523243D01*
X1345590Y523660D01*
X1346455Y524325D01*
X1347119Y525190D01*
X1347537Y526198D01*
X1347679Y527280D01*
X1347537Y528361D01*
X1347119Y529369D01*
X1346455Y530235D01*
X1345590Y530899D01*
X1344582Y531316D01*
X1343500Y531459D01*
D02*
G37*
G36*
X1353343D02*
X1352261Y531316D01*
X1351253Y530899D01*
X1350387Y530235D01*
X1349723Y529369D01*
X1349306Y528361D01*
X1349164Y527280D01*
X1349306Y526198D01*
X1349723Y525190D01*
X1350387Y524325D01*
X1351253Y523660D01*
X1352261Y523243D01*
X1353343Y523101D01*
X1354424Y523243D01*
X1355432Y523660D01*
X1356298Y524325D01*
X1356962Y525190D01*
X1357379Y526198D01*
X1357522Y527280D01*
X1357379Y528361D01*
X1356962Y529369D01*
X1356298Y530235D01*
X1355432Y530899D01*
X1354424Y531316D01*
X1353343Y531459D01*
D02*
G37*
G36*
X1440685Y531796D02*
Y527779D01*
X1444702D01*
X1444611Y528466D01*
X1444154Y529571D01*
X1443425Y530520D01*
X1442476Y531248D01*
X1441371Y531706D01*
X1440685Y531796D01*
D02*
G37*
G36*
X1120929Y532850D02*
X1119506D01*
X1119560Y532576D01*
X1119999Y531920D01*
X1120655Y531481D01*
X1120929Y531427D01*
Y532850D01*
D02*
G37*
G36*
X1439685Y531796D02*
X1438999Y531706D01*
X1437894Y531248D01*
X1436945Y530520D01*
X1436217Y529571D01*
X1435759Y528466D01*
X1435668Y527779D01*
X1439685D01*
Y531796D01*
D02*
G37*
G36*
X1120929Y527400D02*
X1120655Y527346D01*
X1119999Y526907D01*
X1119560Y526251D01*
X1119506Y525976D01*
X1120929D01*
Y527400D01*
D02*
G37*
G36*
X1121929D02*
Y525976D01*
X1123353D01*
X1123298Y526251D01*
X1122860Y526907D01*
X1122203Y527346D01*
X1121929Y527400D01*
D02*
G37*
G36*
X1587920Y493480D02*
X1586496D01*
Y492057D01*
X1586770Y492111D01*
X1587427Y492550D01*
X1587865Y493206D01*
X1587920Y493480D01*
D02*
G37*
G36*
X1192795Y456534D02*
Y455110D01*
X1194219D01*
X1194164Y455384D01*
X1193726Y456041D01*
X1193069Y456479D01*
X1192795Y456534D01*
D02*
G37*
G36*
X1231165D02*
X1230891Y456479D01*
X1230235Y456041D01*
X1229796Y455384D01*
X1229742Y455110D01*
X1231165D01*
Y456534D01*
D02*
G37*
G36*
X1191795D02*
X1191521Y456479D01*
X1190865Y456041D01*
X1190426Y455384D01*
X1190372Y455110D01*
X1191795D01*
Y456534D01*
D02*
G37*
G36*
X1132740D02*
X1132466Y456479D01*
X1131810Y456041D01*
X1131371Y455384D01*
X1131316Y455110D01*
X1132740D01*
Y456534D01*
D02*
G37*
G36*
X1133740D02*
Y455110D01*
X1135164D01*
X1135109Y455384D01*
X1134671Y456041D01*
X1134014Y456479D01*
X1133740Y456534D01*
D02*
G37*
G36*
X1391236Y465083D02*
X1390309Y464961D01*
X1389445Y464603D01*
X1388702Y464034D01*
X1388133Y463292D01*
X1387775Y462428D01*
X1387653Y461500D01*
X1387775Y460572D01*
X1388133Y459708D01*
X1388702Y458966D01*
X1389445Y458397D01*
X1390309Y458039D01*
X1391236Y457917D01*
X1392164Y458039D01*
X1393028Y458397D01*
X1393770Y458966D01*
X1394339Y459708D01*
X1394697Y460572D01*
X1394820Y461500D01*
X1394697Y462428D01*
X1394339Y463292D01*
X1393770Y464034D01*
X1393028Y464603D01*
X1392164Y464961D01*
X1391236Y465083D01*
D02*
G37*
G36*
X1420764D02*
X1419836Y464961D01*
X1418972Y464603D01*
X1418230Y464034D01*
X1417661Y463292D01*
X1417303Y462428D01*
X1417180Y461500D01*
X1417303Y460572D01*
X1417661Y459708D01*
X1418230Y458966D01*
X1418972Y458397D01*
X1419836Y458039D01*
X1420764Y457917D01*
X1421691Y458039D01*
X1422556Y458397D01*
X1423298Y458966D01*
X1423867Y459708D01*
X1424225Y460572D01*
X1424347Y461500D01*
X1424225Y462428D01*
X1423867Y463292D01*
X1423298Y464034D01*
X1422556Y464603D01*
X1421691Y464961D01*
X1420764Y465083D01*
D02*
G37*
G36*
X1350276Y456534D02*
Y455110D01*
X1351699D01*
X1351645Y455384D01*
X1351206Y456041D01*
X1350550Y456479D01*
X1350276Y456534D01*
D02*
G37*
G36*
X1232165D02*
Y455110D01*
X1233589D01*
X1233535Y455384D01*
X1233096Y456041D01*
X1232440Y456479D01*
X1232165Y456534D01*
D02*
G37*
G36*
X1349276D02*
X1349001Y456479D01*
X1348345Y456041D01*
X1347906Y455384D01*
X1347852Y455110D01*
X1349276D01*
Y456534D01*
D02*
G37*
G36*
X1351699Y454110D02*
X1350276D01*
Y452687D01*
X1350550Y452741D01*
X1351206Y453180D01*
X1351645Y453836D01*
X1351699Y454110D01*
D02*
G37*
G36*
X1135164D02*
X1133740D01*
Y452687D01*
X1134014Y452741D01*
X1134671Y453180D01*
X1135109Y453836D01*
X1135164Y454110D01*
D02*
G37*
G36*
X1191795D02*
X1190372D01*
X1190426Y453836D01*
X1190865Y453180D01*
X1191521Y452741D01*
X1191795Y452687D01*
Y454110D01*
D02*
G37*
G36*
X1132740D02*
X1131316D01*
X1131371Y453836D01*
X1131810Y453180D01*
X1132466Y452741D01*
X1132740Y452687D01*
Y454110D01*
D02*
G37*
G36*
X1542189Y452597D02*
X1541915Y452542D01*
X1541258Y452104D01*
X1540820Y451447D01*
X1540765Y451173D01*
X1542189D01*
Y452597D01*
D02*
G37*
G36*
X1543189D02*
Y451173D01*
X1544613D01*
X1544558Y451447D01*
X1544119Y452104D01*
X1543463Y452542D01*
X1543189Y452597D01*
D02*
G37*
G36*
X1253274Y454110D02*
X1251850D01*
Y452687D01*
X1252125Y452741D01*
X1252781Y453180D01*
X1253220Y453836D01*
X1253274Y454110D01*
D02*
G37*
G36*
X1349276D02*
X1347852D01*
X1347906Y453836D01*
X1348345Y453180D01*
X1349001Y452741D01*
X1349276Y452687D01*
Y454110D01*
D02*
G37*
G36*
X1233589D02*
X1232165D01*
Y452687D01*
X1232440Y452741D01*
X1233096Y453180D01*
X1233535Y453836D01*
X1233589Y454110D01*
D02*
G37*
G36*
X1194219D02*
X1192795D01*
Y452687D01*
X1193069Y452741D01*
X1193726Y453180D01*
X1194164Y453836D01*
X1194219Y454110D01*
D02*
G37*
G36*
X1231165D02*
X1229742D01*
X1229796Y453836D01*
X1230235Y453180D01*
X1230891Y452741D01*
X1231165Y452687D01*
Y454110D01*
D02*
G37*
G36*
X1580280Y468679D02*
X1579198Y468537D01*
X1578190Y468119D01*
X1577324Y467455D01*
X1576660Y466589D01*
X1576243Y465582D01*
X1576101Y464500D01*
X1576243Y463418D01*
X1576660Y462410D01*
X1577324Y461545D01*
X1578190Y460881D01*
X1579198Y460463D01*
X1580280Y460321D01*
X1581361Y460463D01*
X1582369Y460881D01*
X1583235Y461545D01*
X1583899Y462410D01*
X1584316Y463418D01*
X1584459Y464500D01*
X1584316Y465582D01*
X1583899Y466589D01*
X1583235Y467455D01*
X1582369Y468119D01*
X1581361Y468537D01*
X1580280Y468679D01*
D02*
G37*
G36*
X1097307Y469858D02*
X1095883D01*
X1095938Y469584D01*
X1096377Y468928D01*
X1097033Y468489D01*
X1097307Y468435D01*
Y469858D01*
D02*
G37*
G36*
X1099731D02*
X1098307D01*
Y468435D01*
X1098581Y468489D01*
X1099238Y468928D01*
X1099676Y469584D01*
X1099731Y469858D01*
D02*
G37*
G36*
X1503000Y486816D02*
X1502305Y486678D01*
X1501716Y486284D01*
X1501322Y485695D01*
X1501184Y485000D01*
Y482000D01*
X1501322Y481305D01*
X1501716Y480716D01*
X1514716Y467716D01*
X1515305Y467322D01*
X1516000Y467184D01*
X1516695Y467322D01*
X1517284Y467716D01*
X1517678Y468305D01*
X1517816Y469000D01*
X1517678Y469695D01*
X1517284Y470284D01*
X1504816Y482752D01*
Y485000D01*
X1504678Y485695D01*
X1504284Y486284D01*
X1503695Y486678D01*
X1503000Y486816D01*
D02*
G37*
G36*
X1491008Y468345D02*
X1490734Y468290D01*
X1490077Y467852D01*
X1489639Y467196D01*
X1489584Y466921D01*
X1491008D01*
Y468345D01*
D02*
G37*
G36*
X1492008D02*
Y466921D01*
X1493431D01*
X1493377Y467196D01*
X1492938Y467852D01*
X1492282Y468290D01*
X1492008Y468345D01*
D02*
G37*
G36*
X1477684Y469858D02*
X1476260D01*
Y468435D01*
X1476534Y468489D01*
X1477190Y468928D01*
X1477629Y469584D01*
X1477684Y469858D01*
D02*
G37*
G36*
X1450457Y470707D02*
X1450183Y470653D01*
X1449526Y470214D01*
X1449088Y469558D01*
X1449033Y469283D01*
X1450457D01*
Y470707D01*
D02*
G37*
G36*
X1475260Y469858D02*
X1473836D01*
X1473891Y469584D01*
X1474329Y468928D01*
X1474986Y468489D01*
X1475260Y468435D01*
Y469858D01*
D02*
G37*
G36*
X1109118D02*
X1107694D01*
X1107749Y469584D01*
X1108188Y468928D01*
X1108844Y468489D01*
X1109118Y468435D01*
Y469858D01*
D02*
G37*
G36*
X1111542D02*
X1110118D01*
Y468435D01*
X1110392Y468489D01*
X1111049Y468928D01*
X1111487Y469584D01*
X1111542Y469858D01*
D02*
G37*
G36*
X1305968Y468345D02*
X1305694Y468290D01*
X1305038Y467852D01*
X1304599Y467196D01*
X1304545Y466921D01*
X1305968D01*
Y468345D01*
D02*
G37*
G36*
X1274472Y464408D02*
X1274198Y464353D01*
X1273542Y463915D01*
X1273103Y463259D01*
X1273049Y462984D01*
X1274472D01*
Y464408D01*
D02*
G37*
G36*
X1275472D02*
Y462984D01*
X1276896D01*
X1276842Y463259D01*
X1276403Y463915D01*
X1275747Y464353D01*
X1275472Y464408D01*
D02*
G37*
G36*
X1553500Y477418D02*
X1552575Y477234D01*
X1551790Y476710D01*
X1551266Y475925D01*
X1551082Y475000D01*
Y463000D01*
X1551266Y462075D01*
X1551790Y461290D01*
X1552575Y460766D01*
X1553500Y460582D01*
X1554425Y460766D01*
X1555210Y461290D01*
X1555734Y462075D01*
X1555918Y463000D01*
Y475000D01*
X1555734Y475925D01*
X1555210Y476710D01*
X1554425Y477234D01*
X1553500Y477418D01*
D02*
G37*
G36*
X1274472Y461984D02*
X1273049D01*
X1273103Y461710D01*
X1273542Y461054D01*
X1274198Y460615D01*
X1274472Y460561D01*
Y461984D01*
D02*
G37*
G36*
X1276896D02*
X1275472D01*
Y460561D01*
X1275747Y460615D01*
X1276403Y461054D01*
X1276842Y461710D01*
X1276896Y461984D01*
D02*
G37*
G36*
X1450457Y468284D02*
X1449033D01*
X1449088Y468009D01*
X1449526Y467353D01*
X1450183Y466914D01*
X1450457Y466860D01*
Y468284D01*
D02*
G37*
G36*
X1452880D02*
X1451457D01*
Y466860D01*
X1451731Y466914D01*
X1452387Y467353D01*
X1452826Y468009D01*
X1452880Y468284D01*
D02*
G37*
G36*
X1305968Y465921D02*
X1304545D01*
X1304599Y465647D01*
X1305038Y464991D01*
X1305694Y464552D01*
X1305968Y464498D01*
Y465921D01*
D02*
G37*
G36*
X1491008D02*
X1489584D01*
X1489639Y465647D01*
X1490077Y464991D01*
X1490734Y464552D01*
X1491008Y464498D01*
Y465921D01*
D02*
G37*
G36*
X1493431D02*
X1492008D01*
Y464498D01*
X1492282Y464552D01*
X1492938Y464991D01*
X1493377Y465647D01*
X1493431Y465921D01*
D02*
G37*
G36*
X1497000Y454115D02*
X1496382Y453992D01*
X1496115Y453814D01*
X1451000D01*
X1450497Y453714D01*
X1450071Y453429D01*
X1429456Y432814D01*
X1424065D01*
X1423867Y433292D01*
X1423298Y434034D01*
X1422556Y434603D01*
X1421691Y434961D01*
X1420764Y435083D01*
X1419836Y434961D01*
X1418972Y434603D01*
X1418230Y434034D01*
X1417661Y433292D01*
X1417303Y432428D01*
X1417180Y431500D01*
X1417303Y430573D01*
X1417661Y429708D01*
X1418230Y428966D01*
X1418972Y428397D01*
X1419836Y428039D01*
X1420764Y427917D01*
X1421691Y428039D01*
X1422556Y428397D01*
X1423298Y428966D01*
X1423867Y429708D01*
X1424065Y430186D01*
X1430000D01*
X1430503Y430286D01*
X1430929Y430571D01*
X1451544Y451186D01*
X1496115D01*
X1496382Y451008D01*
X1497000Y450885D01*
X1497618Y451008D01*
X1498142Y451358D01*
X1498492Y451882D01*
X1498615Y452500D01*
X1498492Y453118D01*
X1498142Y453642D01*
X1497618Y453992D01*
X1497000Y454115D01*
D02*
G37*
G36*
X1408331Y436849D02*
X1408057Y436794D01*
X1407400Y436356D01*
X1406962Y435699D01*
X1406907Y435425D01*
X1408331D01*
Y436849D01*
D02*
G37*
G36*
X1409331D02*
Y435425D01*
X1410754D01*
X1410700Y435699D01*
X1410261Y436356D01*
X1409605Y436794D01*
X1409331Y436849D01*
D02*
G37*
G36*
X1369961D02*
Y435425D01*
X1371384D01*
X1371330Y435699D01*
X1370891Y436356D01*
X1370235Y436794D01*
X1369961Y436849D01*
D02*
G37*
G36*
X1291220D02*
Y435425D01*
X1292644D01*
X1292590Y435699D01*
X1292151Y436356D01*
X1291495Y436794D01*
X1291220Y436849D01*
D02*
G37*
G36*
X1368961D02*
X1368686Y436794D01*
X1368030Y436356D01*
X1367591Y435699D01*
X1367537Y435425D01*
X1368961D01*
Y436849D01*
D02*
G37*
G36*
X1547126D02*
Y435425D01*
X1548550D01*
X1548495Y435699D01*
X1548057Y436356D01*
X1547400Y436794D01*
X1547126Y436849D01*
D02*
G37*
G36*
X1565811D02*
X1565537Y436794D01*
X1564880Y436356D01*
X1564442Y435699D01*
X1564387Y435425D01*
X1565811D01*
Y436849D01*
D02*
G37*
G36*
X1546126D02*
X1545852Y436794D01*
X1545195Y436356D01*
X1544757Y435699D01*
X1544702Y435425D01*
X1546126D01*
Y436849D01*
D02*
G37*
G36*
X1526441D02*
X1526167Y436794D01*
X1525510Y436356D01*
X1525072Y435699D01*
X1525017Y435425D01*
X1526441D01*
Y436849D01*
D02*
G37*
G36*
X1527441D02*
Y435425D01*
X1528865D01*
X1528810Y435699D01*
X1528372Y436356D01*
X1527715Y436794D01*
X1527441Y436849D01*
D02*
G37*
G36*
X1290221D02*
X1289946Y436794D01*
X1289290Y436356D01*
X1288851Y435699D01*
X1288797Y435425D01*
X1290221D01*
Y436849D01*
D02*
G37*
G36*
X1074685D02*
Y435425D01*
X1076109D01*
X1076054Y435699D01*
X1075616Y436356D01*
X1074959Y436794D01*
X1074685Y436849D01*
D02*
G37*
G36*
X1124866D02*
X1124592Y436794D01*
X1123936Y436356D01*
X1123497Y435699D01*
X1123442Y435425D01*
X1124866D01*
Y436849D01*
D02*
G37*
G36*
X1073685D02*
X1073411Y436794D01*
X1072754Y436356D01*
X1072316Y435699D01*
X1072261Y435425D01*
X1073685D01*
Y436849D01*
D02*
G37*
G36*
X1565811Y434425D02*
X1564387D01*
X1564442Y434151D01*
X1564880Y433495D01*
X1565537Y433056D01*
X1565811Y433002D01*
Y434425D01*
D02*
G37*
G36*
X1568235D02*
X1566811D01*
Y433002D01*
X1567085Y433056D01*
X1567742Y433495D01*
X1568180Y434151D01*
X1568235Y434425D01*
D02*
G37*
G36*
X1231165Y436849D02*
X1230891Y436794D01*
X1230235Y436356D01*
X1229796Y435699D01*
X1229742Y435425D01*
X1231165D01*
Y436849D01*
D02*
G37*
G36*
X1232165D02*
Y435425D01*
X1233589D01*
X1233535Y435699D01*
X1233096Y436356D01*
X1232440Y436794D01*
X1232165Y436849D01*
D02*
G37*
G36*
X1212480D02*
Y435425D01*
X1213904D01*
X1213849Y435699D01*
X1213411Y436356D01*
X1212755Y436794D01*
X1212480Y436849D01*
D02*
G37*
G36*
X1125866D02*
Y435425D01*
X1127290D01*
X1127235Y435699D01*
X1126797Y436356D01*
X1126140Y436794D01*
X1125866Y436849D01*
D02*
G37*
G36*
X1211480D02*
X1211206Y436794D01*
X1210550Y436356D01*
X1210111Y435699D01*
X1210057Y435425D01*
X1211480D01*
Y436849D01*
D02*
G37*
G36*
X1566811D02*
Y435425D01*
X1568235D01*
X1568180Y435699D01*
X1567742Y436356D01*
X1567085Y436794D01*
X1566811Y436849D01*
D02*
G37*
G36*
X1133740Y444723D02*
Y443299D01*
X1135164D01*
X1135109Y443573D01*
X1134671Y444230D01*
X1134014Y444668D01*
X1133740Y444723D01*
D02*
G37*
G36*
X1579780Y449332D02*
X1579093Y449241D01*
X1577988Y448783D01*
X1577039Y448055D01*
X1576311Y447106D01*
X1575853Y446001D01*
X1575763Y445315D01*
X1579780D01*
Y449332D01*
D02*
G37*
G36*
X1132740Y444723D02*
X1132466Y444668D01*
X1131810Y444230D01*
X1131371Y443573D01*
X1131316Y443299D01*
X1132740D01*
Y444723D01*
D02*
G37*
G36*
X1514843Y442361D02*
Y440937D01*
X1516266D01*
X1516212Y441211D01*
X1515773Y441868D01*
X1515117Y442306D01*
X1514843Y442361D01*
D02*
G37*
G36*
X1501500Y461314D02*
X1432500D01*
X1431997Y461214D01*
X1431571Y460929D01*
X1427956Y457314D01*
X1367000D01*
X1366497Y457214D01*
X1366071Y456929D01*
X1350071Y440929D01*
X1349786Y440503D01*
X1349686Y440000D01*
Y434544D01*
X1347456Y432314D01*
X1319229D01*
X1319077Y432814D01*
X1319142Y432858D01*
X1319492Y433382D01*
X1319615Y434000D01*
X1319492Y434618D01*
X1319314Y434885D01*
Y451615D01*
X1319492Y451882D01*
X1319615Y452500D01*
X1319492Y453118D01*
X1319142Y453642D01*
X1318618Y453992D01*
X1318000Y454115D01*
X1317382Y453992D01*
X1316858Y453642D01*
X1316508Y453118D01*
X1316385Y452500D01*
X1316508Y451882D01*
X1316686Y451615D01*
Y434885D01*
X1316508Y434618D01*
X1316385Y434000D01*
X1316508Y433382D01*
X1316858Y432858D01*
X1316923Y432814D01*
X1316771Y432314D01*
X1315385D01*
X1315118Y432492D01*
X1314500Y432615D01*
X1313882Y432492D01*
X1313358Y432142D01*
X1313008Y431618D01*
X1312953Y431343D01*
Y431343D01*
X1312929Y431221D01*
X1312855Y431129D01*
X1312843D01*
X1312466D01*
X1312430D01*
X1312406D01*
X1312401D01*
X1312358Y431341D01*
Y431341D01*
X1312275Y431762D01*
X1311836Y432419D01*
X1311180Y432857D01*
X1310905Y432912D01*
Y430988D01*
X1310406D01*
Y430488D01*
X1308482D01*
X1308536Y430214D01*
X1308803Y429814D01*
X1308536Y429314D01*
X1258385D01*
X1258118Y429492D01*
X1257500Y429615D01*
X1256882Y429492D01*
X1256358Y429142D01*
X1256008Y428618D01*
X1255885Y428000D01*
X1256008Y427382D01*
X1256358Y426858D01*
X1256882Y426508D01*
X1257500Y426385D01*
X1258118Y426508D01*
X1258385Y426686D01*
X1259771D01*
X1259923Y426186D01*
X1259858Y426142D01*
X1259508Y425618D01*
X1259385Y425000D01*
X1259508Y424382D01*
X1259858Y423858D01*
X1260382Y423508D01*
X1261000Y423385D01*
X1261618Y423508D01*
X1261885Y423686D01*
X1371193D01*
X1389308Y405571D01*
X1389735Y405286D01*
X1389769Y405279D01*
X1389820Y404759D01*
X1389445Y404603D01*
X1388702Y404034D01*
X1388133Y403292D01*
X1387775Y402427D01*
X1387653Y401500D01*
X1387775Y400573D01*
X1388133Y399708D01*
X1388702Y398966D01*
X1389445Y398397D01*
X1390309Y398039D01*
X1391236Y397917D01*
X1392164Y398039D01*
X1393028Y398397D01*
X1393770Y398966D01*
X1394339Y399708D01*
X1394697Y400573D01*
X1394820Y401500D01*
X1394697Y402427D01*
X1394479Y402955D01*
X1394903Y403239D01*
X1416071Y382071D01*
X1416497Y381786D01*
X1417000Y381686D01*
X1441011D01*
X1441422Y381186D01*
X1441385Y381000D01*
X1441508Y380382D01*
X1441686Y380115D01*
Y367095D01*
X1441068Y366840D01*
X1440202Y366176D01*
X1439538Y365310D01*
X1439121Y364302D01*
X1438978Y363221D01*
X1439121Y362139D01*
X1439538Y361131D01*
X1440202Y360265D01*
X1441068Y359601D01*
X1442076Y359184D01*
X1443157Y359041D01*
X1444239Y359184D01*
X1445247Y359601D01*
X1446113Y360265D01*
X1446777Y361131D01*
X1447194Y362139D01*
X1447336Y363221D01*
X1447194Y364302D01*
X1446777Y365310D01*
X1446113Y366176D01*
X1445247Y366840D01*
X1444314Y367226D01*
Y380115D01*
X1444492Y380382D01*
X1444615Y381000D01*
X1444578Y381186D01*
X1444989Y381686D01*
X1566965D01*
X1567467Y381786D01*
X1567894Y382071D01*
X1578423Y392599D01*
X1579198Y392278D01*
X1580280Y392136D01*
X1581361Y392278D01*
X1582369Y392696D01*
X1583235Y393360D01*
X1583899Y394225D01*
X1583925Y394289D01*
X1584423Y394338D01*
X1584566Y394125D01*
X1585222Y393686D01*
X1585496Y393632D01*
Y395555D01*
Y397479D01*
X1585222Y397424D01*
X1584850Y397176D01*
X1584316Y397397D01*
X1583899Y398405D01*
X1583235Y399270D01*
X1582369Y399934D01*
X1581361Y400352D01*
X1580280Y400494D01*
X1579198Y400352D01*
X1578190Y399934D01*
X1577324Y399270D01*
X1576660Y398405D01*
X1576243Y397397D01*
X1576101Y396315D01*
X1576243Y395233D01*
X1576564Y394458D01*
X1566420Y384314D01*
X1559880D01*
X1559673Y384814D01*
X1577741Y402883D01*
X1578190Y402538D01*
X1579198Y402121D01*
X1580280Y401978D01*
X1581361Y402121D01*
X1582369Y402538D01*
X1583235Y403202D01*
X1583899Y404068D01*
X1584316Y405076D01*
X1584459Y406157D01*
X1584316Y407239D01*
X1583899Y408247D01*
X1583235Y409113D01*
X1582369Y409777D01*
X1581361Y410194D01*
X1580280Y410336D01*
X1579198Y410194D01*
X1578190Y409777D01*
X1577324Y409113D01*
X1576660Y408247D01*
X1576243Y407239D01*
X1576101Y406157D01*
X1576240Y405098D01*
X1557956Y386814D01*
X1419544D01*
X1399814Y406544D01*
Y412500D01*
X1399714Y413003D01*
X1399429Y413429D01*
X1395429Y417429D01*
X1395003Y417714D01*
X1394500Y417814D01*
X1392928D01*
X1392829Y418314D01*
X1393028Y418397D01*
X1393770Y418966D01*
X1394339Y419708D01*
X1394697Y420573D01*
X1394820Y421500D01*
X1394697Y422428D01*
X1394339Y423292D01*
X1393770Y424034D01*
X1393028Y424603D01*
X1392164Y424961D01*
X1391236Y425083D01*
X1390309Y424961D01*
X1389445Y424603D01*
X1388702Y424034D01*
X1388133Y423292D01*
X1387775Y422428D01*
X1387653Y421500D01*
X1387775Y420573D01*
X1388133Y419708D01*
X1388702Y418966D01*
X1389445Y418397D01*
X1389644Y418314D01*
X1389544Y417814D01*
X1387044D01*
X1375929Y428929D01*
X1375503Y429214D01*
X1375000Y429314D01*
X1348865D01*
X1348809Y429396D01*
X1348929Y430071D01*
X1351929Y433071D01*
X1352214Y433497D01*
X1352314Y434000D01*
Y439456D01*
X1367544Y454686D01*
X1388731D01*
X1388900Y454186D01*
X1388702Y454034D01*
X1388133Y453292D01*
X1387775Y452427D01*
X1387653Y451500D01*
X1387775Y450572D01*
X1388133Y449708D01*
X1388702Y448966D01*
X1389445Y448397D01*
X1390309Y448039D01*
X1391236Y447917D01*
X1392164Y448039D01*
X1393028Y448397D01*
X1393770Y448966D01*
X1394339Y449708D01*
X1394697Y450572D01*
X1394820Y451500D01*
X1394697Y452427D01*
X1394339Y453292D01*
X1393770Y454034D01*
X1393572Y454186D01*
X1393742Y454686D01*
X1418258D01*
X1418428Y454186D01*
X1418230Y454034D01*
X1417661Y453292D01*
X1417303Y452427D01*
X1417180Y451500D01*
X1417303Y450572D01*
X1417661Y449708D01*
X1418230Y448966D01*
X1418972Y448397D01*
X1419836Y448039D01*
X1420764Y447917D01*
X1421691Y448039D01*
X1422556Y448397D01*
X1423298Y448966D01*
X1423867Y449708D01*
X1424225Y450572D01*
X1424347Y451500D01*
X1424225Y452427D01*
X1423867Y453292D01*
X1423298Y454034D01*
X1423100Y454186D01*
X1423269Y454686D01*
X1428500D01*
X1429003Y454786D01*
X1429429Y455071D01*
X1433044Y458686D01*
X1435384D01*
X1435591Y458186D01*
X1422169Y444764D01*
X1421691Y444961D01*
X1420764Y445083D01*
X1419836Y444961D01*
X1418972Y444603D01*
X1418230Y444034D01*
X1417661Y443292D01*
X1417303Y442427D01*
X1417180Y441500D01*
X1417303Y440573D01*
X1417661Y439708D01*
X1418230Y438966D01*
X1418972Y438397D01*
X1419836Y438039D01*
X1420764Y437917D01*
X1421691Y438039D01*
X1422556Y438397D01*
X1423298Y438966D01*
X1423867Y439708D01*
X1424225Y440573D01*
X1424347Y441500D01*
X1424225Y442427D01*
X1424027Y442905D01*
X1437308Y456186D01*
X1496115D01*
X1496382Y456008D01*
X1497000Y455885D01*
X1497618Y456008D01*
X1498142Y456358D01*
X1498492Y456882D01*
X1498615Y457500D01*
X1498492Y458118D01*
X1498447Y458186D01*
X1498714Y458686D01*
X1500956D01*
X1516071Y443571D01*
X1516497Y443286D01*
X1517000Y443186D01*
X1547000D01*
X1547503Y443286D01*
X1547929Y443571D01*
X1555304Y450945D01*
X1555618Y451008D01*
X1556142Y451358D01*
X1556492Y451882D01*
X1556615Y452500D01*
X1556492Y453118D01*
X1556142Y453642D01*
X1555618Y453992D01*
X1555000Y454115D01*
X1554382Y453992D01*
X1553858Y453642D01*
X1553508Y453118D01*
X1553445Y452804D01*
X1546456Y445814D01*
X1517544D01*
X1502429Y460929D01*
X1502003Y461214D01*
X1501500Y461314D01*
D02*
G37*
G36*
X1544613Y450173D02*
X1543189D01*
Y448750D01*
X1543463Y448804D01*
X1544119Y449243D01*
X1544558Y449899D01*
X1544613Y450173D01*
D02*
G37*
G36*
X1580280Y458837D02*
X1579198Y458694D01*
X1578190Y458277D01*
X1577324Y457613D01*
X1576660Y456747D01*
X1576243Y455739D01*
X1576101Y454658D01*
X1576243Y453576D01*
X1576660Y452568D01*
X1577324Y451702D01*
X1578190Y451038D01*
X1579198Y450621D01*
X1580280Y450478D01*
X1581361Y450621D01*
X1582369Y451038D01*
X1583235Y451702D01*
X1583899Y452568D01*
X1584316Y453576D01*
X1584459Y454658D01*
X1584316Y455739D01*
X1583899Y456747D01*
X1583235Y457613D01*
X1582369Y458277D01*
X1581361Y458694D01*
X1580280Y458837D01*
D02*
G37*
G36*
X1542189Y450173D02*
X1540765D01*
X1540820Y449899D01*
X1541258Y449243D01*
X1541915Y448804D01*
X1542189Y448750D01*
Y450173D01*
D02*
G37*
G36*
X1580779Y449332D02*
Y445315D01*
X1584796D01*
X1584706Y446001D01*
X1584248Y447106D01*
X1583520Y448055D01*
X1582571Y448783D01*
X1581466Y449241D01*
X1580779Y449332D01*
D02*
G37*
G36*
X1497000Y449115D02*
X1496382Y448992D01*
X1496115Y448814D01*
X1451500D01*
X1450997Y448714D01*
X1450571Y448429D01*
X1424956Y422814D01*
X1424065D01*
X1423867Y423292D01*
X1423298Y424034D01*
X1422556Y424603D01*
X1421691Y424961D01*
X1420764Y425083D01*
X1419836Y424961D01*
X1418972Y424603D01*
X1418230Y424034D01*
X1417661Y423292D01*
X1417303Y422428D01*
X1417180Y421500D01*
X1417303Y420573D01*
X1417661Y419708D01*
X1418230Y418966D01*
X1418972Y418397D01*
X1419836Y418039D01*
X1420764Y417917D01*
X1421691Y418039D01*
X1422556Y418397D01*
X1423298Y418966D01*
X1423867Y419708D01*
X1424065Y420186D01*
X1425500D01*
X1426003Y420286D01*
X1426429Y420571D01*
X1452044Y446186D01*
X1496115D01*
X1496382Y446008D01*
X1497000Y445885D01*
X1497618Y446008D01*
X1498142Y446358D01*
X1498492Y446882D01*
X1498615Y447500D01*
X1498492Y448118D01*
X1498142Y448642D01*
X1497618Y448992D01*
X1497000Y449115D01*
D02*
G37*
G36*
X1513842Y442361D02*
X1513568Y442306D01*
X1512912Y441868D01*
X1512473Y441211D01*
X1512419Y440937D01*
X1513842D01*
Y442361D01*
D02*
G37*
G36*
X1516266Y439937D02*
X1514843D01*
Y438513D01*
X1515117Y438568D01*
X1515773Y439007D01*
X1516212Y439663D01*
X1516266Y439937D01*
D02*
G37*
G36*
X1347500Y439615D02*
X1346882Y439492D01*
X1346615Y439314D01*
X1322885D01*
X1322618Y439492D01*
X1322000Y439615D01*
X1321382Y439492D01*
X1320858Y439142D01*
X1320508Y438618D01*
X1320385Y438000D01*
X1320508Y437382D01*
X1320858Y436858D01*
X1321382Y436508D01*
X1322000Y436385D01*
X1322618Y436508D01*
X1322885Y436686D01*
X1346615D01*
X1346882Y436508D01*
X1347500Y436385D01*
X1348118Y436508D01*
X1348642Y436858D01*
X1348992Y437382D01*
X1349115Y438000D01*
X1348992Y438618D01*
X1348642Y439142D01*
X1348118Y439492D01*
X1347500Y439615D01*
D02*
G37*
G36*
X1513842Y439937D02*
X1512419D01*
X1512473Y439663D01*
X1512912Y439007D01*
X1513568Y438568D01*
X1513842Y438513D01*
Y439937D01*
D02*
G37*
G36*
X1497000Y439115D02*
X1496382Y438992D01*
X1496115Y438814D01*
X1456764D01*
X1456261Y438714D01*
X1455834Y438429D01*
X1422169Y404764D01*
X1421691Y404961D01*
X1420764Y405083D01*
X1419836Y404961D01*
X1418972Y404603D01*
X1418230Y404034D01*
X1417661Y403292D01*
X1417303Y402427D01*
X1417180Y401500D01*
X1417303Y400573D01*
X1417661Y399708D01*
X1418230Y398966D01*
X1418972Y398397D01*
X1419836Y398039D01*
X1420764Y397917D01*
X1421691Y398039D01*
X1422556Y398397D01*
X1423298Y398966D01*
X1423867Y399708D01*
X1424225Y400573D01*
X1424347Y401500D01*
X1424225Y402427D01*
X1424027Y402905D01*
X1457308Y436186D01*
X1496115D01*
X1496382Y436008D01*
X1497000Y435885D01*
X1497618Y436008D01*
X1498142Y436358D01*
X1498492Y436882D01*
X1498615Y437500D01*
X1498492Y438118D01*
X1498142Y438642D01*
X1497618Y438992D01*
X1497000Y439115D01*
D02*
G37*
G36*
X1391236Y445083D02*
X1390309Y444961D01*
X1389445Y444603D01*
X1388702Y444034D01*
X1388133Y443292D01*
X1387775Y442427D01*
X1387653Y441500D01*
X1387775Y440573D01*
X1388133Y439708D01*
X1388702Y438966D01*
X1389445Y438397D01*
X1390309Y438039D01*
X1391236Y437917D01*
X1392164Y438039D01*
X1393028Y438397D01*
X1393770Y438966D01*
X1394339Y439708D01*
X1394697Y440573D01*
X1394820Y441500D01*
X1394697Y442427D01*
X1394339Y443292D01*
X1393770Y444034D01*
X1393028Y444603D01*
X1392164Y444961D01*
X1391236Y445083D01*
D02*
G37*
G36*
X1135164Y442299D02*
X1133740D01*
Y440876D01*
X1134014Y440930D01*
X1134671Y441369D01*
X1135109Y442025D01*
X1135164Y442299D01*
D02*
G37*
G36*
X1497000Y444115D02*
X1496382Y443992D01*
X1496115Y443814D01*
X1452500D01*
X1451997Y443714D01*
X1451571Y443429D01*
X1422663Y414521D01*
X1422556Y414603D01*
X1421691Y414961D01*
X1420764Y415083D01*
X1419836Y414961D01*
X1418972Y414603D01*
X1418230Y414034D01*
X1417661Y413292D01*
X1417303Y412428D01*
X1417180Y411500D01*
X1417303Y410572D01*
X1417661Y409708D01*
X1418230Y408966D01*
X1418972Y408397D01*
X1419836Y408039D01*
X1420764Y407917D01*
X1421691Y408039D01*
X1422556Y408397D01*
X1423298Y408966D01*
X1423867Y409708D01*
X1424225Y410572D01*
X1424347Y411500D01*
X1424232Y412374D01*
X1453044Y441186D01*
X1496115D01*
X1496382Y441008D01*
X1497000Y440885D01*
X1497618Y441008D01*
X1498142Y441358D01*
X1498492Y441882D01*
X1498615Y442500D01*
X1498492Y443118D01*
X1498142Y443642D01*
X1497618Y443992D01*
X1497000Y444115D01*
D02*
G37*
G36*
X1132740Y442299D02*
X1131316D01*
X1131371Y442025D01*
X1131810Y441369D01*
X1132466Y440930D01*
X1132740Y440876D01*
Y442299D01*
D02*
G37*
G36*
X1584796Y444315D02*
X1580779D01*
Y440298D01*
X1581466Y440389D01*
X1582571Y440846D01*
X1583520Y441575D01*
X1584248Y442524D01*
X1584706Y443629D01*
X1584796Y444315D01*
D02*
G37*
G36*
X1579780D02*
X1575763D01*
X1575853Y443629D01*
X1576311Y442524D01*
X1577039Y441575D01*
X1577988Y440846D01*
X1579093Y440389D01*
X1579780Y440298D01*
Y444315D01*
D02*
G37*
G36*
X1451457Y470707D02*
Y469283D01*
X1452880D01*
X1452826Y469558D01*
X1452387Y470214D01*
X1451731Y470653D01*
X1451457Y470707D01*
D02*
G37*
G36*
X1288707Y485606D02*
X1287284D01*
Y484183D01*
X1287558Y484237D01*
X1288214Y484676D01*
X1288653Y485332D01*
X1288707Y485606D01*
D02*
G37*
G36*
X1491008D02*
X1489584D01*
X1489639Y485332D01*
X1490077Y484676D01*
X1490734Y484237D01*
X1491008Y484183D01*
Y485606D01*
D02*
G37*
G36*
X1286283D02*
X1284860D01*
X1284914Y485332D01*
X1285353Y484676D01*
X1286009Y484237D01*
X1286283Y484183D01*
Y485606D01*
D02*
G37*
G36*
X1270535D02*
X1269112D01*
X1269166Y485332D01*
X1269605Y484676D01*
X1270261Y484237D01*
X1270535Y484183D01*
Y485606D01*
D02*
G37*
G36*
X1272959D02*
X1271535D01*
Y484183D01*
X1271810Y484237D01*
X1272466Y484676D01*
X1272905Y485332D01*
X1272959Y485606D01*
D02*
G37*
G36*
X1286283Y488030D02*
X1286009Y487975D01*
X1285353Y487537D01*
X1284914Y486880D01*
X1284860Y486606D01*
X1286283D01*
Y488030D01*
D02*
G37*
G36*
X1287284D02*
Y486606D01*
X1288707D01*
X1288653Y486880D01*
X1288214Y487537D01*
X1287558Y487975D01*
X1287284Y488030D01*
D02*
G37*
G36*
X1271535D02*
Y486606D01*
X1272959D01*
X1272905Y486880D01*
X1272466Y487537D01*
X1271810Y487975D01*
X1271535Y488030D01*
D02*
G37*
G36*
X1493431Y485606D02*
X1492008D01*
Y484183D01*
X1492282Y484237D01*
X1492938Y484676D01*
X1493377Y485332D01*
X1493431Y485606D01*
D02*
G37*
G36*
X1270535Y488030D02*
X1270261Y487975D01*
X1269605Y487537D01*
X1269166Y486880D01*
X1269112Y486606D01*
X1270535D01*
Y488030D01*
D02*
G37*
G36*
X1256000Y491131D02*
X1255060Y491007D01*
X1254185Y490645D01*
X1253432Y490068D01*
X1252855Y489316D01*
X1252493Y488440D01*
X1252369Y487500D01*
X1252493Y486560D01*
X1252855Y485684D01*
X1253432Y484932D01*
X1254185Y484355D01*
X1255060Y483993D01*
X1256000Y483869D01*
X1256940Y483993D01*
X1257815Y484355D01*
X1258568Y484932D01*
X1259145Y485684D01*
X1259507Y486560D01*
X1259631Y487500D01*
X1259507Y488440D01*
X1259145Y489316D01*
X1258568Y490068D01*
X1257815Y490645D01*
X1256940Y491007D01*
X1256000Y491131D01*
D02*
G37*
G36*
X1229969Y487000D02*
X1226500D01*
Y483531D01*
X1227044Y483603D01*
X1228017Y484006D01*
X1228853Y484647D01*
X1229494Y485483D01*
X1229897Y486456D01*
X1229969Y487000D01*
D02*
G37*
G36*
X1239969D02*
X1236500D01*
Y483531D01*
X1237044Y483603D01*
X1238017Y484006D01*
X1238853Y484647D01*
X1239494Y485483D01*
X1239897Y486456D01*
X1239969Y487000D01*
D02*
G37*
G36*
X1235500D02*
X1232031D01*
X1232103Y486456D01*
X1232506Y485483D01*
X1233147Y484647D01*
X1233983Y484006D01*
X1234956Y483603D01*
X1235500Y483531D01*
Y487000D01*
D02*
G37*
G36*
X1437526Y482850D02*
X1436102D01*
Y481427D01*
X1436377Y481481D01*
X1437033Y481920D01*
X1437471Y482576D01*
X1437526Y482850D01*
D02*
G37*
G36*
X1225500Y487000D02*
X1222031D01*
X1222103Y486456D01*
X1222506Y485483D01*
X1223147Y484647D01*
X1223983Y484006D01*
X1224956Y483603D01*
X1225500Y483531D01*
Y487000D01*
D02*
G37*
G36*
X1216000Y491131D02*
X1215060Y491007D01*
X1214184Y490645D01*
X1213433Y490068D01*
X1212855Y489316D01*
X1212493Y488440D01*
X1212369Y487500D01*
X1212493Y486560D01*
X1212855Y485684D01*
X1213433Y484932D01*
X1214184Y484355D01*
X1215060Y483993D01*
X1216000Y483869D01*
X1216940Y483993D01*
X1217815Y484355D01*
X1218567Y484932D01*
X1219145Y485684D01*
X1219507Y486560D01*
X1219631Y487500D01*
X1219507Y488440D01*
X1219145Y489316D01*
X1218567Y490068D01*
X1217815Y490645D01*
X1216940Y491007D01*
X1216000Y491131D01*
D02*
G37*
G36*
X1246000D02*
X1245060Y491007D01*
X1244184Y490645D01*
X1243433Y490068D01*
X1242855Y489316D01*
X1242493Y488440D01*
X1242369Y487500D01*
X1242493Y486560D01*
X1242855Y485684D01*
X1243433Y484932D01*
X1244184Y484355D01*
X1245060Y483993D01*
X1246000Y483869D01*
X1246940Y483993D01*
X1247816Y484355D01*
X1248567Y484932D01*
X1249145Y485684D01*
X1249507Y486560D01*
X1249631Y487500D01*
X1249507Y488440D01*
X1249145Y489316D01*
X1248567Y490068D01*
X1247816Y490645D01*
X1246940Y491007D01*
X1246000Y491131D01*
D02*
G37*
G36*
X1436102Y485274D02*
Y483850D01*
X1437526D01*
X1437471Y484125D01*
X1437033Y484781D01*
X1436377Y485219D01*
X1436102Y485274D01*
D02*
G37*
G36*
X1473921Y521171D02*
X1472840Y521029D01*
X1471832Y520611D01*
X1470966Y519947D01*
X1470302Y519082D01*
X1469885Y518074D01*
X1469742Y516992D01*
X1469885Y515910D01*
X1470302Y514903D01*
X1470966Y514037D01*
X1471832Y513373D01*
X1472105Y513260D01*
Y489674D01*
X1469748Y487316D01*
X1466500D01*
X1465805Y487178D01*
X1465216Y486784D01*
X1464822Y486195D01*
X1464684Y485500D01*
X1464822Y484805D01*
X1465216Y484216D01*
X1465805Y483822D01*
X1466500Y483684D01*
X1470500D01*
X1471195Y483822D01*
X1471784Y484216D01*
X1475205Y487637D01*
X1475599Y488226D01*
X1475737Y488921D01*
Y513260D01*
X1476011Y513373D01*
X1476876Y514037D01*
X1477540Y514903D01*
X1477958Y515910D01*
X1478100Y516992D01*
X1477958Y518074D01*
X1477540Y519082D01*
X1476876Y519947D01*
X1476011Y520611D01*
X1475003Y521029D01*
X1473921Y521171D01*
D02*
G37*
G36*
X1435102Y485274D02*
X1434828Y485219D01*
X1434172Y484781D01*
X1433733Y484125D01*
X1433679Y483850D01*
X1435102D01*
Y485274D01*
D02*
G37*
G36*
X1491008Y488030D02*
X1490734Y487975D01*
X1490077Y487537D01*
X1489639Y486880D01*
X1489584Y486606D01*
X1491008D01*
Y488030D01*
D02*
G37*
G36*
X1101244Y491967D02*
X1100970Y491912D01*
X1100313Y491474D01*
X1099875Y490817D01*
X1099820Y490543D01*
X1101244D01*
Y491967D01*
D02*
G37*
G36*
X1102244D02*
Y490543D01*
X1103668D01*
X1103613Y490817D01*
X1103175Y491474D01*
X1102518Y491912D01*
X1102244Y491967D01*
D02*
G37*
G36*
X1082559D02*
Y490543D01*
X1083983D01*
X1083928Y490817D01*
X1083490Y491474D01*
X1082833Y491912D01*
X1082559Y491967D01*
D02*
G37*
G36*
X1340000Y492615D02*
X1339382Y492492D01*
X1338858Y492142D01*
X1338508Y491618D01*
X1338385Y491000D01*
X1338391Y490966D01*
X1335592Y488167D01*
X1335049Y488331D01*
X1334992Y488618D01*
X1334642Y489142D01*
X1334118Y489492D01*
X1333500Y489615D01*
X1332882Y489492D01*
X1332358Y489142D01*
X1332339Y489114D01*
X1327461D01*
X1326109Y490466D01*
X1326115Y490500D01*
X1325992Y491118D01*
X1325642Y491642D01*
X1325118Y491992D01*
X1324500Y492115D01*
X1323882Y491992D01*
X1323358Y491642D01*
X1323008Y491118D01*
X1322885Y490500D01*
X1323008Y489882D01*
X1323358Y489358D01*
X1323882Y489008D01*
X1324500Y488885D01*
X1324534Y488891D01*
X1325942Y487483D01*
X1325813Y486905D01*
X1325771Y486890D01*
X1325618Y486992D01*
X1325000Y487115D01*
X1324382Y486992D01*
X1323858Y486642D01*
X1323508Y486118D01*
X1323385Y485500D01*
X1323508Y484882D01*
X1323858Y484358D01*
X1324382Y484008D01*
X1325000Y483885D01*
X1325618Y484008D01*
X1326142Y484358D01*
X1326161Y484386D01*
X1334500D01*
X1334926Y484471D01*
X1335287Y484713D01*
X1339966Y489391D01*
X1340000Y489385D01*
X1340618Y489508D01*
X1341142Y489858D01*
X1341492Y490382D01*
X1341615Y491000D01*
X1341492Y491618D01*
X1341142Y492142D01*
X1340618Y492492D01*
X1340000Y492615D01*
D02*
G37*
G36*
X1081559Y491967D02*
X1081285Y491912D01*
X1080628Y491474D01*
X1080190Y490817D01*
X1080135Y490543D01*
X1081559D01*
Y491967D01*
D02*
G37*
G36*
X1568235Y493480D02*
X1566811D01*
Y492057D01*
X1567085Y492111D01*
X1567742Y492550D01*
X1568180Y493206D01*
X1568235Y493480D01*
D02*
G37*
G36*
X1585496D02*
X1584072D01*
X1584127Y493206D01*
X1584566Y492550D01*
X1585222Y492111D01*
X1585496Y492057D01*
Y493480D01*
D02*
G37*
G36*
X1565811D02*
X1564387D01*
X1564442Y493206D01*
X1564880Y492550D01*
X1565537Y492111D01*
X1565811Y492057D01*
Y493480D01*
D02*
G37*
G36*
X1128803Y491967D02*
X1128529Y491912D01*
X1127873Y491474D01*
X1127434Y490817D01*
X1127380Y490543D01*
X1128803D01*
Y491967D01*
D02*
G37*
G36*
X1129803D02*
Y490543D01*
X1131227D01*
X1131172Y490817D01*
X1130734Y491474D01*
X1130077Y491912D01*
X1129803Y491967D01*
D02*
G37*
G36*
X1131227Y489543D02*
X1129803D01*
Y488120D01*
X1130077Y488174D01*
X1130734Y488613D01*
X1131172Y489269D01*
X1131227Y489543D01*
D02*
G37*
G36*
X1226500Y491469D02*
Y488000D01*
X1229969D01*
X1229897Y488544D01*
X1229494Y489517D01*
X1228853Y490353D01*
X1228017Y490994D01*
X1227044Y491397D01*
X1226500Y491469D01*
D02*
G37*
G36*
X1236500D02*
Y488000D01*
X1239969D01*
X1239897Y488544D01*
X1239494Y489517D01*
X1238853Y490353D01*
X1238017Y490994D01*
X1237044Y491397D01*
X1236500Y491469D01*
D02*
G37*
G36*
X1235500D02*
X1234956Y491397D01*
X1233983Y490994D01*
X1233147Y490353D01*
X1232506Y489517D01*
X1232103Y488544D01*
X1232031Y488000D01*
X1235500D01*
Y491469D01*
D02*
G37*
G36*
X1492008Y488030D02*
Y486606D01*
X1493431D01*
X1493377Y486880D01*
X1492938Y487537D01*
X1492282Y487975D01*
X1492008Y488030D01*
D02*
G37*
G36*
X1225500Y491469D02*
X1224956Y491397D01*
X1223983Y490994D01*
X1223147Y490353D01*
X1222506Y489517D01*
X1222103Y488544D01*
X1222031Y488000D01*
X1225500D01*
Y491469D01*
D02*
G37*
G36*
X1103668Y489543D02*
X1102244D01*
Y488120D01*
X1102518Y488174D01*
X1103175Y488613D01*
X1103613Y489269D01*
X1103668Y489543D01*
D02*
G37*
G36*
X1128803D02*
X1127380D01*
X1127434Y489269D01*
X1127873Y488613D01*
X1128529Y488174D01*
X1128803Y488120D01*
Y489543D01*
D02*
G37*
G36*
X1101244D02*
X1099820D01*
X1099875Y489269D01*
X1100313Y488613D01*
X1100970Y488174D01*
X1101244Y488120D01*
Y489543D01*
D02*
G37*
G36*
X1081559D02*
X1080135D01*
X1080190Y489269D01*
X1080628Y488613D01*
X1081285Y488174D01*
X1081559Y488120D01*
Y489543D01*
D02*
G37*
G36*
X1083983D02*
X1082559D01*
Y488120D01*
X1082833Y488174D01*
X1083490Y488613D01*
X1083928Y489269D01*
X1083983Y489543D01*
D02*
G37*
G36*
X1435102Y482850D02*
X1433679D01*
X1433733Y482576D01*
X1434172Y481920D01*
X1434828Y481481D01*
X1435102Y481427D01*
Y482850D01*
D02*
G37*
G36*
X1368961Y473795D02*
X1367537D01*
X1367591Y473521D01*
X1368030Y472865D01*
X1368686Y472426D01*
X1368961Y472372D01*
Y473795D01*
D02*
G37*
G36*
X1371384D02*
X1369961D01*
Y472372D01*
X1370235Y472426D01*
X1370891Y472865D01*
X1371330Y473521D01*
X1371384Y473795D01*
D02*
G37*
G36*
X1194219D02*
X1192795D01*
Y472372D01*
X1193069Y472426D01*
X1193726Y472865D01*
X1194164Y473521D01*
X1194219Y473795D01*
D02*
G37*
G36*
X1174534D02*
X1173110D01*
Y472372D01*
X1173384Y472426D01*
X1174041Y472865D01*
X1174479Y473521D01*
X1174534Y473795D01*
D02*
G37*
G36*
X1191795D02*
X1190372D01*
X1190426Y473521D01*
X1190865Y472865D01*
X1191521Y472426D01*
X1191795Y472372D01*
Y473795D01*
D02*
G37*
G36*
X1568235D02*
X1566811D01*
Y472372D01*
X1567085Y472426D01*
X1567742Y472865D01*
X1568180Y473521D01*
X1568235Y473795D01*
D02*
G37*
G36*
X1585496D02*
X1584072D01*
X1584127Y473521D01*
X1584566Y472865D01*
X1585222Y472426D01*
X1585496Y472372D01*
Y473795D01*
D02*
G37*
G36*
X1565811D02*
X1564387D01*
X1564442Y473521D01*
X1564880Y472865D01*
X1565537Y472426D01*
X1565811Y472372D01*
Y473795D01*
D02*
G37*
G36*
X1408331D02*
X1406907D01*
X1406962Y473521D01*
X1407400Y472865D01*
X1408057Y472426D01*
X1408331Y472372D01*
Y473795D01*
D02*
G37*
G36*
X1410754D02*
X1409331D01*
Y472372D01*
X1409605Y472426D01*
X1410261Y472865D01*
X1410700Y473521D01*
X1410754Y473795D01*
D02*
G37*
G36*
X1172110D02*
X1170687D01*
X1170741Y473521D01*
X1171180Y472865D01*
X1171836Y472426D01*
X1172110Y472372D01*
Y473795D01*
D02*
G37*
G36*
X1110118Y472282D02*
Y470858D01*
X1111542D01*
X1111487Y471133D01*
X1111049Y471789D01*
X1110392Y472227D01*
X1110118Y472282D01*
D02*
G37*
G36*
X1093370Y473795D02*
X1091946D01*
X1092001Y473521D01*
X1092439Y472865D01*
X1093096Y472426D01*
X1093370Y472372D01*
Y473795D01*
D02*
G37*
G36*
X1109118Y472282D02*
X1108844Y472227D01*
X1108188Y471789D01*
X1107749Y471133D01*
X1107694Y470858D01*
X1109118D01*
Y472282D01*
D02*
G37*
G36*
X1097307D02*
X1097033Y472227D01*
X1096377Y471789D01*
X1095938Y471133D01*
X1095883Y470858D01*
X1097307D01*
Y472282D01*
D02*
G37*
G36*
X1098307D02*
Y470858D01*
X1099731D01*
X1099676Y471133D01*
X1099238Y471789D01*
X1098581Y472227D01*
X1098307Y472282D01*
D02*
G37*
G36*
X1152425Y473795D02*
X1151001D01*
X1151056Y473521D01*
X1151495Y472865D01*
X1152151Y472426D01*
X1152425Y472372D01*
Y473795D01*
D02*
G37*
G36*
X1154849D02*
X1153425D01*
Y472372D01*
X1153699Y472426D01*
X1154356Y472865D01*
X1154794Y473521D01*
X1154849Y473795D01*
D02*
G37*
G36*
X1135164D02*
X1133740D01*
Y472372D01*
X1134014Y472426D01*
X1134671Y472865D01*
X1135109Y473521D01*
X1135164Y473795D01*
D02*
G37*
G36*
X1095794D02*
X1094370D01*
Y472372D01*
X1094644Y472426D01*
X1095301Y472865D01*
X1095739Y473521D01*
X1095794Y473795D01*
D02*
G37*
G36*
X1132740D02*
X1131316D01*
X1131371Y473521D01*
X1131810Y472865D01*
X1132466Y472426D01*
X1132740Y472372D01*
Y473795D01*
D02*
G37*
G36*
X1587920D02*
X1586496D01*
Y472372D01*
X1586770Y472426D01*
X1587427Y472865D01*
X1587865Y473521D01*
X1587920Y473795D01*
D02*
G37*
G36*
X1586496Y476219D02*
Y474795D01*
X1587920D01*
X1587865Y475070D01*
X1587427Y475726D01*
X1586770Y476164D01*
X1586496Y476219D01*
D02*
G37*
G36*
X1546126Y477732D02*
X1544702D01*
X1544757Y477458D01*
X1545195Y476802D01*
X1545852Y476363D01*
X1546126Y476309D01*
Y477732D01*
D02*
G37*
G36*
X1585496Y476219D02*
X1585222Y476164D01*
X1584566Y475726D01*
X1584127Y475070D01*
X1584072Y474795D01*
X1585496D01*
Y476219D01*
D02*
G37*
G36*
X1565811D02*
X1565537Y476164D01*
X1564880Y475726D01*
X1564442Y475070D01*
X1564387Y474795D01*
X1565811D01*
Y476219D01*
D02*
G37*
G36*
X1566811D02*
Y474795D01*
X1568235D01*
X1568180Y475070D01*
X1567742Y475726D01*
X1567085Y476164D01*
X1566811Y476219D01*
D02*
G37*
G36*
X1463842Y482518D02*
X1463568Y482464D01*
X1462912Y482025D01*
X1462473Y481369D01*
X1462419Y481095D01*
X1463842D01*
Y482518D01*
D02*
G37*
G36*
X1464843D02*
Y481095D01*
X1466266D01*
X1466212Y481369D01*
X1465773Y482025D01*
X1465117Y482464D01*
X1464843Y482518D01*
D02*
G37*
G36*
X1547126Y480156D02*
Y478732D01*
X1548550D01*
X1548495Y479006D01*
X1548057Y479663D01*
X1547400Y480101D01*
X1547126Y480156D01*
D02*
G37*
G36*
X1548550Y477732D02*
X1547126D01*
Y476309D01*
X1547400Y476363D01*
X1548057Y476802D01*
X1548495Y477458D01*
X1548550Y477732D01*
D02*
G37*
G36*
X1546126Y480156D02*
X1545852Y480101D01*
X1545195Y479663D01*
X1544757Y479006D01*
X1544702Y478732D01*
X1546126D01*
Y480156D01*
D02*
G37*
G36*
X1192795Y476219D02*
Y474795D01*
X1194219D01*
X1194164Y475070D01*
X1193726Y475726D01*
X1193069Y476164D01*
X1192795Y476219D01*
D02*
G37*
G36*
X1132740D02*
X1132466Y476164D01*
X1131810Y475726D01*
X1131371Y475070D01*
X1131316Y474795D01*
X1132740D01*
Y476219D01*
D02*
G37*
G36*
X1133740D02*
Y474795D01*
X1135164D01*
X1135109Y475070D01*
X1134671Y475726D01*
X1134014Y476164D01*
X1133740Y476219D01*
D02*
G37*
G36*
X1094370D02*
Y474795D01*
X1095794D01*
X1095739Y475070D01*
X1095301Y475726D01*
X1094644Y476164D01*
X1094370Y476219D01*
D02*
G37*
G36*
X1224500Y513316D02*
X1223805Y513178D01*
X1223216Y512784D01*
X1220248Y509816D01*
X1206500D01*
X1205805Y509678D01*
X1205216Y509284D01*
X1202216Y506284D01*
X1201822Y505695D01*
X1201684Y505000D01*
Y476000D01*
X1201822Y475305D01*
X1202216Y474716D01*
X1202805Y474322D01*
X1203500Y474184D01*
X1204195Y474322D01*
X1204784Y474716D01*
X1205178Y475305D01*
X1205316Y476000D01*
Y504248D01*
X1207252Y506184D01*
X1221000D01*
X1221695Y506322D01*
X1222284Y506716D01*
X1225784Y510216D01*
X1226178Y510805D01*
X1226316Y511500D01*
X1226178Y512195D01*
X1225784Y512784D01*
X1225195Y513178D01*
X1224500Y513316D01*
D02*
G37*
G36*
X1093370Y476219D02*
X1093096Y476164D01*
X1092439Y475726D01*
X1092001Y475070D01*
X1091946Y474795D01*
X1093370D01*
Y476219D01*
D02*
G37*
G36*
X1173110D02*
Y474795D01*
X1174534D01*
X1174479Y475070D01*
X1174041Y475726D01*
X1173384Y476164D01*
X1173110Y476219D01*
D02*
G37*
G36*
X1191795D02*
X1191521Y476164D01*
X1190865Y475726D01*
X1190426Y475070D01*
X1190372Y474795D01*
X1191795D01*
Y476219D01*
D02*
G37*
G36*
X1172110D02*
X1171836Y476164D01*
X1171180Y475726D01*
X1170741Y475070D01*
X1170687Y474795D01*
X1172110D01*
Y476219D01*
D02*
G37*
G36*
X1152425D02*
X1152151Y476164D01*
X1151495Y475726D01*
X1151056Y475070D01*
X1151001Y474795D01*
X1152425D01*
Y476219D01*
D02*
G37*
G36*
X1153425D02*
Y474795D01*
X1154849D01*
X1154794Y475070D01*
X1154356Y475726D01*
X1153699Y476164D01*
X1153425Y476219D01*
D02*
G37*
%LPD*%
D32*
X1376000Y347000D02*
Y387500D01*
X1503000Y482000D02*
X1516000Y469000D01*
X1503000Y482000D02*
Y485000D01*
X1164000Y528000D02*
X1194000D01*
X1159000Y523000D02*
X1164000Y528000D01*
X1473921Y488921D02*
Y516992D01*
X1470500Y485500D02*
X1473921Y488921D01*
X1466500Y485500D02*
X1470500D01*
X1203500Y476000D02*
Y505000D01*
X1206500Y508000D01*
X1221000D01*
X1224500Y511500D01*
D33*
X1150000Y346000D02*
X1169000D01*
X1185421Y362421D01*
Y373508D01*
X1115500Y433587D02*
X1175579Y373508D01*
X1115500Y467000D02*
X1116500Y468000D01*
Y496000D01*
X1127000Y506500D01*
X1161500D01*
X1171992Y516992D01*
X1177079D01*
X1115500Y433587D02*
Y467000D01*
D35*
X1316000Y363378D02*
Y395500D01*
Y363378D02*
X1316158Y363221D01*
X1358500Y363378D02*
Y393000D01*
Y363378D02*
X1358657Y363221D01*
X1401000Y363378D02*
Y384000D01*
Y363378D02*
X1401157Y363221D01*
X1443000Y363378D02*
Y381000D01*
Y363378D02*
X1443157Y363221D01*
X1484500Y363378D02*
Y378500D01*
Y363378D02*
X1484657Y363221D01*
X1241079Y373508D02*
Y449079D01*
X1273579Y373508D02*
X1283571Y383500D01*
X1295500D01*
X1298500Y386500D01*
Y398500D01*
X1310500Y399000D02*
X1318000Y406500D01*
X1310500Y383000D02*
Y399000D01*
X1308500Y381000D02*
X1310500Y383000D01*
X1296000Y381000D02*
X1308500D01*
X1290500Y375500D02*
X1296000Y381000D01*
X1290500Y370000D02*
Y375500D01*
X1287000Y366500D02*
X1290500Y370000D01*
X1210500Y366500D02*
X1287000D01*
X1208579Y368421D02*
X1210500Y366500D01*
X1208579Y368421D02*
Y373508D01*
X1451000Y452500D02*
X1497000D01*
X1430000Y431500D02*
X1451000Y452500D01*
X1420764Y431500D02*
X1430000D01*
X1451500Y447500D02*
X1497000D01*
X1425500Y421500D02*
X1451500Y447500D01*
X1420764Y421500D02*
X1425500D01*
X1452500Y442500D02*
X1497000D01*
X1421500Y411500D02*
X1452500Y442500D01*
X1420764Y411500D02*
X1421500D01*
X1420764Y401500D02*
X1456764Y437500D01*
X1457500D01*
X1456764D02*
X1497000D01*
X1461764Y432500D02*
X1497000D01*
X1420764Y391500D02*
X1461764Y432500D01*
X1260500Y520500D02*
X1285500Y495500D01*
X1250000Y520500D02*
X1260500D01*
X1318000Y406500D02*
Y414000D01*
X1322000Y438000D02*
X1347500D01*
X1261000Y425000D02*
X1371737D01*
X1390238Y406500D01*
X1257500Y428000D02*
X1375000D01*
X1386500Y416500D01*
X1394500D01*
X1398500Y412500D01*
Y406000D02*
Y412500D01*
X1390238Y406500D02*
X1393500D01*
X1417000Y383000D01*
X1566965D02*
X1580280Y396315D01*
X1417000Y383000D02*
X1441785D01*
X1442058Y383273D01*
X1443942D01*
X1444215Y383000D01*
X1566965D01*
X1398500Y406000D02*
X1419000Y385500D01*
X1558500D01*
X1579158Y406157D01*
X1580280D01*
X1432500Y460000D02*
X1501500D01*
X1428500Y456000D02*
X1432500Y460000D01*
X1367000Y456000D02*
X1428500D01*
X1351000Y440000D02*
X1367000Y456000D01*
X1351000Y434000D02*
Y440000D01*
X1348000Y431000D02*
X1351000Y434000D01*
X1314500Y431000D02*
X1348000D01*
X1241079Y449079D02*
X1260500Y468500D01*
X1300500D01*
X1305500Y473500D01*
X1436764Y457500D02*
X1497000D01*
X1420764Y441500D02*
X1436764Y457500D01*
X1501500Y460000D02*
X1517000Y444500D01*
X1547000D01*
X1555000Y452500D01*
X1521500Y451000D02*
X1530500D01*
X1495500Y477000D02*
X1521500Y451000D01*
X1322000Y477000D02*
X1495500D01*
X1318000Y434000D02*
Y452500D01*
X1321500Y442500D02*
Y457000D01*
X1310000Y468500D02*
X1321500Y457000D01*
X1310000Y468500D02*
Y475500D01*
X1290000Y495500D02*
X1310000Y475500D01*
X1285500Y495500D02*
X1290000D01*
X1314000Y469000D02*
X1322000Y477000D01*
X1300000Y455000D02*
X1309500Y464500D01*
X1289500Y455000D02*
X1300000D01*
D36*
X1502000Y424000D02*
Y430000D01*
X1327000Y488000D02*
X1333500D01*
X1324500Y490500D02*
X1327000Y488000D01*
X1279000Y480500D02*
Y493500D01*
X1274000Y475500D02*
X1279000Y480500D01*
X1274000Y473000D02*
Y475500D01*
X1281500Y471000D02*
Y491500D01*
X1283500Y493500D01*
X1325000Y485500D02*
X1334500D01*
X1340000Y491000D01*
X1519500Y448000D02*
X1533000D01*
X1495000Y472500D02*
X1519500Y448000D01*
X1435000Y472500D02*
X1495000D01*
X1429500Y467000D02*
X1435000Y472500D01*
X1319000Y467000D02*
X1429500D01*
X1318000Y466000D02*
X1319000Y467000D01*
X1304000Y452000D02*
X1313000Y461000D01*
X1287500Y452000D02*
X1304000D01*
X1285000Y454500D02*
X1287500Y452000D01*
D37*
X1553500Y463000D02*
Y475000D01*
X1343500Y368535D02*
Y398000D01*
Y368535D02*
X1348815Y363221D01*
X1362000Y341500D02*
X1382500D01*
X1391000Y350000D01*
Y362906D01*
X1391315Y363221D01*
X1391000Y350000D02*
X1395000Y354000D01*
X1465594D02*
X1474815Y363221D01*
X1424094Y354000D02*
X1433315Y363221D01*
X1395000Y354000D02*
X1424094D01*
X1465594D01*
X1348815Y354685D02*
Y363221D01*
Y354685D02*
X1362000Y341500D01*
X1329965Y355000D02*
X1343500Y368535D01*
X1307000Y355000D02*
X1329965D01*
X1305000Y357000D02*
X1307000Y355000D01*
X1305000Y357000D02*
Y361906D01*
X1306315Y363221D01*
X1333000Y398000D02*
X1343500D01*
X1321500Y409500D02*
X1333000Y398000D01*
D38*
X1535000Y422342D02*
D03*
Y402658D02*
D03*
X1216000Y487500D02*
D03*
Y497500D02*
D03*
X1226000Y487500D02*
D03*
Y497500D02*
D03*
X1236000Y487500D02*
D03*
Y497500D02*
D03*
X1246000Y487500D02*
D03*
Y497500D02*
D03*
X1256000Y487500D02*
D03*
Y497500D02*
D03*
D39*
X1391236Y481500D02*
D03*
Y471500D02*
D03*
Y461500D02*
D03*
Y451500D02*
D03*
Y441500D02*
D03*
Y431500D02*
D03*
Y421500D02*
D03*
Y411500D02*
D03*
Y401500D02*
D03*
Y391500D02*
D03*
X1420764D02*
D03*
Y401500D02*
D03*
Y411500D02*
D03*
Y421500D02*
D03*
Y431500D02*
D03*
Y441500D02*
D03*
Y451500D02*
D03*
Y461500D02*
D03*
Y471500D02*
D03*
Y481500D02*
D03*
D40*
X1306315Y363221D02*
D03*
X1316158D02*
D03*
X1326000D02*
D03*
X1348815D02*
D03*
X1358657D02*
D03*
X1368500D02*
D03*
X1391315D02*
D03*
X1401157D02*
D03*
X1411000D02*
D03*
X1433315D02*
D03*
X1443157D02*
D03*
X1453000D02*
D03*
X1474815D02*
D03*
X1484657D02*
D03*
X1494500D02*
D03*
X1218421Y373508D02*
D03*
X1208579D02*
D03*
X1250921D02*
D03*
X1241079D02*
D03*
X1283421D02*
D03*
X1273579D02*
D03*
X1185421D02*
D03*
X1175579D02*
D03*
X1440185Y527280D02*
D03*
X1430342D02*
D03*
X1420500D02*
D03*
X1363185D02*
D03*
X1353343D02*
D03*
X1343500D02*
D03*
X1580280Y416000D02*
D03*
Y406157D02*
D03*
Y396315D02*
D03*
Y386472D02*
D03*
Y444815D02*
D03*
Y454658D02*
D03*
Y464500D02*
D03*
X1177079Y516992D02*
D03*
X1186921D02*
D03*
X1386579D02*
D03*
X1396421D02*
D03*
X1308079D02*
D03*
X1317921D02*
D03*
X1464079D02*
D03*
X1473921D02*
D03*
D41*
X1546626Y478232D02*
D03*
X1542689Y450673D02*
D03*
X1491508Y466421D02*
D03*
X1204106Y407366D02*
D03*
X1145051Y364059D02*
D03*
Y371933D02*
D03*
Y387681D02*
D03*
X1125366Y434925D02*
D03*
X1133240Y442799D02*
D03*
X1109618Y470358D02*
D03*
X1097807D02*
D03*
X1101744Y490043D02*
D03*
X1085996Y497917D02*
D03*
X1082059Y490043D02*
D03*
X1129303D02*
D03*
X1121429Y525476D02*
D03*
Y521539D02*
D03*
Y513665D02*
D03*
Y533350D02*
D03*
X1085996Y513665D02*
D03*
X1271035Y486106D02*
D03*
X1286784D02*
D03*
X1306468Y466421D02*
D03*
X1274972Y462484D02*
D03*
X1310406Y430988D02*
D03*
X1491508Y486106D02*
D03*
X1475760Y470358D02*
D03*
X1514342Y440437D02*
D03*
X1316000Y395500D02*
D03*
X1358500Y393000D02*
D03*
X1401000Y384000D02*
D03*
X1443000Y381000D02*
D03*
X1484500Y378500D02*
D03*
X1305500Y473500D02*
D03*
X1298500Y398500D02*
D03*
X1318000Y452500D02*
D03*
X1497000Y457500D02*
D03*
Y452500D02*
D03*
Y447500D02*
D03*
Y442500D02*
D03*
Y437500D02*
D03*
Y432500D02*
D03*
X1376000Y387500D02*
D03*
Y347000D02*
D03*
X1502000Y424000D02*
D03*
Y430000D02*
D03*
X1516000Y469000D02*
D03*
X1503000Y485000D02*
D03*
X1553500Y475000D02*
D03*
Y463000D02*
D03*
X1343500Y398000D02*
D03*
X1321500Y409500D02*
D03*
Y442500D02*
D03*
X1250000Y520500D02*
D03*
X1150000Y346000D02*
D03*
X1194000Y528000D02*
D03*
X1159000Y523000D02*
D03*
X1318000Y414000D02*
D03*
Y434000D02*
D03*
X1322000Y438000D02*
D03*
X1347500D02*
D03*
X1466500Y485500D02*
D03*
X1203500Y476000D02*
D03*
X1224500Y511500D02*
D03*
X1261000Y425000D02*
D03*
X1257500Y428000D02*
D03*
X1555000Y452500D02*
D03*
X1314500Y431000D02*
D03*
X1333500Y488000D02*
D03*
X1324500Y490500D02*
D03*
X1279000Y493500D02*
D03*
X1274000Y473000D02*
D03*
X1281500Y471000D02*
D03*
X1283500Y493500D02*
D03*
X1325000Y485500D02*
D03*
X1340000Y491000D02*
D03*
X1530500Y451000D02*
D03*
X1285000Y454500D02*
D03*
X1314000Y469000D02*
D03*
X1309500Y464500D02*
D03*
X1289500Y455000D02*
D03*
X1533000Y448000D02*
D03*
X1318000Y466000D02*
D03*
X1313000Y461000D02*
D03*
X1074185Y434925D02*
D03*
X1093870Y415240D02*
D03*
Y395555D02*
D03*
X1113555Y415240D02*
D03*
Y395555D02*
D03*
X1133240D02*
D03*
X1113555Y375870D02*
D03*
X1133240D02*
D03*
X1113555Y356185D02*
D03*
X1133240D02*
D03*
X1152925Y415240D02*
D03*
Y375870D02*
D03*
Y356185D02*
D03*
X1172610D02*
D03*
X1192295D02*
D03*
Y375870D02*
D03*
X1172610Y395555D02*
D03*
X1192295D02*
D03*
Y415240D02*
D03*
X1211980D02*
D03*
Y395555D02*
D03*
X1231665Y415240D02*
D03*
Y395555D02*
D03*
X1251350D02*
D03*
Y415240D02*
D03*
X1271035D02*
D03*
X1290720Y434925D02*
D03*
X1310406Y415240D02*
D03*
X1330091D02*
D03*
Y395555D02*
D03*
Y375870D02*
D03*
X1310406D02*
D03*
X1290720Y356185D02*
D03*
X1271035D02*
D03*
X1251350D02*
D03*
X1231665D02*
D03*
X1211980D02*
D03*
X1349776Y375870D02*
D03*
Y395555D02*
D03*
Y415240D02*
D03*
Y454610D02*
D03*
Y513665D02*
D03*
X1330091D02*
D03*
X1369461D02*
D03*
X1290720Y533350D02*
D03*
X1310406D02*
D03*
X1330091D02*
D03*
X1349776D02*
D03*
X1290720Y513665D02*
D03*
X1251350Y533350D02*
D03*
X1231665Y513665D02*
D03*
X1211980D02*
D03*
X1192295D02*
D03*
X1172610Y533350D02*
D03*
X1133240Y454610D02*
D03*
X1192295D02*
D03*
X1152925Y474295D02*
D03*
X1133240D02*
D03*
X1093870D02*
D03*
X1172610D02*
D03*
X1192295D02*
D03*
X1231665Y434925D02*
D03*
Y454610D02*
D03*
X1211980Y434925D02*
D03*
X1251350Y454610D02*
D03*
X1507256Y356185D02*
D03*
X1487571D02*
D03*
X1526941D02*
D03*
X1566311D02*
D03*
Y375870D02*
D03*
X1526941D02*
D03*
X1546626D02*
D03*
Y395555D02*
D03*
X1526941D02*
D03*
X1507256D02*
D03*
Y375870D02*
D03*
X1467886D02*
D03*
X1428516D02*
D03*
X1448201D02*
D03*
X1408831D02*
D03*
X1389146D02*
D03*
X1369461D02*
D03*
Y356185D02*
D03*
Y395555D02*
D03*
Y415240D02*
D03*
Y434925D02*
D03*
X1408831D02*
D03*
Y415240D02*
D03*
X1389146Y395555D02*
D03*
X1487571Y375870D02*
D03*
Y395555D02*
D03*
X1467886D02*
D03*
X1448201D02*
D03*
X1428516D02*
D03*
X1467886Y415240D02*
D03*
X1526941Y434925D02*
D03*
X1546626D02*
D03*
X1566311D02*
D03*
X1585996Y415240D02*
D03*
Y395555D02*
D03*
Y375870D02*
D03*
Y474295D02*
D03*
Y493980D02*
D03*
X1566311D02*
D03*
Y474295D02*
D03*
X1585996Y513665D02*
D03*
X1566311D02*
D03*
X1546626D02*
D03*
X1526941D02*
D03*
X1507256D02*
D03*
X1487571D02*
D03*
Y533350D02*
D03*
X1507256D02*
D03*
X1526941D02*
D03*
X1546626D02*
D03*
X1566311D02*
D03*
X1448201Y513665D02*
D03*
X1428516D02*
D03*
X1408831D02*
D03*
Y474295D02*
D03*
X1467886Y533350D02*
D03*
X1369461Y474295D02*
D03*
X1290720Y403429D02*
D03*
X1435602Y483350D02*
D03*
X1450957Y468784D02*
D03*
X1464342Y480594D02*
D03*
D42*
X1074185Y356185D02*
D03*
Y533350D02*
D03*
X1585996Y356185D02*
D03*
Y533350D02*
D03*
M02*
